<?xml version="1.0" encoding="UTF-8"?>
<svg width="22px" height="14px" viewBox="0 0 22 14" version="1.1" xmlns="http://www.w3.org/2000/svg" xmlns:xlink="http://www.w3.org/1999/xlink">
    <!-- Generator: Sketch 55.2 (78181) - https://sketchapp.com -->
    <title>behance163</title>
    <desc>Created with Sketch.</desc>
    <g id="Index" stroke="none" stroke-width="1" fill="none" fill-rule="evenodd">
        <g id="切图" transform="translate(-887.000000, -293.000000)" fill="#B6BECA" fill-rule="nonzero">
            <g id="behance163" transform="translate(887.000000, 293.000000)">
                <path d="M14.2735244,2.25752883 L19.868139,2.25752883 L19.868139,0.703693117 L14.2735244,0.703693117 L14.2735244,2.25752883 Z M17.0312472,5.37733415 C15.7832347,5.37733415 14.8354049,6.12727054 14.7441406,7.51262805 L19.2215916,7.51262805 C18.9181101,5.86848096 18.1649043,5.37733415 17.0312472,5.37733415 L17.0312472,5.37733415 Z M17.2060789,11.8030481 C18.3584287,11.8030481 19.2039984,11.0971478 19.376631,10.5024788 L21.8000843,10.5024788 C21.1073549,12.6532013 19.6768138,13.8612521 17.1082171,13.8612521 C13.8303975,13.8612521 11.9908161,11.6004179 11.9908161,8.60065103 C11.9908161,1.53622125 22.5027099,1.28294419 21.974916,9.2602867 L14.7441406,9.2602867 C14.8145131,10.8802086 15.5039438,11.8030481 17.2060789,11.8030481 L17.2060789,11.8030481 Z M6.30053885,11.4924921 C7.62332214,11.4924921 8.54916048,10.9991381 8.54916048,9.66774354 C8.54916048,8.2868003 7.73108005,7.68772765 6.35771651,7.68772765 L3.04361109,7.68772765 L3.04361109,11.4924921 L6.30053885,11.4924921 Z M6.12570715,5.61080028 C7.2263772,5.61080028 7.9861804,5.11414095 7.9861804,3.96004244 C7.9861804,2.74428268 7.10212574,2.36876004 5.89369778,2.36876004 L3.04361109,2.36876004 L3.04361109,5.61080028 L6.12570715,5.61080028 L6.12570715,5.61080028 Z M6.51385552,0 C9.12093713,0 10.9330293,0.835833503 10.9330293,3.43585253 C10.9330293,4.72320034 10.3997376,5.68237765 9.05276377,6.32880248 C10.7768903,6.82546181 11.5927716,8.12932582 11.5927716,9.84284314 C11.5927716,12.5629006 9.36834049,13.8612521 6.70737993,13.8612521 L0,13.8612521 L0,0 L6.51385552,0 Z" id="形状"></path>
            </g>
        </g>
    </g>
</svg>