<?xml version="1.0" encoding="UTF-8"?>
<svg width="22px" height="22px" viewBox="0 0 22 22" version="1.1" xmlns="http://www.w3.org/2000/svg" xmlns:xlink="http://www.w3.org/1999/xlink">
    <!-- Generator: Sketch 54.1 (76490) - https://sketchapp.com -->
    <title>codepen_icon</title>
    <desc>Created with Sketch.</desc>
    <g id="Page-1" stroke="none" stroke-width="1" fill="none" fill-rule="evenodd">
        <g id="切图" transform="translate(-835.000000, -296.000000)" fill="#B6BECA" fill-rule="nonzero">
            <g id="图标" transform="translate(667.000000, 296.000000)">
                <path d="M189,7.81862595 L188.985,7.74598059 L188.970833,7.70423038 C188.9625,7.68419028 188.955833,7.66248018 188.945833,7.64160507 C188.943333,7.626575 188.933333,7.61321493 188.929167,7.59985488 L188.9,7.5439096 L188.875,7.5021594 L188.838333,7.45205916 L188.8,7.41448398 L188.75,7.37690879 L188.711667,7.35185867 L188.661667,7.3151185 L188.625,7.28171833 L188.6125,7.26501826 L179.483333,1.14527352 C179.195561,0.951575494 178.819439,0.951575494 178.531667,1.14527352 L169.3775,7.25082317 L169.365,7.26334824 L169.328333,7.29257339 L169.278333,7.33432359 L169.246667,7.36772376 L169.205,7.41448398 L169.174167,7.45205916 L169.1325,7.5021594 C169.115833,7.51635446 169.1075,7.52720952 169.1075,7.5405696 L169.065833,7.59066984 L169.049167,7.64077008 C169.0325,7.64912013 169.0325,7.67417025 169.024167,7.69922035 L169.015833,7.74097057 C169,7.76685568 169,7.7919058 169,7.81695593 L169,14.0769813 C169,14.1137215 169.0025,14.1521317 169.008333,14.1897069 L169.016667,14.2281171 C169.020833,14.2531672 169.025,14.2782173 169.033333,14.2999274 L169.045833,14.3416776 C169.054167,14.3642228 169.059167,14.3859329 169.068333,14.4043029 L169.086667,14.4460531 C169.086667,14.4544032 169.099167,14.4794533 169.111667,14.4961534 L169.136667,14.5295536 C169.149167,14.5379036 169.161667,14.5629537 169.174167,14.5796538 L169.199167,14.613054 L169.2325,14.6464541 C169.240833,14.6573092 169.240833,14.6715042 169.2575,14.6715042 L169.3075,14.7065744 L169.340833,14.7316245 L169.349167,14.7433146 L178.490833,20.8638943 C178.6275,20.9640948 178.803333,21 178.965833,21 C179.128333,21 179.290833,20.9498998 179.440833,20.8496993 L188.599167,14.7708697 L188.610833,14.7625197 L188.649167,14.7316245 L188.699167,14.6957194 L188.739167,14.6656592 L188.7825,14.617229 L188.81,14.5796538 L188.843333,14.5295536 L188.868333,14.4878033 L188.893333,14.4293531 L188.906667,14.3859329 L188.931667,14.3216375 L188.944167,14.2840624 L188.969167,14.217262 L188.969167,7.95473159 C188.969167,7.9129814 188.969167,7.87540622 188.955833,7.83783103 L188.944167,7.80025585 L188.980833,7.80276086 L189,7.81862595 Z M179.008333,13.0624514 L175.966667,11.0250415 L179.008333,8.98596162 L182.05,11.0233715 L179.008333,13.0607814 L179.008333,13.0624514 Z M178.146667,7.48963434 L174.419167,9.98629647 L171.408333,7.96892668 L178.146667,3.46825479 L178.146667,7.49130434 L178.146667,7.48963434 Z M172.871667,11.0242065 L170.72,12.4687635 L170.72,9.58716454 L172.871667,11.0283815 L172.871667,11.0242065 Z M174.419167,12.0679616 L178.146667,14.5646237 L178.146667,18.5893433 L171.408333,14.0878364 L174.423333,12.0696316 L174.423333,12.0662916 L174.419167,12.0679616 Z M179.866667,14.5646237 L183.595,12.0763116 L186.605833,14.0970214 L179.866667,18.5976933 L179.866667,14.5729738 L179.866667,14.5646237 Z M185.141667,11.0325566 L187.294167,9.59634958 L187.294167,12.4821236 L185.141667,11.0375666 L185.141667,11.0325566 Z M183.595833,9.99715153 L179.868333,7.49965439 L179.868333,3.46658479 L186.605833,7.96725666 L183.595833,9.98379145 L183.595833,9.98629647 L183.595833,9.99715153 Z" id="形状"></path>
            </g>
        </g>
    </g>
</svg>