<?xml version="1.0" encoding="UTF-8"?>
<svg width="22px" height="22px" viewBox="0 0 22 22" version="1.1" xmlns="http://www.w3.org/2000/svg" xmlns:xlink="http://www.w3.org/1999/xlink">
    <!-- Generator: Sketch 54.1 (76490) - https://sketchapp.com -->
    <title>github_icon</title>
    <desc>Created with Sketch.</desc>
    <g id="Page-1" stroke="none" stroke-width="1" fill="none" fill-rule="evenodd">
        <g id="切图" transform="translate(-751.000000, -296.000000)" fill="#B6BECA" fill-rule="nonzero">
            <g id="图标" transform="translate(667.000000, 296.000000)">
                <path d="M85,10.7478269 C85,9.42706713 85.2638667,8.16416958 85.7909752,6.95850596 C86.3180642,5.75284235 87.0277309,4.71511065 87.9199951,3.84529184 C88.8115951,2.97612039 89.8761246,2.28430561 91.1135443,1.76982846 C92.3417571,1.25798427 93.664255,0.996038398 94.9999831,1.00004528 C96.35418,1.00004528 97.6496465,1.25664602 98.8864218,1.77110413 C100.123842,2.28495296 101.188371,2.97676775 102.079971,3.84658656 C102.972235,4.71575801 103.681921,5.75350874 104.208991,6.95980068 C104.734322,8.15662307 105.003476,9.44539825 104.999966,10.7471796 C104.999966,12.8666632 104.365123,14.7735854 103.095458,16.4685554 C101.826417,18.1628971 100.195463,19.3402484 98.2032003,20 C98.0986887,20 98.0206225,19.9811505 97.969021,19.9433944 C97.9167555,19.9056573 97.887068,19.8672919 97.8806227,19.8289265 C97.8729728,19.7722282 97.8697409,19.7150464 97.8709548,19.657872 C97.8604875,19.640315 97.8538951,19.6208213 97.8515993,19.6006381 L97.8515993,17.1446813 C97.8515993,16.3710902 97.5715998,15.7107103 97.0116007,15.1647982 C98.5090005,14.9107108 99.6289987,14.3685687 100.370951,13.5371343 C101.112883,12.7056809 101.484484,11.6994031 101.484484,10.5188912 C101.484484,9.41448176 101.119973,8.45599413 100.390306,7.64405662 C100.65095,6.83147175 100.605149,5.97486663 100.254173,5.07361294 C99.8889982,5.04844219 99.4922411,5.10883676 99.0625738,5.25473951 C98.6328871,5.40064227 98.3141767,5.53712028 98.1051536,5.66352617 C97.8974,5.79057943 97.7083574,5.91134952 97.5393342,6.02579836 C96.7838668,5.82266166 95.940626,5.72077916 95.0103151,5.72077916 C94.078676,5.72077916 93.2425642,5.82266166 92.4999873,6.02579836 C92.3567649,5.92393489 92.1903198,5.81323691 92.0019413,5.69246682 C91.8128791,5.57171577 91.4845007,5.42581302 91.0154781,5.25473951 C90.5470804,5.08303769 90.123878,5.01007679 89.7457927,5.03587586 C89.3812816,5.94971492 89.3425708,6.81888637 89.6290156,7.64403758 C88.9129035,8.45662245 88.5548377,9.41448176 88.5548377,10.5188721 C88.5548377,11.699384 88.9193488,12.7025393 89.6483906,13.5270622 C90.3774128,14.3522324 91.4974109,14.8981254 93.0077208,15.1647982 C92.6210803,15.5265807 92.3499813,15.98962 92.2270776,16.4981434 C91.1199896,16.7641689 90.3451472,16.5735986 89.9025698,15.925804 C89.0819267,14.7585058 88.3464396,14.339647 87.6954837,14.669837 C87.6038823,14.7585058 87.6174174,14.8503353 87.7341946,14.9459346 C87.8516163,15.0409056 88.0270847,15.1679398 88.2619281,15.326447 C88.4961074,15.4855634 88.6716149,15.6597785 88.789017,15.8503299 C88.8019272,15.8755006 88.8380404,15.9679393 88.8967707,16.1264465 C88.9528601,16.2795138 89.011363,16.4317305 89.0722587,16.5830423 C89.130325,16.7289451 89.2412819,16.8912222 89.4045043,17.0685598 C89.5670821,17.2465638 89.7561248,17.3956272 89.9709681,17.5163783 C90.1858115,17.636501 90.4819243,17.7258172 90.8593455,17.7830511 C91.2367668,17.8396377 91.666434,17.8427983 92.1483668,17.7924759 L92.1483668,19.7056812 C92.1483668,19.7245498 92.1451441,19.7560037 92.1386988,19.8012806 C92.1322535,19.8453008 92.1193434,19.8767547 92.099988,19.8956233 C92.0806325,19.9151201 92.0541873,19.9339887 92.0212772,19.9534855 C91.9825107,19.9738428 91.9388248,19.983618 91.8948321,19.9817788 C91.8425665,19.9817788 91.7774104,19.9754956 91.6993441,19.9629293 C89.719992,19.289964 88.1090182,18.1125937 86.8651726,16.4308374 C85.621913,14.7490811 85,12.8553726 85,10.7484743 L85,10.7478269 Z" id="路径"></path>
            </g>
        </g>
    </g>
</svg>