<?xml version="1.0" encoding="UTF-8"?>
<svg width="22px" height="22px" viewBox="0 0 22 22" version="1.1" xmlns="http://www.w3.org/2000/svg" xmlns:xlink="http://www.w3.org/1999/xlink">
    <!-- Generator: Sketch 54.1 (76490) - https://sketchapp.com -->
    <title>ig_icon</title>
    <desc>Created with Sketch.</desc>
    <g id="Page-1" stroke="none" stroke-width="1" fill="none" fill-rule="evenodd">
        <g id="切图" transform="translate(-709.000000, -296.000000)" fill="#B6BECA">
            <g id="图标" transform="translate(667.000000, 296.000000)">
                <g id="ins" transform="translate(44.000000, 2.000000)">
                    <path d="M6,0 L12,0 C15.3137085,-6.08718376e-16 18,2.6862915 18,6 L18,12 C18,15.3137085 15.3137085,18 12,18 L6,18 C2.6862915,18 4.05812251e-16,15.3137085 0,12 L0,6 C-4.05812251e-16,2.6862915 2.6862915,6.08718376e-16 6,0 Z M14,5 C14.5522847,5 15,4.55228475 15,4 C15,3.44771525 14.5522847,3 14,3 C13.4477153,3 13,3.44771525 13,4 C13,4.55228475 13.4477153,5 14,5 Z M9,12 C7.34314575,12 6,10.6568542 6,9 C6,7.34314575 7.34314575,6 9,6 C10.6568542,6 12,7.34314575 12,9 C12,10.6568542 10.6568542,12 9,12 Z M9,14 C11.7614237,14 14,11.7614237 14,9 C14,6.23857625 11.7614237,4 9,4 C6.23857625,4 4,6.23857625 4,9 C4,11.7614237 6.23857625,14 9,14 Z" id="形状结合"></path>
                </g>
            </g>
        </g>
    </g>
</svg>