<?xml version="1.0" encoding="UTF-8"?>
<svg width="16px" height="16px" viewBox="0 0 16 16" version="1.1" xmlns="http://www.w3.org/2000/svg" xmlns:xlink="http://www.w3.org/1999/xlink">
    <!-- Generator: Sketch 54.1 (76490) - https://sketchapp.com -->
    <title>mail_icon</title>
    <desc>Created with Sketch.</desc>
    <defs>
        <polygon id="path-1" points="0.727272727 2.18181818 0.727272727 13.8181818 15.2727273 13.8181818 15.2727273 2.18181818"></polygon>
    </defs>
    <g id="Page-1" stroke="none" stroke-width="1" fill="none" fill-rule="evenodd">
        <g id="切图" transform="translate(-677.000000, -429.000000)">
            <g id="mail" transform="translate(677.000000, 429.000000)">
                <mask id="mask-2" fill="white">
                    <use xlink:href="#path-1"></use>
                </mask>
                <g id="Clip-2"></g>
                <path d="M2.68185393,2.90909091 C2.17990871,2.90909091 1.74833595,3.21022442 1.55818217,3.64181288 C1.49124114,3.79328558 1.45454545,3.96009245 1.45454545,4.13635921 L7.99995312,8.36365271 L14.5454545,4.13635921 C14.5454545,3.95852851 14.5080088,3.78895615 14.4399802,3.63637726 C14.2485701,3.20776409 13.8178974,2.90909091 13.3181273,2.90909091 L2.68185393,2.90909091 Z M1.45454545,5.2272792 L1.45454545,10.7727208 L5.74728433,8 L1.45454545,5.2272792 Z M1.55818217,12.3581871 C1.74841095,12.7897756 2.17990871,13.0909091 2.68185393,13.0909091 L13.3182023,13.0909091 C13.8179724,13.0909091 14.2485701,12.7922359 14.4399802,12.3636227 C14.5083088,12.210815 14.5454545,12.0418529 14.5454545,11.8636408 L9.40723358,8.54543139 L7.99995312,9.4545727 L6.59269141,8.54543139 L1.45454545,11.8636408 C1.45454545,12.03924 1.49174742,12.2070959 1.55818217,12.3581871 L1.55818217,12.3581871 Z M14.5454545,10.7727208 L14.5454545,5.2272792 L10.2527157,8 L14.5454545,10.7727208 Z" id="Fill-1" fill="#B6BECA" mask="url(#mask-2)"></path>
            </g>
        </g>
    </g>
</svg>