<?xml version="1.0" encoding="UTF-8"?>
<svg width="16px" height="16px" viewBox="0 0 16 16" version="1.1" xmlns="http://www.w3.org/2000/svg" xmlns:xlink="http://www.w3.org/1999/xlink">
    <!-- Generator: Sketch 54.1 (76490) - https://sketchapp.com -->
    <title>wechat_icon</title>
    <desc>Created with Sketch.</desc>
    <g id="Page-1" stroke="none" stroke-width="1" fill="none" fill-rule="evenodd">
        <g id="切图" transform="translate(-712.000000, -429.000000)" fill="#B6BECA">
            <g id="wechat" transform="translate(712.000000, 429.000000)">
                <path d="M11.6546398,5.96538853 C11.5395257,5.96538853 11.4234194,5.94868608 11.3057454,5.94868608 C9.11486656,5.94868608 7.33884298,7.57178571 7.33884298,9.57518901 C7.33884298,9.65357918 7.34249424,9.73056634 7.34783223,9.80773166 C7.34930068,9.82886583 7.35124537,9.84966595 7.3531107,9.87080012 C7.35868681,9.93335636 7.36589013,9.99537813 7.37487939,10.0569545 C7.37706221,10.0721871 7.37876878,10.0874866 7.38116988,10.1026301 C7.39341353,10.1789269 7.40813766,10.254422 7.42542164,10.3291599 C7.42821963,10.3409852 7.43147402,10.3525656 7.43433153,10.3643909 C7.45014707,10.4293746 7.4679073,10.4936679 7.48751302,10.5572486 C7.49201757,10.5720358 7.4964229,10.586823 7.50124495,10.6014544 C7.54936626,10.7507298 7.60766746,10.8959075 7.6754937,11.0364976 C7.67989903,11.0458064 7.68456234,11.0549371 7.68912642,11.0640677 C7.72238469,11.1315679 7.7576472,11.1981105 7.79525127,11.2633614 C7.79687846,11.2661451 7.79842628,11.2690179 7.80005348,11.2718908 C7.84144773,11.3433104 7.88532245,11.4132603 7.93175704,11.4817181 C8.63117298,12.513885 9.88040218,13.2017142 11.3057454,13.2017142 C11.9731533,13.2017142 12.601568,13.0503455 13.1534648,12.7840639 L14.462543,13.7062618 L14.0631064,12.181818 C14.8085799,11.5223385 15.2727273,10.5995392 15.2727273,9.57614661 C15.2727273,7.68035164 13.6820451,6.12954022 11.6546398,5.96538853 Z M12.083227,8.29418922 C12.083227,7.97289364 12.3437731,7.7124179 12.6650921,7.7124179 C12.9864111,7.7124179 13.2468634,7.97289364 13.2468634,8.29418922 C13.2468634,8.61550824 12.9864111,8.87605426 12.6650921,8.87605426 C12.3437731,8.87605426 12.083227,8.61550824 12.083227,8.29418922 Z M9.52066116,8.29418922 C9.52066116,7.97289364 9.78111347,7.7124179 10.1024325,7.7124179 C10.4237515,7.7124179 10.6842975,7.97289364 10.6842975,8.29418922 C10.6842975,8.61550824 10.4237515,8.87605426 10.1024325,8.87605426 C9.78111347,8.87605426 9.52066116,8.61550824 9.52066116,8.29418922 Z" id="Fill-1"></path>
                <path d="M4.06762866,5.28826512 C3.66592844,5.28826512 3.34031671,4.9626534 3.34031671,4.56103161 C3.34031671,4.15933139 3.66592844,3.83371966 4.06762866,3.83371966 C4.46932889,3.83371966 4.79486217,4.15933139 4.79486217,4.56103161 C4.79486217,4.9626534 4.46932889,5.28826512 4.06762866,5.28826512 M7.22017107,3.83380133 C7.6217667,3.83380133 7.94737842,4.15933187 7.94737842,4.56106098 C7.94737842,4.96281624 7.6217667,5.28834678 7.22017107,5.28834678 C6.81844469,5.28834678 6.49283297,4.96281624 6.49283297,4.56106098 C6.49283297,4.15933187 6.81844469,3.83380133 7.22017107,3.83380133 M11.3057851,5.32813336 C10.5943423,3.61943309 8.47541334,2.18181818 6.10153325,2.18181818 C3.13338816,2.18181818 0.727272727,4.10775034 0.727272727,6.48347907 C0.727272727,7.71653543 1.37634403,8.82748052 2.41479577,9.61184279 L2.04613657,11.2323232 L3.45804851,10.2284016 C4.2388046,10.5822609 5.14029252,10.7852216 6.10153325,10.7852216 C6.39275282,10.7852216 6.67827768,10.7660097 6.9569024,10.7303624 C6.73928161,10.2284016 6.69947107,9.9499795 6.68341974,9.28546123 C6.64272687,7.60079378 7.99494745,6.33812667 9.09965,5.83313001 C10.2043525,5.32813336 11.2369291,5.32558129 11.3057851,5.32813336 Z" id="Fill-3"></path>
            </g>
        </g>
    </g>
</svg>