<?xml version="1.0" encoding="UTF-8"?>
<svg width="22px" height="22px" viewBox="0 0 22 22" version="1.1" xmlns="http://www.w3.org/2000/svg" xmlns:xlink="http://www.w3.org/1999/xlink">
    <!-- Generator: Sketch 54.1 (76490) - https://sketchapp.com -->
    <title>weibo_icon</title>
    <desc>Created with Sketch.</desc>
    <defs>
        <polygon id="path-1" points="11 18 22 18 22 3.30060691e-15 11 0 0 3.30060691e-15 0 18"></polygon>
    </defs>
    <g id="Page-1" stroke="none" stroke-width="1" fill="none" fill-rule="evenodd">
        <g id="切图" transform="translate(-667.000000, -296.000000)">
            <g id="图标" transform="translate(667.000000, 296.000000)">
                <g id="weibo" transform="translate(0.000000, 2.000000)">
                    <mask id="mask-2" fill="white">
                        <use xlink:href="#path-1"></use>
                    </mask>
                    <g id="Clip-2"></g>
                    <path d="M16.2945743,0 C15.8112826,0 15.3293373,0.0620423358 14.8646084,0.183949574 C14.4458855,0.293401893 14.1935689,0.72671114 14.3015368,1.15177517 C14.4108511,1.5760263 14.8377669,1.83177311 15.2564898,1.72243692 C15.5933129,1.63319118 15.94254,1.58929412 16.2952618,1.58929412 C18.5763378,1.58929412 20.4331908,3.47120627 20.4331908,5.78311796 C20.4331908,6.27916632 20.3480253,6.76412428 20.182994,7.22330144 C20.0344916,7.63509765 20.2435236,8.0921264 20.6498141,8.24193382 C20.7384457,8.27471145 20.8291972,8.29070833 20.9186023,8.29070833 C21.238295,8.29070833 21.5394248,8.0900651 21.6548981,7.76812431 C21.8831804,7.13335892 22,6.46529332 22,5.78245021 C21.9993411,2.5947748 19.4405393,0 16.2944597,0 L16.2945743,0 Z M8.18285964,16.637188 C3.74861337,16.637188 2.24849273,14.2994955 2.24849273,12.6099523 C2.24849273,9.93295763 5.7478098,7.95558681 9.04224855,7.95558681 C12.3360284,7.95558681 14.683793,9.37419919 15.2214554,11.2345402 C16.0175073,13.9873967 12.5457193,16.637188 8.18285964,16.637188 L8.18285964,16.637188 Z M16.0147286,8.47883857 C16.0917012,8.25520165 16.168015,8.03429377 16.168015,8.03429377 C17.5402585,5.36510881 14.0024408,4.49480319 11.9736814,5.62912987 C9.94563818,6.76479203 10.9246254,4.84319254 10.9246254,4.84319254 C11.2601022,1.33357635 7.61990261,2.88669604 7.61990261,2.88669604 C-0.834221244,7.69156575 0.0244801585,12.4531191 0.0244801585,12.4531191 C0.0244801585,15.0736166 4.0779312,18 9.19006344,18 C15.9625637,18 19.8242278,13.9873967 19.1531596,11.005242 C18.8815927,9.80129549 17.4708772,8.76939529 16.0148432,8.47883857 L16.0147286,8.47883857 Z M17.840042,7.3075536 C17.9363795,7.34895386 18.0399932,7.37026368 18.1446095,7.37026368 C18.4492055,7.37026368 18.7400514,7.18849154 18.8664961,6.88533474 C19.0122772,6.5369454 19.0858122,6.16564946 19.0858122,5.78381473 C19.0858122,4.22378531 17.8338831,2.95428358 16.2945743,2.95428358 C15.9185916,2.95428358 15.5528071,3.02878083 15.2077051,3.17655598 C14.809006,3.3479345 14.6226905,3.81402138 14.791102,4.21754334 C14.9601725,4.62161691 15.4200888,4.81111168 15.8189025,4.64042994 C15.9695248,4.5762392 16.1312045,4.54334544 16.2945743,4.5435777 C16.9689941,4.5435777 17.5183155,5.09963613 17.5183155,5.78381473 C17.5183155,5.95246421 17.4867759,6.11472655 17.4234389,6.26659527 C17.2543398,6.67008819 17.4413429,7.13687185 17.840042,7.3075536 L17.840042,7.3075536 Z M9.09719215,12.5911393 C8.81611468,12.6636043 8.54039407,12.5332776 8.48333065,12.3005826 C8.42492085,12.0678585 8.60573627,11.8211988 8.88684239,11.7494016 C9.16803444,11.6776334 9.44240867,11.8072633 9.50081847,12.0399583 C9.55991579,12.2726824 9.37706647,12.5200098 9.09719215,12.5911393 L9.09719215,12.5911393 Z M7.38815406,14.3741379 C6.717888,14.468145 6.11419594,14.0953684 6.03785356,13.5408196 C5.96300078,12.9876064 6.44417263,12.4621772 7.11455328,12.3674733 C7.78416047,12.2740469 8.38842546,12.6468235 8.4647392,13.2014884 C8.53970656,13.7553694 8.05776126,14.2799857 7.38815406,14.3741379 L7.38815406,14.3741379 Z M7.94429327,9.92117046 C6.03785356,10.1880077 4.66844597,11.6831786 4.88294944,13.259321 C5.09814042,14.8353473 6.81746253,15.897209 8.72390225,15.6303428 C10.628881,15.3635056 12.0004371,13.8682185 11.7852461,12.2908277 C11.5708572,10.7148014 9.85073299,9.65363648 7.94429327,9.92117046 L7.94429327,9.92117046 Z" id="Fill-1" fill="#B6BECA" mask="url(#mask-2)"></path>
                </g>
            </g>
        </g>
    </g>
</svg>