<?xml version="1.0" encoding="UTF-8"?>
<svg width="140px" height="64px" viewBox="0 0 140 64" version="1.1" xmlns="http://www.w3.org/2000/svg" xmlns:xlink="http://www.w3.org/1999/xlink">
    <!-- Generator: Sketch 55.2 (78181) - https://sketchapp.com -->
    <title>play_button</title>
    <desc>Created with Sketch.</desc>
    <g id="个人网站" stroke="none" stroke-width="1" fill="none" fill-rule="evenodd">
        <g id="OL-01-pic" transform="translate(-52.000000, -972.000000)">
            <g id="play_button" transform="translate(52.000000, 972.000000)">
                <path d="M32,0 L108,0 C125.673112,-3.24649801e-15 140,14.326888 140,32 C140,49.673112 125.673112,64 108,64 L32,64 C14.326888,64 2.164332e-15,49.673112 0,32 C-2.164332e-15,14.326888 14.326888,3.24649801e-15 32,0 Z" id="Rectangle-3" fill="#52535A"></path>
                <path d="M71.1132,38.6504348 L67,25.266087 L69.821,25.266087 L71.6046,31.7773913 C72.0232,33.2605217 72.2962,34.5989565 72.733,36.1001739 L72.824,36.1001739 C73.2426,34.5989565 73.552,33.2605217 73.9706,31.7773913 L75.7178,25.266087 L78.4478,25.266087 L74.3164,38.6504348 L71.1132,38.6504348 Z M80.7564,38.6504348 L80.7564,28.5217391 L83.4136,28.5217391 L83.4136,38.6504348 L80.7564,38.6504348 Z M82.1032,26.893913 C81.175,26.893913 80.5016,26.2789565 80.5016,25.4469565 C80.5016,24.5787826 81.175,24 82.1032,24 C83.0132,24 83.6866,24.5787826 83.6866,25.4469565 C83.6866,26.2789565 83.0132,26.893913 82.1032,26.893913 Z M90.8546,38.9036522 C88.3248,38.9036522 86.6868,36.914087 86.6868,33.6041739 C86.6868,30.2942609 88.7616,28.2685217 90.9638,28.2685217 C92.1104,28.2685217 92.8202,28.7026087 93.5482,29.3718261 L93.439,27.7801739 L93.439,24.2170435 L96.1144,24.2170435 L96.1144,38.6504348 L93.9486,38.6504348 L93.7302,37.6013913 L93.6756,37.6013913 C92.9294,38.3248696 91.9102,38.9036522 90.8546,38.9036522 Z M91.5462,36.7151304 C92.256,36.7151304 92.8566,36.4257391 93.439,35.666087 L93.439,31.2166957 C92.8202,30.656 92.1832,30.4570435 91.5462,30.4570435 C90.3996,30.4570435 89.435,31.5422609 89.435,33.568 C89.435,35.666087 90.1994,36.7151304 91.5462,36.7151304 Z M104.3926,38.9036522 C101.5534,38.9036522 99.3329999,36.9321739 99.3329999,33.6041739 C99.3329999,30.3123478 101.6444,28.2685217 104.0832,28.2685217 C106.886,28.2685217 108.342,30.3123478 108.342,33.1158261 C108.342,33.6041739 108.2874,34.0925217 108.2146,34.3276522 L101.9356,34.3276522 C102.154,35.9916522 103.246,36.8598261 104.7566,36.8598261 C105.5938,36.8598261 106.3218,36.6066087 107.0498,36.1544348 L107.9598,37.7822609 C106.9588,38.4695652 105.6666,38.9036522 104.3926,38.9036522 Z M101.8992,32.5732174 L106.0488,32.5732174 C106.0488,31.1986087 105.43,30.3304348 104.1196,30.3304348 C103.0458,30.3304348 102.0994,31.090087 101.8992,32.5732174 Z M115.783,38.9036522 C113.235,38.9036522 110.8872,36.9502609 110.8872,33.6041739 C110.8872,30.221913 113.235,28.2685217 115.783,28.2685217 C118.331,28.2685217 120.6788,30.221913 120.6788,33.6041739 C120.6788,36.9502609 118.331,38.9036522 115.783,38.9036522 Z M115.783,36.7332174 C117.1662,36.7332174 117.9488,35.5033043 117.9488,33.6041739 C117.9488,31.6869565 117.1662,30.4389565 115.783,30.4389565 C114.3998,30.4389565 113.6172,31.6869565 113.6172,33.6041739 C113.6172,35.5033043 114.3998,36.7332174 115.783,36.7332174 Z" id="Video" fill="#FFFFFF"></path>
                <path d="M33,11 C21.42,11 12,20.42 12,32 C12,43.58 21.42,53 33,53 C44.58,53 54,43.58 54,32 C54,20.42 44.58,11 33,11 Z M33,14 C42.959,14 51,22.041 51,32 C51,41.959 42.959,50 33,50 C23.041,50 15,41.959 15,32 C15,22.041 23.041,14 33,14 Z M29.0625,22.5 C27.9746,22.5253905 27.02735,23.4551 27,24.78125 L27,39.20325 C27.0371095,40.9728 28.709,42.04505 30.1719,41.20325 L41.9219,33.96875 C42.5625,33.57422 43,32.84765 43,32 C43,31.15235 42.5625,30.4258 41.9219,30.03125 L30.1719,22.79675 C29.806665,22.58581 29.4258,22.49206 29.0625,22.499875 L29.0625,22.5 Z" id="Shape" fill="#FFFFFF" fill-rule="nonzero"></path>
            </g>
        </g>
    </g>
</svg>