<?xml version="1.0" encoding="UTF-8"?>
<svg width="136px" height="50px" viewBox="0 0 136 50" version="1.1" xmlns="http://www.w3.org/2000/svg" xmlns:xlink="http://www.w3.org/1999/xlink">
    <!-- Generator: Sketch 55.2 (78181) - https://sketchapp.com -->
    <title>编组 9</title>
    <desc>Created with Sketch.</desc>
    <g id="个人网站" stroke="none" stroke-width="1" fill="none" fill-rule="evenodd">
        <g id="GM-02" transform="translate(-631.000000, -200.000000)">
            <g id="编组-10" transform="translate(332.000000, 80.000000)">
                <g id="编组-9" transform="translate(299.000000, 118.000000)">
                    <g id="编组" transform="translate(17.000000, 14.000000)" font-family="SetoFont" font-size="32" font-weight="normal" letter-spacing="0.503144654">
                        <text id="Banana" stroke="#835E00" stroke-width="12" fill="#F2BE3C">
                            <tspan x="0" y="28">Banana</tspan>
                        </text>
                        <text id="Banana" stroke="#FFDC49" stroke-width="1.59" fill="#FFDE51">
                            <tspan x="0" y="28">Banana</tspan>
                        </text>
                    </g>
                    <g id="banana_logo">
                        <g id="Group-3" transform="translate(0.000000, 0.857143)">
                            <ellipse id="纸片4" fill="#FFDE4A" cx="124.438596" cy="47.5714286" rx="3.43859649" ry="3.42857143"></ellipse>
                            <path d="M39.5086664,2.77348542 L44.0201655,10.7901281 C44.3552517,11.3855545 44.1442042,12.139884 43.5487777,12.4749701 C43.3554711,12.5837567 43.136471,12.6385687 42.9147099,12.6336665 L34.2097788,12.4412371 C33.5267068,12.4261372 32.9852084,11.8601571 33.0003083,11.1770851 C33.0046105,10.9824654 33.0547802,10.7916079 33.1467384,10.6200299 L37.3401704,2.79581656 C37.6629233,2.19361572 38.4127466,1.96707847 39.0149474,2.28983146 C39.222127,2.40087056 39.3933842,2.56863647 39.5086664,2.77348542 Z" id="纸片3" fill="#FFDE4A" transform="translate(38.589692, 7.388413) scale(-1, 1) rotate(-164.000000) translate(-38.589692, -7.388413) "></path>
                            <circle id="纸片1" fill="#FFFFFF" cx="4.5" cy="20.6428571" r="4.5"></circle>
                        </g>
                        <path d="M126.475973,10.2796463 C127.952997,11.9128453 128.034254,14.2854456 126.373892,15.0567721 C124.452408,15.9494041 122.784005,15.0176249 122.787405,13.1839239 C122.789922,11.8310941 124.320846,10.7008054 126.475973,10.2796463 Z M133.896784,14.2714958 C134.260241,14.8815067 135.049393,15.0813782 135.659404,14.7179213 C136.269415,14.3544645 136.469286,13.5653129 136.105829,12.9553021 C134.153942,9.67933547 131.600678,7.83068531 128.498401,7.53746787 L128.380158,7.53176607 C128.008402,7.53097385 127.640335,7.5457253 127.278061,7.5756102 C126.275314,6.82723307 125.036056,6.29717005 123.597279,6.12773693 C120.562838,5.77039544 117.918066,6.16099575 115.691451,7.32221 C115.061847,7.65055836 114.81763,8.42713239 115.145979,9.05673664 C115.474327,9.6863409 116.250901,9.93055706 116.880505,9.6022087 C118.610348,8.70006913 120.72771,8.38432575 123.260679,8.67733299 C121.431329,9.63984827 120.2197,11.1788112 120.215986,13.1791496 C120.208929,16.9801228 123.899851,19.0414504 127.457264,17.3888424 C130.274833,16.0799312 130.778359,12.9864626 129.554055,10.3637606 C131.213457,10.9017163 132.652142,12.1825403 133.896784,14.2714958 Z" id="Path-22" fill="#FFFFFF" fill-rule="nonzero" transform="translate(125.643610, 11.982153) rotate(-39.000000) translate(-125.643610, -11.982153) "></path>
                    </g>
                </g>
            </g>
        </g>
    </g>
</svg>