<?xml version="1.0" encoding="UTF-8"?>
<svg width="146px" height="57px" viewBox="0 0 146 57" version="1.1" xmlns="http://www.w3.org/2000/svg" xmlns:xlink="http://www.w3.org/1999/xlink">
    <!-- Generator: Sketch 54.1 (76490) - https://sketchapp.com -->
    <title>banana_logo</title>
    <desc>Created with Sketch.</desc>
    <g id="Page-1" stroke="none" stroke-width="1" fill="none" fill-rule="evenodd">
        <g id="首页" transform="translate(-241.000000, -2575.000000)">
            <g id="Group" transform="translate(120.000000, 2460.000000)">
                <g id="banana_logo" transform="translate(121.000000, 111.000000)">
                    <g id="Group-6" transform="translate(11.808050, 18.842415)">
                        <path d="M14.6549752,34.4904424 C13.877519,34.282824 13.1259894,33.9454491 12.4003636,33.4783076 C11.6747379,33.011166 10.9750378,32.5440315 10.3012425,32.07689 C9.99026004,31.7135577 9.86068596,31.2464232 9.91251637,30.6754725 L10.3012425,29.8969072 C10.7158858,29.5854795 11.2082673,29.45572 11.7784018,29.5076246 L13.4110516,30.4419029 L13.1000707,3.03640464 C13.1519011,2.62116774 13.30739,2.2578409 13.566542,1.94641323 C13.9293549,1.63498556 14.3958216,1.50522597 14.9659561,1.55713058 L15.7434084,1.94641323 C16.0025604,3.45164699 16.1580493,5.00227402 16.2098797,6.59834085 C16.2617101,8.19440768 16.3653694,17.0764512 16.5208606,33.244738 C16.0543869,34.179021 15.4324313,34.5942517 14.6549752,34.4904424 Z M1.71039498,22.7730348 C1.2957517,22.7211302 0.932944272,22.5654187 0.621961812,22.3058956 C0.310979351,21.9425633 0.181405269,21.4754288 0.233235679,20.9044781 C0.907031011,19.3473397 1.55490142,17.7642728 2.17686634,16.1552298 C2.79883126,14.5461868 3.62810538,13.0409756 4.66471359,11.6395511 C5.10527207,11.2762188 5.61061099,11.1205073 6.1807455,11.1724119 L6.95819777,11.5616946 C7.26918023,11.9250269 7.39875431,12.3921614 7.3469239,12.9631121 C6.36214611,14.4164413 5.5523081,15.9476044 4.91738557,17.5566473 C4.28246305,19.1656903 3.60219912,20.7487572 2.87657338,22.3058956 C2.51376051,22.5654187 2.12503826,22.7211302 1.71039498,22.7730348 Z M28.843479,22.3058956 L28.0660268,21.916613 C27.081249,20.2556654 25.9604332,18.6596225 24.7035457,17.1284364 C23.4466583,15.5972504 22.4813314,13.9493036 21.807536,12.1845468 L22.1962622,11.4059815 C22.559075,11.0945539 23.0255417,10.9647943 23.5956762,11.0166989 L24.3731285,11.4059815 C25.3838215,13.0669291 26.5240734,14.662972 27.7939185,16.1941581 C29.0637635,17.7253441 30.0096543,19.3732909 30.6316192,21.1380477 L30.2428931,21.916613 C29.8800802,22.2280406 29.4136135,22.3578002 28.843479,22.3058956 Z M69.2321242,35.6972186 C68.8174809,35.645314 68.441716,35.4636506 68.1048184,35.1522229 C67.6383447,34.2957968 67.1524419,33.4653355 66.6470954,32.660814 C66.1417489,31.8562925 65.811335,30.9739273 65.6558437,30.013692 L66.0445699,29.2351267 C66.4073827,28.923699 66.860892,28.7939395 67.4051113,28.8458441 L68.1825636,29.2351267 L70.4371752,32.9722401 C70.7481576,33.3615247 70.8777317,33.8416352 70.8259013,34.4125859 L70.3594299,35.2300795 C70.0225323,35.4896025 69.6467674,35.645314 69.2321242,35.6972186 Z M40.8551165,35.2300795 L40.1165369,34.8797251 C39.8055544,34.5163928 39.6759803,34.0492583 39.7278107,33.4783076 C40.142454,32.7775953 40.4469531,32.0249897 40.6413171,31.2204682 C40.8356812,30.4159467 41.1660951,29.6503652 41.6325688,28.9237006 C42.0212968,28.5863206 42.5266358,28.4306091 43.1486007,28.4565614 L43.8871803,28.8458441 C44.1981628,29.261081 44.3277369,29.7411914 44.2759065,30.2861899 C43.6280263,32.1807082 42.9931133,33.6859194 42.3711484,34.8018686 C41.9824203,35.1392485 41.4770814,35.2819841 40.8551165,35.2300795 Z M50.8453781,35.2300795 C50.4307348,35.1781749 50.0679274,35.0354393 49.7569449,34.8018686 C49.4200473,34.1271086 49.251601,33.4134309 49.251601,32.660814 C49.251601,31.9081971 49.2256861,31.1426156 49.1738557,30.3640464 C49.2256861,29.9747618 49.381175,29.6244109 49.6403271,29.3129832 C49.9772248,29.0015556 50.430734,28.871796 51.0008686,28.9237006 L51.7394482,29.3129832 C52.0504307,30.0136955 52.218877,30.7727891 52.2447922,31.5902867 C52.2707074,32.4077844 52.3614092,33.1928299 52.5169005,33.9454467 L52.1281743,34.724012 C51.7653615,35.0094874 51.337767,35.1781749 50.8453781,35.2300795 Z M59.7860791,35.2300795 C59.3714359,35.1781749 59.0215858,35.0354393 58.7365186,34.8018686 C58.4255361,34.0232994 58.1923028,33.2187899 58.0368115,32.3883162 C57.8813203,31.5578424 57.7517462,30.7144051 57.6480854,29.857979 C57.6999158,29.4427421 57.8554047,29.0794152 58.1145568,28.7679875 C58.5292001,28.4825122 59.0086242,28.3657285 59.5528435,28.4176332 L60.3302957,28.7679875 C60.615363,29.1313198 60.7449371,29.5854784 60.7190219,30.1304768 C61.0040891,31.4540444 61.1984502,32.7516403 61.3021111,34.0233033 L60.9133849,34.8018686 C60.5764873,35.0354393 60.2007224,35.1781749 59.7860791,35.2300795 Z M66.1223151,27.5222831 L45.5198301,26.8994308 C44.7164587,26.8994308 44.3277365,26.3284887 44.3536517,25.1865872 L44.4313969,17.0505799 C43.7835168,17.4398645 43.1809973,17.8875351 42.6238204,18.393605 C42.0666435,18.899675 41.4252518,19.1786581 40.699626,19.2305627 L39.9610464,18.8412801 C39.6500639,18.5039001 39.5204899,18.0497415 39.5723203,17.4787908 L40.1942821,16.5055842 C41.5418727,15.5972535 42.7663478,14.507273 43.867744,13.23561 C44.9691402,11.963947 46.025169,10.718255 47.035862,9.49849656 L48.1242952,9.42064003 L48.8628748,9.80992268 C49.1738573,10.173255 49.3034314,10.6274135 49.251601,11.1724119 L47.9688047,13.0020404 L55.1602382,12.9241838 L57.3759771,9.34278351 C57.7647052,9.00540353 58.2700441,8.86266798 58.892009,8.91457259 L59.6305887,9.26492698 C59.9415712,9.68016387 60.0711452,10.1732503 60.0193148,10.744201 L58.8142638,12.9241838 C60.1100241,12.9241838 61.425201,12.9501358 62.7598341,13.0020404 C64.0944671,13.053945 65.344857,13.2615603 66.5110412,13.6248926 C66.8220237,13.9622726 66.9515978,14.4164311 66.8997674,14.9873819 L66.5110412,15.7270189 C66.096398,16.0384466 65.6428887,16.1941581 65.1504998,16.1941581 L57.9590663,15.882732 L57.8813211,17.3230777 L62.9736334,17.3230777 C63.673344,17.2711731 64.3212144,17.4528366 64.9172641,17.8680735 C65.1245857,18.1275965 65.2023302,18.4519955 65.1504998,18.8412801 C64.9950085,19.2046124 64.7358604,19.4641315 64.3730475,19.6198454 L57.9590663,19.5419888 L57.9590663,20.593052 C62.4942272,20.5411474 65.1634533,20.7228108 65.9668246,21.1380477 C66.1741463,21.3975707 66.2518907,21.7219697 66.2000603,22.1112543 C66.0445691,22.4745866 65.7854209,22.7341058 65.4226081,22.8898196 L57.9590663,22.8119631 L57.9590663,24.0965958 C59.5398938,24.200405 61.1595699,24.2782608 62.818143,24.3301654 C64.4767161,24.38207 66.0575199,24.5896853 67.5606018,24.9530176 C67.8715842,25.2903976 68.0011583,25.7445561 67.9493279,26.3155069 L67.5606018,27.0551439 C67.1718737,27.3665716 66.6924496,27.5222831 66.1223151,27.5222831 Z M55.0047477,23.9408827 L55.0047477,22.8119631 L47.5023334,22.7341065 L47.5023334,23.9408827 L55.0047477,23.9408827 Z M55.0047477,20.593052 L55.0047477,19.6977019 L47.4245881,19.4641323 L47.5023334,20.5151954 L55.0047477,20.593052 Z M54.9270025,17.3230777 L55.0047477,15.882732 L47.5023334,15.9605885 L47.4245881,17.2452212 L54.9270025,17.3230777 Z M49.7180723,9.73206615 C49.303429,9.68016154 48.9406216,9.52445004 48.6296391,9.26492698 C48.2409111,8.33064395 47.9947203,7.35744707 47.8910595,6.34530713 L40.3497725,6.65673325 C39.9351292,6.60482864 39.5723218,6.44911713 39.2613394,6.18959407 C38.9762721,5.85221409 38.846698,5.39805555 38.8726132,4.82710481 L39.2613394,4.08746778 C39.8314739,3.77604011 40.4404721,3.59437669 41.0883522,3.54247208 L47.2690977,3.46461555 L47.1913525,2.17998282 C47.2431829,1.76474592 47.3986718,1.41439504 47.6578238,1.12891967 C48.0465519,0.817492 48.525976,0.687732415 49.0961105,0.739637027 L49.8346902,1.12891967 C50.1456726,1.46629965 50.2493319,2.16700141 50.1456711,3.23104596 L59.8638244,3.30890249 C59.8638244,2.40057178 60.0970577,1.57011044 60.5635314,0.817493557 C60.9004291,0.506065883 61.3539384,0.376306298 61.9240729,0.428210911 L62.6626525,0.817493557 C63.0254654,1.20677815 63.1550395,1.71284053 63.0513787,2.33569588 L62.8958882,3.46461555 L70.4371752,3.46461555 L71.2146274,3.8538982 C71.5256099,4.19127818 71.655184,4.64543672 71.6033536,5.21638746 L71.2146274,5.95602448 C70.8518146,6.21554755 70.4760497,6.37125905 70.0873216,6.42316366 L62.4294168,6.42316366 C62.4812473,7.27958976 62.3387158,8.04517131 62.0018181,8.71993127 C61.6390052,9.03135895 61.1854959,9.17409449 60.6412766,9.14814218 L59.8638244,8.71993127 C59.4491811,8.14898054 59.2936922,7.51315857 59.397353,6.81244631 L59.4750982,6.2674506 L50.8453781,6.34530713 L51.2341042,8.48636168 L50.8453781,9.26492698 C50.4825652,9.52445004 50.1068004,9.68016154 49.7180723,9.73206615 Z M88.5906855,34.3347294 C87.8132294,34.0752063 87.3726775,33.5950959 87.2690167,32.8943836 C87.1653559,32.1936713 87.1264837,31.5059455 87.1523989,30.8311856 C87.1783141,30.1564256 87.1394418,29.0534691 87.035781,27.5222831 C86.1028336,28.4825184 85.241166,29.4427393 84.4507522,30.4029747 C83.6603385,31.36321 83.0059894,32.3623588 82.4876853,33.400451 C82.1248724,33.7118787 81.6584057,33.8416383 81.0882712,33.7897337 L80.3108189,33.400451 C79.9480061,32.9852141 79.818432,32.4661758 79.9220928,31.8433204 C81.5288355,29.6633267 83.1031606,27.4379499 84.6451153,25.1671231 C86.18707,22.8962963 87.3208432,20.4114002 88.046469,17.7123604 C87.3208432,17.6085512 86.53692,17.5825993 85.6946759,17.6345039 C84.8524317,17.6864085 84.1203381,17.530697 83.4983732,17.1673647 C83.1873908,16.8040324 83.0578167,16.3368979 83.1096471,15.7659472 L83.4983732,14.9873819 C84.6645574,14.572145 85.9473408,14.4423854 87.3467619,14.5980992 L88.8239212,14.6759558 L89.6013735,11.2502685 L79.7666023,11.0945554 C79.3519591,11.0426508 78.9891516,10.8869393 78.6781692,10.6274162 C78.3671867,10.264084 78.2376126,9.79694945 78.289443,9.22599871 L78.6781692,8.40850515 L79.4556214,8.01922251 L90.3010805,8.2527921 L90.9230423,4.67139175 C87.346744,4.72329636 84.9496235,4.87900787 83.7316089,5.13853093 L82.9541566,4.74924828 C82.6431742,4.33401138 82.5136001,3.84092496 82.5654305,3.26997423 L82.9541566,2.49140893 C83.5761215,2.12807665 84.2823003,1.90748535 85.072714,1.82962844 C85.8631278,1.75177152 89.0960011,1.68689173 94.771431,1.63498711 C100.446861,1.5830825 103.744521,1.62201038 104.664511,1.75177191 C105.584501,1.88153344 105.811256,2.77687457 105.344782,4.43782216 L104.800565,8.68100301 L108.687827,8.60314648 L109.465279,8.99242912 C109.776261,9.35576141 109.905835,9.82289591 109.854005,10.3938466 L109.465279,11.1724119 C108.687823,11.5357442 107.845591,11.7174076 106.938559,11.7174076 L104.217476,11.7174076 C104.113815,12.7035953 103.971284,13.6897681 103.789877,14.6759558 C103.608471,15.6621434 103.478897,16.4861168 103.401151,17.1479006 C103.323406,17.8096844 102.714407,18.0756915 101.574138,17.94593 L91.156278,17.8680735 C90.8452956,19.1137841 90.4824881,20.3075723 90.0678448,21.4494738 L106.899686,21.6830434 C107.910379,21.5532819 108.350931,22.3058874 108.221355,23.9408827 C108.065864,28.4306317 108.020513,31.1685589 108.085301,32.1547466 C108.150089,33.1409342 107.890941,33.7248523 107.307849,33.9065185 C106.724757,34.0881846 105.96027,34.1919923 105.014365,34.2179446 C104.06846,34.2438969 98.5939547,34.2828248 88.5906855,34.3347294 Z M105.033801,31.1426117 L105.189291,24.719448 L89.9123544,24.4858784 L90.3010805,31.2204682 L105.033801,31.1426117 Z M100.641196,14.9095253 L101.263157,11.5616946 L92.7111825,11.328125 C92.5038609,12.5219311 92.2447127,13.6897673 91.9337303,14.8316688 L100.641196,14.9095253 Z M101.807374,8.48636168 L102.118355,4.82710481 L93.9551062,4.74924828 L93.3331444,8.2527921 L101.807374,8.48636168 Z" id="小蕉君" stroke="#835E00" stroke-width="6.18556701" fill="#835E00"></path>
                        <path d="M14.6549752,34.4904424 C13.877519,34.282824 13.1259894,33.9454491 12.4003636,33.4783076 C11.6747379,33.011166 10.9750378,32.5440315 10.3012425,32.07689 C9.99026004,31.7135577 9.86068596,31.2464232 9.91251637,30.6754725 L10.3012425,29.8969072 C10.7158858,29.5854795 11.2082673,29.45572 11.7784018,29.5076246 L13.4110516,30.4419029 L13.1000707,3.03640464 C13.1519011,2.62116774 13.30739,2.2578409 13.566542,1.94641323 C13.9293549,1.63498556 14.3958216,1.50522597 14.9659561,1.55713058 L15.7434084,1.94641323 C16.0025604,3.45164699 16.1580493,5.00227402 16.2098797,6.59834085 C16.2617101,8.19440768 16.3653694,17.0764512 16.5208606,33.244738 C16.0543869,34.179021 15.4324313,34.5942517 14.6549752,34.4904424 Z M1.71039498,22.7730348 C1.2957517,22.7211302 0.932944272,22.5654187 0.621961812,22.3058956 C0.310979351,21.9425633 0.181405269,21.4754288 0.233235679,20.9044781 C0.907031011,19.3473397 1.55490142,17.7642728 2.17686634,16.1552298 C2.79883126,14.5461868 3.62810538,13.0409756 4.66471359,11.6395511 C5.10527207,11.2762188 5.61061099,11.1205073 6.1807455,11.1724119 L6.95819777,11.5616946 C7.26918023,11.9250269 7.39875431,12.3921614 7.3469239,12.9631121 C6.36214611,14.4164413 5.5523081,15.9476044 4.91738557,17.5566473 C4.28246305,19.1656903 3.60219912,20.7487572 2.87657338,22.3058956 C2.51376051,22.5654187 2.12503826,22.7211302 1.71039498,22.7730348 Z M28.843479,22.3058956 L28.0660268,21.916613 C27.081249,20.2556654 25.9604332,18.6596225 24.7035457,17.1284364 C23.4466583,15.5972504 22.4813314,13.9493036 21.807536,12.1845468 L22.1962622,11.4059815 C22.559075,11.0945539 23.0255417,10.9647943 23.5956762,11.0166989 L24.3731285,11.4059815 C25.3838215,13.0669291 26.5240734,14.662972 27.7939185,16.1941581 C29.0637635,17.7253441 30.0096543,19.3732909 30.6316192,21.1380477 L30.2428931,21.916613 C29.8800802,22.2280406 29.4136135,22.3578002 28.843479,22.3058956 Z M69.2321242,35.6972186 C68.8174809,35.645314 68.441716,35.4636506 68.1048184,35.1522229 C67.6383447,34.2957968 67.1524419,33.4653355 66.6470954,32.660814 C66.1417489,31.8562925 65.811335,30.9739273 65.6558437,30.013692 L66.0445699,29.2351267 C66.4073827,28.923699 66.860892,28.7939395 67.4051113,28.8458441 L68.1825636,29.2351267 L70.4371752,32.9722401 C70.7481576,33.3615247 70.8777317,33.8416352 70.8259013,34.4125859 L70.3594299,35.2300795 C70.0225323,35.4896025 69.6467674,35.645314 69.2321242,35.6972186 Z M40.8551165,35.2300795 L40.1165369,34.8797251 C39.8055544,34.5163928 39.6759803,34.0492583 39.7278107,33.4783076 C40.142454,32.7775953 40.4469531,32.0249897 40.6413171,31.2204682 C40.8356812,30.4159467 41.1660951,29.6503652 41.6325688,28.9237006 C42.0212968,28.5863206 42.5266358,28.4306091 43.1486007,28.4565614 L43.8871803,28.8458441 C44.1981628,29.261081 44.3277369,29.7411914 44.2759065,30.2861899 C43.6280263,32.1807082 42.9931133,33.6859194 42.3711484,34.8018686 C41.9824203,35.1392485 41.4770814,35.2819841 40.8551165,35.2300795 Z M50.8453781,35.2300795 C50.4307348,35.1781749 50.0679274,35.0354393 49.7569449,34.8018686 C49.4200473,34.1271086 49.251601,33.4134309 49.251601,32.660814 C49.251601,31.9081971 49.2256861,31.1426156 49.1738557,30.3640464 C49.2256861,29.9747618 49.381175,29.6244109 49.6403271,29.3129832 C49.9772248,29.0015556 50.430734,28.871796 51.0008686,28.9237006 L51.7394482,29.3129832 C52.0504307,30.0136955 52.218877,30.7727891 52.2447922,31.5902867 C52.2707074,32.4077844 52.3614092,33.1928299 52.5169005,33.9454467 L52.1281743,34.724012 C51.7653615,35.0094874 51.337767,35.1781749 50.8453781,35.2300795 Z M59.7860791,35.2300795 C59.3714359,35.1781749 59.0215858,35.0354393 58.7365186,34.8018686 C58.4255361,34.0232994 58.1923028,33.2187899 58.0368115,32.3883162 C57.8813203,31.5578424 57.7517462,30.7144051 57.6480854,29.857979 C57.6999158,29.4427421 57.8554047,29.0794152 58.1145568,28.7679875 C58.5292001,28.4825122 59.0086242,28.3657285 59.5528435,28.4176332 L60.3302957,28.7679875 C60.615363,29.1313198 60.7449371,29.5854784 60.7190219,30.1304768 C61.0040891,31.4540444 61.1984502,32.7516403 61.3021111,34.0233033 L60.9133849,34.8018686 C60.5764873,35.0354393 60.2007224,35.1781749 59.7860791,35.2300795 Z M66.1223151,27.5222831 L45.5198301,26.8994308 C44.7164587,26.8994308 44.3277365,26.3284887 44.3536517,25.1865872 L44.4313969,17.0505799 C43.7835168,17.4398645 43.1809973,17.8875351 42.6238204,18.393605 C42.0666435,18.899675 41.4252518,19.1786581 40.699626,19.2305627 L39.9610464,18.8412801 C39.6500639,18.5039001 39.5204899,18.0497415 39.5723203,17.4787908 L40.1942821,16.5055842 C41.5418727,15.5972535 42.7663478,14.507273 43.867744,13.23561 C44.9691402,11.963947 46.025169,10.718255 47.035862,9.49849656 L48.1242952,9.42064003 L48.8628748,9.80992268 C49.1738573,10.173255 49.3034314,10.6274135 49.251601,11.1724119 L47.9688047,13.0020404 L55.1602382,12.9241838 L57.3759771,9.34278351 C57.7647052,9.00540353 58.2700441,8.86266798 58.892009,8.91457259 L59.6305887,9.26492698 C59.9415712,9.68016387 60.0711452,10.1732503 60.0193148,10.744201 L58.8142638,12.9241838 C60.1100241,12.9241838 61.425201,12.9501358 62.7598341,13.0020404 C64.0944671,13.053945 65.344857,13.2615603 66.5110412,13.6248926 C66.8220237,13.9622726 66.9515978,14.4164311 66.8997674,14.9873819 L66.5110412,15.7270189 C66.096398,16.0384466 65.6428887,16.1941581 65.1504998,16.1941581 L57.9590663,15.882732 L57.8813211,17.3230777 L62.9736334,17.3230777 C63.673344,17.2711731 64.3212144,17.4528366 64.9172641,17.8680735 C65.1245857,18.1275965 65.2023302,18.4519955 65.1504998,18.8412801 C64.9950085,19.2046124 64.7358604,19.4641315 64.3730475,19.6198454 L57.9590663,19.5419888 L57.9590663,20.593052 C62.4942272,20.5411474 65.1634533,20.7228108 65.9668246,21.1380477 C66.1741463,21.3975707 66.2518907,21.7219697 66.2000603,22.1112543 C66.0445691,22.4745866 65.7854209,22.7341058 65.4226081,22.8898196 L57.9590663,22.8119631 L57.9590663,24.0965958 C59.5398938,24.200405 61.1595699,24.2782608 62.818143,24.3301654 C64.4767161,24.38207 66.0575199,24.5896853 67.5606018,24.9530176 C67.8715842,25.2903976 68.0011583,25.7445561 67.9493279,26.3155069 L67.5606018,27.0551439 C67.1718737,27.3665716 66.6924496,27.5222831 66.1223151,27.5222831 Z M55.0047477,23.9408827 L55.0047477,22.8119631 L47.5023334,22.7341065 L47.5023334,23.9408827 L55.0047477,23.9408827 Z M55.0047477,20.593052 L55.0047477,19.6977019 L47.4245881,19.4641323 L47.5023334,20.5151954 L55.0047477,20.593052 Z M54.9270025,17.3230777 L55.0047477,15.882732 L47.5023334,15.9605885 L47.4245881,17.2452212 L54.9270025,17.3230777 Z M49.7180723,9.73206615 C49.303429,9.68016154 48.9406216,9.52445004 48.6296391,9.26492698 C48.2409111,8.33064395 47.9947203,7.35744707 47.8910595,6.34530713 L40.3497725,6.65673325 C39.9351292,6.60482864 39.5723218,6.44911713 39.2613394,6.18959407 C38.9762721,5.85221409 38.846698,5.39805555 38.8726132,4.82710481 L39.2613394,4.08746778 C39.8314739,3.77604011 40.4404721,3.59437669 41.0883522,3.54247208 L47.2690977,3.46461555 L47.1913525,2.17998282 C47.2431829,1.76474592 47.3986718,1.41439504 47.6578238,1.12891967 C48.0465519,0.817492 48.525976,0.687732415 49.0961105,0.739637027 L49.8346902,1.12891967 C50.1456726,1.46629965 50.2493319,2.16700141 50.1456711,3.23104596 L59.8638244,3.30890249 C59.8638244,2.40057178 60.0970577,1.57011044 60.5635314,0.817493557 C60.9004291,0.506065883 61.3539384,0.376306298 61.9240729,0.428210911 L62.6626525,0.817493557 C63.0254654,1.20677815 63.1550395,1.71284053 63.0513787,2.33569588 L62.8958882,3.46461555 L70.4371752,3.46461555 L71.2146274,3.8538982 C71.5256099,4.19127818 71.655184,4.64543672 71.6033536,5.21638746 L71.2146274,5.95602448 C70.8518146,6.21554755 70.4760497,6.37125905 70.0873216,6.42316366 L62.4294168,6.42316366 C62.4812473,7.27958976 62.3387158,8.04517131 62.0018181,8.71993127 C61.6390052,9.03135895 61.1854959,9.17409449 60.6412766,9.14814218 L59.8638244,8.71993127 C59.4491811,8.14898054 59.2936922,7.51315857 59.397353,6.81244631 L59.4750982,6.2674506 L50.8453781,6.34530713 L51.2341042,8.48636168 L50.8453781,9.26492698 C50.4825652,9.52445004 50.1068004,9.68016154 49.7180723,9.73206615 Z M88.5906855,34.3347294 C87.8132294,34.0752063 87.3726775,33.5950959 87.2690167,32.8943836 C87.1653559,32.1936713 87.1264837,31.5059455 87.1523989,30.8311856 C87.1783141,30.1564256 87.1394418,29.0534691 87.035781,27.5222831 C86.1028336,28.4825184 85.241166,29.4427393 84.4507522,30.4029747 C83.6603385,31.36321 83.0059894,32.3623588 82.4876853,33.400451 C82.1248724,33.7118787 81.6584057,33.8416383 81.0882712,33.7897337 L80.3108189,33.400451 C79.9480061,32.9852141 79.818432,32.4661758 79.9220928,31.8433204 C81.5288355,29.6633267 83.1031606,27.4379499 84.6451153,25.1671231 C86.18707,22.8962963 87.3208432,20.4114002 88.046469,17.7123604 C87.3208432,17.6085512 86.53692,17.5825993 85.6946759,17.6345039 C84.8524317,17.6864085 84.1203381,17.530697 83.4983732,17.1673647 C83.1873908,16.8040324 83.0578167,16.3368979 83.1096471,15.7659472 L83.4983732,14.9873819 C84.6645574,14.572145 85.9473408,14.4423854 87.3467619,14.5980992 L88.8239212,14.6759558 L89.6013735,11.2502685 L79.7666023,11.0945554 C79.3519591,11.0426508 78.9891516,10.8869393 78.6781692,10.6274162 C78.3671867,10.264084 78.2376126,9.79694945 78.289443,9.22599871 L78.6781692,8.40850515 L79.4556214,8.01922251 L90.3010805,8.2527921 L90.9230423,4.67139175 C87.346744,4.72329636 84.9496235,4.87900787 83.7316089,5.13853093 L82.9541566,4.74924828 C82.6431742,4.33401138 82.5136001,3.84092496 82.5654305,3.26997423 L82.9541566,2.49140893 C83.5761215,2.12807665 84.2823003,1.90748535 85.072714,1.82962844 C85.8631278,1.75177152 89.0960011,1.68689173 94.771431,1.63498711 C100.446861,1.5830825 103.744521,1.62201038 104.664511,1.75177191 C105.584501,1.88153344 105.811256,2.77687457 105.344782,4.43782216 L104.800565,8.68100301 L108.687827,8.60314648 L109.465279,8.99242912 C109.776261,9.35576141 109.905835,9.82289591 109.854005,10.3938466 L109.465279,11.1724119 C108.687823,11.5357442 107.845591,11.7174076 106.938559,11.7174076 L104.217476,11.7174076 C104.113815,12.7035953 103.971284,13.6897681 103.789877,14.6759558 C103.608471,15.6621434 103.478897,16.4861168 103.401151,17.1479006 C103.323406,17.8096844 102.714407,18.0756915 101.574138,17.94593 L91.156278,17.8680735 C90.8452956,19.1137841 90.4824881,20.3075723 90.0678448,21.4494738 L106.899686,21.6830434 C107.910379,21.5532819 108.350931,22.3058874 108.221355,23.9408827 C108.065864,28.4306317 108.020513,31.1685589 108.085301,32.1547466 C108.150089,33.1409342 107.890941,33.7248523 107.307849,33.9065185 C106.724757,34.0881846 105.96027,34.1919923 105.014365,34.2179446 C104.06846,34.2438969 98.5939547,34.2828248 88.5906855,34.3347294 Z M105.033801,31.1426117 L105.189291,24.719448 L89.9123544,24.4858784 L90.3010805,31.2204682 L105.033801,31.1426117 Z M100.641196,14.9095253 L101.263157,11.5616946 L92.7111825,11.328125 C92.5038609,12.5219311 92.2447127,13.6897673 91.9337303,14.8316688 L100.641196,14.9095253 Z M101.807374,8.48636168 L102.118355,4.82710481 L93.9551062,4.74924828 L93.3331444,8.2527921 L101.807374,8.48636168 Z" id="小蕉君" fill="#F5DF42"></path>
                    </g>
                    <g id="Group-3" transform="translate(0.000000, 3.857143)">
                        <ellipse id="纸片4" fill="#FFDE4A" cx="132.245614" cy="53" rx="3.43859649" ry="3.42857143"></ellipse>
                        <path d="M42.6162663,2.57331888 L47.1277655,10.5899615 C47.4628516,11.185388 47.2518041,11.9397174 46.6563777,12.2748036 C46.463071,12.3835901 46.2440709,12.4384021 46.0223098,12.4334999 L37.3173787,12.2410705 C36.6343068,12.2259707 36.0928083,11.6599906 36.1079082,10.9769186 C36.1122104,10.7822989 36.1623801,10.5914413 36.2543384,10.4198633 L40.4477703,2.59565002 C40.7705233,1.99344918 41.5203465,1.76691193 42.1225473,2.08966492 C42.3297269,2.20070402 42.5009841,2.36846993 42.6162663,2.57331888 Z" id="纸片3" fill="#FFDE4A" transform="translate(41.697292, 7.188246) scale(-1, 1) rotate(-164.000000) translate(-41.697292, -7.188246) "></path>
                        <circle id="纸片1" fill="#FFFFFF" cx="4.5" cy="17.5" r="4.5"></circle>
                    </g>
                    <path d="M136.568174,10.5653119 C138.045197,12.1985109 138.126454,14.5711112 136.466093,15.3424377 C134.544609,16.2350697 132.876206,15.3032905 132.87961,13.4695894 C132.882122,12.1167597 134.413046,10.986471 136.568174,10.5653119 Z M143.988985,14.5571614 C144.352442,15.1671722 145.141593,15.3670438 145.751604,15.0035869 C146.361615,14.6401301 146.561486,13.8509785 146.19803,13.2409676 C144.246142,9.96500105 141.692878,8.11635089 138.590601,7.82313346 L138.472358,7.81743165 C138.100603,7.81663943 137.732536,7.83139088 137.370261,7.86127578 C136.367514,7.11289865 135.128256,6.58283563 133.689479,6.41340251 C130.655038,6.05606103 128.010266,6.44666133 125.783651,7.60787558 C125.154047,7.93622394 124.909831,8.71279797 125.238179,9.34240223 C125.566528,9.97200649 126.343102,10.2162226 126.972706,9.88787429 C128.702548,8.98573472 130.81991,8.66999134 133.35288,8.96299857 C131.523529,9.92551385 130.3119,11.4644768 130.308186,13.4648152 C130.301129,17.2657884 133.992052,19.327116 137.549464,17.674508 C140.367033,16.3655968 140.870559,13.2721282 139.646255,10.6494262 C141.305658,11.1873818 142.744343,12.4682059 143.988985,14.5571614 Z" id="Path-22" fill="#FFFFFF" fill-rule="nonzero" transform="translate(135.735810, 12.267819) rotate(-39.000000) translate(-135.735810, -12.267819) "></path>
                </g>
            </g>
        </g>
    </g>
</svg>