<?xml version="1.0" encoding="UTF-8"?>
<svg width="136px" height="50px" viewBox="0 0 136 50" version="1.1" xmlns="http://www.w3.org/2000/svg" xmlns:xlink="http://www.w3.org/1999/xlink">
    <!-- Generator: Sketch 55.2 (78181) - https://sketchapp.com -->
    <title>编组 9</title>
    <desc>Created with Sketch.</desc>
    <g id="个人网站" stroke="none" stroke-width="1" fill="none" fill-rule="evenodd">
        <g id="Banana-01" transform="translate(-662.000000, -1649.000000)">
            <g id="编组-10" transform="translate(363.000000, 1529.000000)">
                <g id="编组-9" transform="translate(299.000000, 118.000000)">
                    <g id="编组" transform="translate(16.000000, 14.000000)" fill-rule="nonzero">
                        <path d="M84.736685,16.2217271 L84.4254541,15.8586247 C83.6192234,14.9180228 83.2913907,13.7378253 83.4030437,12.5096428 L83.4593304,11.8904882 L84.4989354,9.9845457 L85.1434505,9.57021457 C86.1434101,8.92738341 87.2693029,8.55208579 88.4782698,8.44846005 C89.4643445,8.36393936 90.4471762,8.40636389 91.4203718,8.57561474 C92.4702588,8.75820378 93.6286897,9.18675625 94.9511141,9.84796843 C96.659192,10.7020074 97.9346011,12.0291222 98.6766069,13.7492267 C99.3296065,15.2629983 99.6166166,17.3469413 99.6406118,20.1303889 C99.6581043,22.1595237 100.048427,24.0764437 100.813859,25.9030429 L101.345938,27.1727751 L100.084523,29.6956035 L99.4781879,30.1287004 C98.7875664,30.6220015 98.0056717,30.9347594 97.1690775,31.0393336 L96.7969733,31.0858467 L96.4248691,31.0393336 C95.8292992,30.9648874 95.2637891,30.7834754 94.7477604,30.5009311 C94.5653118,30.5568542 94.383686,30.6081665 94.2028573,30.654832 C93.2745637,30.8943916 92.2831975,30.9956991 91.2326267,30.9676839 C90.0112802,30.9351147 88.8359976,30.6392392 87.7365831,30.0895317 C86.760275,29.6013779 85.8613075,28.966393 85.0451985,28.1924966 C84.5205462,27.6949814 84.0824321,27.1383918 83.7364346,26.530763 C83.652562,27.2793535 83.476264,27.9966588 83.2042587,28.676672 L82.9306197,29.3607696 L82.3712027,29.8402698 C81.4306008,30.6465 80.2504037,30.9743326 79.0222214,30.8626796 L78.4584867,30.811431 L76.6397407,29.902058 L76.202252,29.2701299 C75.3912847,28.0987327 75.098216,26.7209602 75.317377,25.2998056 C75.3950503,24.4981911 75.4632149,23.7257862 75.5218842,22.9826425 C75.5761172,22.2956914 75.5941831,21.6091864 75.5761169,20.92267 C75.572161,20.7723487 75.5626731,20.6295843 75.5479304,20.4941246 C75.3918497,20.7190416 75.232934,20.9527939 75.0712295,21.1953506 C74.8552319,21.519347 74.7125621,21.8688747 74.6375786,22.2667275 L74.6375786,24.9827909 L74.7529278,26.5400055 L73.7999279,28.4460054 L73.3399527,28.8402698 C72.3993508,29.6465 71.2191537,29.9743326 69.9909714,29.8626796 L69.4272367,29.811431 L67.5017037,28.8486645 L67.0782342,29.6956035 L66.4718985,30.1287004 C65.7812771,30.6220015 64.9993823,30.9347594 64.1627882,31.0393336 L63.790684,31.0858467 L63.4185798,31.0393336 C62.8230099,30.9648874 62.2574998,30.7834754 61.7414711,30.5009311 C61.5590225,30.5568542 61.3773967,30.6081665 61.196568,30.654832 C60.2682744,30.8943916 59.2769081,30.9956991 58.2263374,30.9676839 C57.0049909,30.9351147 55.8297083,30.6392392 54.7302938,30.0895317 C53.7539857,29.6013779 52.8550182,28.966393 52.0389092,28.1924966 C51.5142569,27.6949814 51.0761428,27.1383918 50.7301453,26.530763 C50.6462726,27.2793535 50.4699747,27.9966588 50.1979694,28.676672 L49.9243304,29.3607696 L49.3649134,29.8402698 C48.4243115,30.6465 47.2441144,30.9743326 46.0159321,30.8626796 L45.4521974,30.811431 L43.6334514,29.902058 L43.1959627,29.2701299 C42.3849954,28.0987327 42.0919267,26.7209602 42.3110877,25.2998056 C42.388761,24.4981911 42.4569256,23.7257862 42.5155949,22.9826425 C42.5698279,22.2956914 42.5878938,21.6091864 42.5698276,20.92267 C42.5658717,20.7723487 42.5563838,20.6295843 42.5416411,20.4941246 C42.3855604,20.7190416 42.2266446,20.9527939 42.0649402,21.1953506 C41.8489426,21.519347 41.7062728,21.8688747 41.6312893,22.2667275 L41.6312893,24.9827909 L41.7466385,26.5400055 L40.7936386,28.4460054 L40.3336634,28.8402698 C39.3930615,29.6465 38.2128644,29.9743326 36.9846821,29.8626796 L36.4209474,29.811431 L34.4954144,28.8486645 L34.0719448,29.6956035 L33.4656092,30.1287004 C32.7749878,30.6220015 31.993093,30.9347594 31.1564989,31.0393336 L30.7843947,31.0858467 L30.4122905,31.0393336 C29.8167206,30.9648874 29.2512105,30.7834754 28.7351818,30.5009311 C28.5527332,30.5568542 28.3711074,30.6081665 28.1902787,30.654832 C27.261985,30.8943916 26.2706188,30.9956991 25.2200481,30.9676839 C23.9987016,30.9351147 22.823419,30.6392392 21.7240045,30.0895317 C20.7476964,29.6013779 19.8487289,28.966393 19.0326199,28.1924966 C18.0933965,27.3018536 17.431507,26.2218919 17.0789542,24.9987093 C16.6853849,25.6677885 16.1853596,26.3264013 15.5873205,26.9793624 C14.1478601,28.5510182 12.4048911,29.5722291 10.4208569,29.9721119 C9.06386342,30.2456145 7.71204653,30.5086139 6.36536561,30.7611166 L6.0010253,30.8294304 L5.63101482,30.8070055 C3.43216228,30.6737417 1.97895847,29.1128932 1.59469783,26.986651 C1.39281218,25.8695504 1.20017606,19.5978043 0.940410289,6.73696587 C0.73805832,4.49826665 1.31323658,2.63419444 3.21279851,1.64923641 C4.18311989,1.1461068 5.28555466,0.878849886 6.50260574,0.81643701 C7.42366413,0.769203246 8.27591056,0.769203246 9.06213486,0.818342265 C9.92519663,0.872283626 10.7259965,0.997626206 11.4660259,1.20077156 C12.5544144,1.49954486 13.5306906,2.13179991 14.4338203,3.03492966 C15.2018739,3.80298319 15.8689274,4.7062849 16.4382246,5.73644166 C17.2130765,7.13855454 17.4568566,8.70437285 17.173427,10.3163786 C16.96358,11.5098832 16.6286238,12.6152387 16.1635305,13.6275005 C16.0196068,13.9407462 15.8501781,14.2651005 15.6550605,14.6019477 C16.5946883,15.5959131 17.2814247,16.6794557 17.6826161,17.8486019 C17.9603608,17.2715817 18.3089992,16.728667 18.7241064,16.2217271 L18.4128755,15.8586247 C17.6066448,14.9180228 17.2788121,13.7378253 17.390465,12.5096428 L17.4467518,11.8904882 L18.4863568,9.9845457 L19.1308719,9.57021457 C20.1308315,8.92738341 21.2567243,8.55208579 22.4656912,8.44846005 C23.4517659,8.36393936 24.4345975,8.40636389 25.4077932,8.57561474 C26.4576802,8.75820378 27.6161111,9.18675625 28.9385354,9.84796843 C30.5582769,10.6578391 31.7889447,11.8931189 32.5446394,13.4855155 C32.671572,12.6297622 33.0214483,11.8394095 33.5766255,11.1731968 L33.7377829,10.9798078 L33.9289152,10.8159802 C34.8695171,10.00975 36.0497142,9.68191744 37.2778965,9.79357038 L37.8416312,9.84481899 L40.0843817,10.9661942 L40.2340056,11.415066 C41.3848024,10.9347615 42.6500958,10.8211281 43.9682363,11.0408182 C45.4630097,11.2899471 46.8052222,11.9963748 47.9394654,13.0972579 C48.9586664,14.0864823 49.7353517,15.2628213 50.2554283,16.6001612 C50.4167492,17.0149863 50.5466101,17.4600484 50.6470484,17.9369712 C50.9313334,17.3269396 51.2941611,16.7544683 51.7303957,16.2217271 L51.4191648,15.8586247 C50.6129341,14.9180228 50.2851014,13.7378253 50.3967543,12.5096428 L50.4530411,11.8904882 L51.4926461,9.9845457 L52.1371612,9.57021457 C53.1371208,8.92738341 54.2630136,8.55208579 55.4719805,8.44846005 C56.4580552,8.36393936 57.4408868,8.40636389 58.4140825,8.57561474 C59.4639695,8.75820378 60.6224004,9.18675625 61.9448247,9.84796843 C63.5645662,10.6578391 64.795234,11.8931189 65.5509287,13.4855155 C65.6778613,12.6297622 66.0277376,11.8394095 66.5829148,11.1731968 L66.7440723,10.9798078 L66.9352045,10.8159802 C67.8758064,10.00975 69.0560036,9.68191744 70.2841859,9.79357038 L70.8479205,9.84481899 L73.090671,10.9661942 L73.2402949,11.415066 C74.3910917,10.9347615 75.6563851,10.8211281 76.9745256,11.0408182 C78.469299,11.2899471 79.8115115,11.9963748 80.9457547,13.0972579 C81.9649557,14.0864823 82.741641,15.2628213 83.2617176,16.6001612 C83.4230385,17.0149863 83.5528994,17.4600484 83.6533377,17.9369712 C83.9376228,17.3269396 84.3004504,16.7544683 84.736685,16.2217271 Z" id="Banana" fill="#835E00"></path>
                        <path d="M5.8125,27.8125 C5.12499656,27.7708331 4.70312578,27.3177127 4.546875,26.453125 C4.39062422,25.5885373 4.18750125,18.9583953 3.9375,6.5625 C3.81249937,5.35416062 4.03124719,4.60416812 4.59375,4.3125 C5.15625281,4.02083187 5.84374594,3.85416687 6.65625,3.8125 C7.46875406,3.77083312 8.20833,3.77083312 8.875,3.8125 C9.54167,3.85416687 10.1406223,3.94791594 10.671875,4.09375 C11.2031277,4.23958406 11.7499972,4.59374719 12.3125,5.15625 C12.8750028,5.71875281 13.3749978,6.39582937 13.8125,7.1875 C14.2500022,7.97917062 14.3854175,8.84895359 14.21875,9.796875 C14.0520825,10.7447964 13.7916684,11.6041628 13.4375,12.375 C13.0833316,13.1458372 12.4687544,14.0937444 11.59375,15.21875 C12.0937525,15.3854175 12.7187462,15.8645794 13.46875,16.65625 C14.2187537,17.4479206 14.7083322,18.2708291 14.9375,19.125 C15.1666678,19.9791709 15.2187506,20.8854119 15.09375,21.84375 C14.9687494,22.8020881 14.3958384,23.8385361 13.375,24.953125 C12.3541616,26.0677139 11.1718817,26.7604153 9.828125,27.03125 C8.48436828,27.3020847 7.14584,27.5624987 5.8125,27.8125 Z M10.84375,23.96875 C11.5520869,23.5520812 12.0624984,23.0208366 12.375,22.375 C12.6875016,21.7291634 12.7812506,21.0208372 12.65625,20.25 C12.5312494,19.4791628 12.1666697,18.7812531 11.5625,18.15625 C10.9583303,17.5312469 10.192713,17.1562506 9.265625,17.03125 C8.33853703,16.9062494 7.375,16.84375 6.375,16.84375 L6.8125,25.03125 C7.68750437,24.9062494 8.43749687,24.7812506 9.0625,24.65625 C9.68750312,24.5312494 10.2812472,24.302085 10.84375,23.96875 Z M9.625,13.46875 C10.2708366,13.0520812 10.7187487,12.5416697 10.96875,11.9375 C11.2187512,11.3333303 11.4270825,10.7812525 11.59375,10.28125 C11.7604175,9.7812475 11.7500009,9.21354484 11.5625,8.578125 C11.375,7.94270516 10.9427117,7.36458594 10.265625,6.84375 C9.58853828,6.32291406 8.31250937,6.1458325 6.4375,6.3125 L6.375,14.40625 C7.00000312,14.2812494 7.57291406,14.1562506 8.09375,14.03125 C8.61458594,13.9062494 9.1249975,13.7187512 9.625,13.46875 Z M30.7843947,28.0625 C30.4510597,28.0208331 30.1593959,27.8958344 29.9093947,27.6875 L29.4718947,27 C28.7635578,27.333335 28.0864812,27.5833325 27.4406447,27.75 C26.7948081,27.9166675 26.0812736,27.9895834 25.3000197,27.96875 C24.5187657,27.9479166 23.7739815,27.7604184 23.0656447,27.4062498 C22.3573078,27.0520816 21.7010643,26.5885445 21.0968947,26.015625 C20.492725,25.4427055 20.0968956,24.7604206 19.9093947,23.96875 C19.7218937,23.1770794 19.6698109,22.3750041 19.7531447,21.5625 C19.8364784,20.7499959 20.01356,20.0208366 20.2843947,19.375 C20.5552293,18.7291634 20.9718918,18.1354194 21.5343947,17.59375 C22.0968975,17.0520806 22.7635575,16.6666678 23.5343947,16.4375 C24.3052318,16.2083322 25.0760575,16.1458328 25.8468947,16.25 C26.6177318,16.3541672 27.2635587,16.5104156 27.7843947,16.71875 C27.7843947,15.9270794 27.5031475,15.3333353 26.9406447,14.9375 C26.3781418,14.5416647 25.7687729,14.2395844 25.1125197,14.03125 C24.4562664,13.8229156 23.8156478,13.8020825 23.1906447,13.96875 C22.5656415,14.1354175 21.982314,14.2395831 21.4406447,14.28125 L20.6906447,13.9062498 C20.4406434,13.6145819 20.3364778,13.2395856 20.3781447,12.78125 L20.7531447,12.09375 C21.3364809,11.7187481 21.9927243,11.5000003 22.7218947,11.4375 C23.451065,11.3749997 24.1750161,11.4062498 24.8937697,11.53125 C25.6125232,11.6562506 26.5135559,11.9895806 27.5968947,12.53125 C28.6802334,13.0729194 29.451059,13.8749947 29.9093947,14.9375 C30.3677303,16.0000053 30.6073112,17.7395712 30.6281447,20.15625 C30.6489781,22.5729287 31.1177234,24.8749891 32.0343947,27.0625 L31.7218947,27.6875 C31.4302265,27.8958344 31.1177297,28.0208331 30.7843947,28.0625 Z M27.7218947,25.03125 L28.5968947,24.28125 C28.471894,23.5312462 28.3885615,22.8541697 28.3468947,22.25 C28.3052278,21.6458303 28.2635615,21.0312531 28.2218947,20.40625 C27.3260568,19.3020778 26.3677331,18.7656248 25.3468947,18.796875 C24.3260562,18.8281252 23.5968968,19.0624978 23.1593947,19.5 C22.7218925,19.9375022 22.4406453,20.4583303 22.3156447,21.0625 C22.1906445,21.6666697 22.1593943,22.2604137 22.2218947,22.84375 C22.284395,23.4270862 22.5135593,23.9166647 22.9093947,24.3125 C23.30523,24.7083353 23.7948084,25.0260405 24.3781447,25.265625 C24.9614809,25.5052095 25.555225,25.5781255 26.1593947,25.484375 C26.7635643,25.3906245 27.2843925,25.2395844 27.7218947,25.03125 Z M46.2875393,27.875 L45.6625393,27.5625 C45.2875374,27.0208306 45.1625387,26.3958369 45.2875393,25.6875 C45.3708731,24.8333291 45.443789,24.0104206 45.5062893,23.21875 C45.5687896,22.4270794 45.5896227,21.6354206 45.5687893,20.84375 C45.5479559,20.0520794 45.4229571,19.3333366 45.1937893,18.6875 C44.9646215,18.0416634 44.6208749,17.4895856 44.1625393,17.03125 C43.7042037,16.5729144 43.1781673,16.3854162 42.5844143,16.46875 C41.9906613,16.5520837 41.4646249,16.8958303 41.0062893,17.5 C40.5479537,18.1041697 40.0687918,18.7812462 39.5687893,19.53125 C39.0687868,20.2812537 38.7562899,21.1145787 38.6312893,22.03125 L38.6312893,25.09375 L38.6937893,25.9375 L38.3812893,26.5625 C38.0896212,26.8125012 37.7146249,26.9166669 37.2562893,26.875 L36.6312893,26.5625 C36.2146206,24.4999897 35.9646231,22.4062606 35.8812893,20.28125 C35.7979556,18.1562394 35.6729568,16.0520937 35.5062893,13.96875 C35.5479562,13.635415 35.6729549,13.3437512 35.8812893,13.09375 C36.1729574,12.8437487 36.5479537,12.7395831 37.0062893,12.78125 L37.6312893,13.09375 C37.8396237,13.7187531 37.9646224,14.3749966 38.0062893,15.0625 C38.0479562,15.7500034 38.0896224,16.4479131 38.1312893,17.15625 C38.5896249,16.5729137 39.0479537,16.0312525 39.5062893,15.53125 C39.9646249,15.0312475 40.521911,14.614585 41.1781643,14.28125 C41.8344176,13.947915 42.6000349,13.8541659 43.4750393,14 C44.3500437,14.1458341 45.1417024,14.5624966 45.8500393,15.25 C46.5583762,15.9375034 47.0948292,16.7499953 47.4594143,17.6875 C47.8239995,18.6250047 47.9698313,19.9687412 47.8969143,21.71875 C47.8239973,23.4687587 47.7875393,24.7239545 47.7875393,25.484375 C47.7875393,26.2447955 47.6625406,26.9374969 47.4125393,27.5625 C47.1208712,27.8125012 46.7458749,27.9166669 46.2875393,27.875 Z M63.790684,28.0625 C63.457349,28.0208331 63.1656852,27.8958344 62.915684,27.6875 L62.478184,27 C61.7698471,27.333335 61.0927705,27.5833325 60.446934,27.75 C59.8010974,27.9166675 59.0875629,27.9895834 58.306309,27.96875 C57.5250551,27.9479166 56.7802708,27.7604184 56.071934,27.4062498 C55.3635971,27.0520816 54.7073536,26.5885445 54.103184,26.015625 C53.4990143,25.4427055 53.1031849,24.7604206 52.915684,23.96875 C52.728183,23.1770794 52.6761002,22.3750041 52.759434,21.5625 C52.8427677,20.7499959 53.0198493,20.0208366 53.290684,19.375 C53.5615186,18.7291634 53.9781811,18.1354194 54.540684,17.59375 C55.1031868,17.0520806 55.7698468,16.6666678 56.540684,16.4375 C57.3115211,16.2083322 58.0823468,16.1458328 58.853184,16.25 C59.6240211,16.3541672 60.269848,16.5104156 60.790684,16.71875 C60.790684,15.9270794 60.5094368,15.3333353 59.946934,14.9375 C59.3844311,14.5416647 58.7750622,14.2395844 58.118809,14.03125 C57.4625557,13.8229156 56.8219371,13.8020825 56.196934,13.96875 C55.5719308,14.1354175 54.9886033,14.2395831 54.446934,14.28125 L53.696934,13.9062498 C53.4469327,13.6145819 53.3427671,13.2395856 53.384434,12.78125 L53.759434,12.09375 C54.3427702,11.7187481 54.9990136,11.5000003 55.728184,11.4375 C56.4573543,11.3749997 57.1813054,11.4062498 57.900059,11.53125 C58.6188126,11.6562506 59.5198452,11.9895806 60.603184,12.53125 C61.6865227,13.0729194 62.4573483,13.8749947 62.915684,14.9375 C63.3740196,16.0000053 63.6136005,17.7395712 63.634434,20.15625 C63.6552674,22.5729287 64.1240127,24.8749891 65.040684,27.0625 L64.728184,27.6875 C64.4365158,27.8958344 64.124019,28.0208331 63.790684,28.0625 Z M60.728184,25.03125 L61.603184,24.28125 C61.4781833,23.5312462 61.3948508,22.8541697 61.353184,22.25 C61.3115171,21.6458303 61.2698508,21.0312531 61.228184,20.40625 C60.3323461,19.3020778 59.3740224,18.7656248 58.353184,18.796875 C57.3323455,18.8281252 56.6031861,19.0624978 56.165684,19.5 C55.7281818,19.9375022 55.4469346,20.4583303 55.321934,21.0625 C55.1969338,21.6666697 55.1656836,22.2604137 55.228184,22.84375 C55.2906843,23.4270862 55.5198486,23.9166647 55.915684,24.3125 C56.3115193,24.7083353 56.8010977,25.0260405 57.384434,25.265625 C57.9677702,25.5052095 58.5615143,25.5781255 59.165684,25.484375 C59.7698536,25.3906245 60.2906818,25.2395844 60.728184,25.03125 Z M79.2938286,27.875 L78.6688286,27.5625 C78.2938267,27.0208306 78.168828,26.3958369 78.2938286,25.6875 C78.3771624,24.8333291 78.4500783,24.0104206 78.5125786,23.21875 C78.5750789,22.4270794 78.5959121,21.6354206 78.5750786,20.84375 C78.5542452,20.0520794 78.4292464,19.3333366 78.2000786,18.6875 C77.9709108,18.0416634 77.6271642,17.4895856 77.1688286,17.03125 C76.710493,16.5729144 76.1844566,16.3854162 75.5907036,16.46875 C74.9969506,16.5520837 74.4709142,16.8958303 74.0125786,17.5 C73.554243,18.1041697 73.0750811,18.7812462 72.5750786,19.53125 C72.0750761,20.2812537 71.7625792,21.1145787 71.6375786,22.03125 L71.6375786,25.09375 L71.7000786,25.9375 L71.3875786,26.5625 C71.0959105,26.8125012 70.7209142,26.9166669 70.2625786,26.875 L69.6375786,26.5625 C69.2209099,24.4999897 68.9709124,22.4062606 68.8875786,20.28125 C68.8042449,18.1562394 68.6792461,16.0520937 68.5125786,13.96875 C68.5542455,13.635415 68.6792442,13.3437512 68.8875786,13.09375 C69.1792467,12.8437487 69.554243,12.7395831 70.0125786,12.78125 L70.6375786,13.09375 C70.845913,13.7187531 70.9709117,14.3749966 71.0125786,15.0625 C71.0542455,15.7500034 71.0959117,16.4479131 71.1375786,17.15625 C71.5959142,16.5729137 72.054243,16.0312525 72.5125786,15.53125 C72.9709142,15.0312475 73.5282003,14.614585 74.1844536,14.28125 C74.8407069,13.947915 75.6063242,13.8541659 76.4813286,14 C77.356333,14.1458341 78.1479917,14.5624966 78.8563286,15.25 C79.5646655,15.9375034 80.1011185,16.7499953 80.4657036,17.6875 C80.8302888,18.6250047 80.9761206,19.9687412 80.9032036,21.71875 C80.8302866,23.4687587 80.7938286,24.7239545 80.7938286,25.484375 C80.7938286,26.2447955 80.6688299,26.9374969 80.4188286,27.5625 C80.1271605,27.8125012 79.7521642,27.9166669 79.2938286,27.875 Z M96.7969733,28.0625 C96.4636383,28.0208331 96.1719745,27.8958344 95.9219733,27.6875 L95.4844733,27 C94.7761364,27.333335 94.0990598,27.5833325 93.4532233,27.75 C92.8073867,27.9166675 92.0938522,27.9895834 91.3125983,27.96875 C90.5313444,27.9479166 89.7865601,27.7604184 89.0782233,27.4062498 C88.3698864,27.0520816 87.713643,26.5885445 87.1094733,26.015625 C86.5053036,25.4427055 86.1094742,24.7604206 85.9219733,23.96875 C85.7344723,23.1770794 85.6823895,22.3750041 85.7657233,21.5625 C85.849057,20.7499959 86.0261386,20.0208366 86.2969733,19.375 C86.567808,18.7291634 86.9844705,18.1354194 87.5469733,17.59375 C88.1094761,17.0520806 88.7761361,16.6666678 89.5469733,16.4375 C90.3178105,16.2083322 91.0886361,16.1458328 91.8594733,16.25 C92.6303105,16.3541672 93.2761373,16.5104156 93.7969733,16.71875 C93.7969733,15.9270794 93.5157261,15.3333353 92.9532233,14.9375 C92.3907205,14.5416647 91.7813516,14.2395844 91.1250983,14.03125 C90.468845,13.8229156 89.8282264,13.8020825 89.2032233,13.96875 C88.5782201,14.1354175 87.9948926,14.2395831 87.4532233,14.28125 L86.7032233,13.9062498 C86.453222,13.6145819 86.3490564,13.2395856 86.3907233,12.78125 L86.7657233,12.09375 C87.3490595,11.7187481 88.005303,11.5000003 88.7344733,11.4375 C89.4636436,11.3749997 90.1875947,11.4062498 90.9063483,11.53125 C91.6251019,11.6562506 92.5261345,11.9895806 93.6094733,12.53125 C94.692812,13.0729194 95.4636376,13.8749947 95.9219733,14.9375 C96.3803089,16.0000053 96.6198898,17.7395712 96.6407233,20.15625 C96.6615567,22.5729287 97.130302,24.8749891 98.0469733,27.0625 L97.7344733,27.6875 C97.4428051,27.8958344 97.1303083,28.0208331 96.7969733,28.0625 Z M93.7344733,25.03125 L94.6094733,24.28125 C94.4844726,23.5312462 94.4011401,22.8541697 94.3594733,22.25 C94.3178064,21.6458303 94.2761401,21.0312531 94.2344733,20.40625 C93.3386355,19.3020778 92.3803117,18.7656248 91.3594733,18.796875 C90.3386348,18.8281252 89.6094755,19.0624978 89.1719733,19.5 C88.7344711,19.9375022 88.4532239,20.4583303 88.3282233,21.0625 C88.2032231,21.6666697 88.171973,22.2604137 88.2344733,22.84375 C88.2969736,23.4270862 88.526138,23.9166647 88.9219733,24.3125 C89.3178086,24.7083353 89.807387,25.0260405 90.3907233,25.265625 C90.9740595,25.5052095 91.5678036,25.5781255 92.1719733,25.484375 C92.776143,25.3906245 93.2969711,25.2395844 93.7344733,25.03125 Z" id="Banana" stroke="#FFDC49" stroke-width="0.5" fill="#FFDE51"></path>
                    </g>
                    <g id="banana_logo">
                        <g id="Group-3" transform="translate(0.000000, 0.857143)">
                            <ellipse id="纸片4" fill="#FFDE4A" cx="124.438596" cy="47.5714286" rx="3.43859649" ry="3.42857143"></ellipse>
                            <path d="M39.5086664,2.77348542 L44.0201655,10.7901281 C44.3552517,11.3855545 44.1442042,12.139884 43.5487777,12.4749701 C43.3554711,12.5837567 43.136471,12.6385687 42.9147099,12.6336665 L34.2097788,12.4412371 C33.5267068,12.4261372 32.9852084,11.8601571 33.0003083,11.1770851 C33.0046105,10.9824654 33.0547802,10.7916079 33.1467384,10.6200299 L37.3401704,2.79581656 C37.6629233,2.19361572 38.4127466,1.96707847 39.0149474,2.28983146 C39.222127,2.40087056 39.3933842,2.56863647 39.5086664,2.77348542 Z" id="纸片3" fill="#FFDE4A" transform="translate(38.589692, 7.388413) scale(-1, 1) rotate(-164.000000) translate(-38.589692, -7.388413) "></path>
                            <circle id="纸片1" fill="#FFFFFF" cx="4.5" cy="20.6428571" r="4.5"></circle>
                        </g>
                        <path d="M126.475973,10.2796463 C127.952997,11.9128453 128.034254,14.2854456 126.373892,15.0567721 C124.452408,15.9494041 122.784005,15.0176249 122.787405,13.1839239 C122.789922,11.8310941 124.320846,10.7008054 126.475973,10.2796463 Z M133.896784,14.2714958 C134.260241,14.8815067 135.049393,15.0813782 135.659404,14.7179213 C136.269415,14.3544645 136.469286,13.5653129 136.105829,12.9553021 C134.153942,9.67933547 131.600678,7.83068531 128.498401,7.53746787 L128.380158,7.53176607 C128.008402,7.53097385 127.640335,7.5457253 127.278061,7.5756102 C126.275314,6.82723307 125.036056,6.29717005 123.597279,6.12773693 C120.562838,5.77039544 117.918066,6.16099575 115.691451,7.32221 C115.061847,7.65055836 114.81763,8.42713239 115.145979,9.05673664 C115.474327,9.6863409 116.250901,9.93055706 116.880505,9.6022087 C118.610348,8.70006913 120.72771,8.38432575 123.260679,8.67733299 C121.431329,9.63984827 120.2197,11.1788112 120.215986,13.1791496 C120.208929,16.9801228 123.899851,19.0414504 127.457264,17.3888424 C130.274833,16.0799312 130.778359,12.9864626 129.554055,10.3637606 C131.213457,10.9017163 132.652142,12.1825403 133.896784,14.2714958 Z" id="Path-22" fill="#FFFFFF" fill-rule="nonzero" transform="translate(125.643610, 11.982153) rotate(-39.000000) translate(-125.643610, -11.982153) "></path>
                    </g>
                </g>
            </g>
        </g>
    </g>
</svg>