<?xml version="1.0" encoding="UTF-8"?>
<svg width="132px" height="28px" viewBox="0 0 132 28" version="1.1" xmlns="http://www.w3.org/2000/svg" xmlns:xlink="http://www.w3.org/1999/xlink">
    <!-- Generator: Sketch 54.1 (76490) - https://sketchapp.com -->
    <title>captcha_logo</title>
    <desc>Created with Sketch.</desc>
    <defs>
        <linearGradient x1="50%" y1="100%" x2="50%" y2="0%" id="linearGradient-1">
            <stop stop-color="#FFFFFF" stop-opacity="0.5" offset="0%"></stop>
            <stop stop-color="#FFFFFF" offset="100%"></stop>
        </linearGradient>
    </defs>
    <g id="Page-1" stroke="none" stroke-width="1" fill="none" fill-rule="evenodd">
        <g id="首页" transform="translate(-242.000000, -1698.000000)">
            <g id="Group" transform="translate(120.000000, 1580.000000)">
                <g id="captcha_logo" transform="translate(121.000000, 117.000000)">
                    <g id="Group-6">
                        <g id="Group-3">
                            <rect id="Rectangle-Copy-7" fill-opacity="0" fill="#FFFFFF" fill-rule="nonzero" x="0" y="0" width="30.1016949" height="30"></rect>
                            <g id="Group-19-Copy-2" transform="translate(1.254237, 1.250000)">
                                <path d="M9.60028249,21.25 L17.9929379,21.25 C20.524243,21.25 22.5762712,23.3020282 22.5762712,25.8333333 L22.5762712,27.265625 L5.01694915,27.5 L5.01694915,25.8333333 C5.01694915,23.3020282 7.06897738,21.25 9.60028249,21.25 Z" id="Rectangle-13" fill="url(#linearGradient-1)" transform="translate(13.796610, 24.375000) scale(1, -1) translate(-13.796610, -24.375000) "></path>
                                <path d="M9.34262462,3.4375 C9.8531484,1.46067715 11.6537213,0 13.7966102,0 C15.939499,0 17.7400719,1.46067715 18.2505957,3.4375 L23.009887,3.4375 C25.5411921,3.4375 27.5932203,5.48952823 27.5932203,8.02083333 L27.5932203,18.3333333 C27.5932203,18.9661596 27.0802133,19.4791667 26.447387,19.4791667 L1.14583333,19.4791667 C0.513007057,19.4791667 9.65677287e-16,18.9661596 8.8817842e-16,18.3333333 L0,8.02083333 C-3.09995469e-16,5.48952823 2.05202823,3.4375 4.58333333,3.4375 L9.34262462,3.4375 Z M8.0480226,14.8958333 C9.95293695,14.8958333 11.4971751,13.3568122 11.4971751,11.4583333 C11.4971751,9.55985451 9.95293695,8.02083333 8.0480226,8.02083333 C6.14310825,8.02083333 4.59887006,9.55985451 4.59887006,11.4583333 C4.59887006,13.3568122 6.14310825,14.8958333 8.0480226,14.8958333 Z M19.5451977,14.8958333 C21.4501121,14.8958333 22.9943503,13.3568122 22.9943503,11.4583333 C22.9943503,9.55985451 21.4501121,8.02083333 19.5451977,8.02083333 C17.6402834,8.02083333 16.0960452,9.55985451 16.0960452,11.4583333 C16.0960452,13.3568122 17.6402834,14.8958333 19.5451977,14.8958333 Z" id="Combined-Shape" fill="#FFFFFF"></path>
                            </g>
                        </g>
                    </g>
                    <path d="M52.64,6.26 L63.62,6.26 L63.62,8.3525 L52.64,8.3525 L52.64,6.26 Z M52.0775,11.885 L64.5875,11.885 L64.5875,13.9775 L61.0775,13.9775 L61.0775,23.5175 C61.0775,24.9575 60.2675,25.6775 58.67,25.6775 L55.4075,25.6775 L54.935,23.585 C55.97,23.675 56.9825,23.72 57.9275,23.72 C58.58,23.72 58.9175,23.4725 58.9175,23 L58.9175,13.9775 L52.0775,13.9775 L52.0775,11.885 Z M48.815,5.1575 L50.7725,6.0575 C49.5575,8.5325 47.5325,10.7375 44.6525,12.7175 L44,10.58 C46.1825,9.0275 47.78,7.2275 48.815,5.1575 Z M49.8725,10.31 L51.8075,11.21 C51.2,12.425 50.435,13.5725 49.5125,14.6525 L49.5125,25.7675 L47.42,25.7675 L47.42,16.745 C46.61,17.4425 45.755,18.1175 44.81,18.77 L44.18,16.655 C46.745,14.855 48.6575,12.74 49.8725,10.31 Z M70.055,5.5175 C71.36,6.8225 72.35,7.9925 73.07,9.0275 L71.405,10.175 C70.64,9.1175 69.65,7.9475 68.435,6.6875 L70.055,5.5175 Z M78.1325,14.9675 C79.685,16.6775 80.8775,18.185 81.7325,19.4675 L79.8425,20.7725 C78.9875,19.355 77.8625,17.78 76.4225,16.0475 L78.1325,14.9675 Z M74.69,5 L76.7825,5 L76.7825,8.1725 C76.76,8.9375 76.715,9.68 76.67,10.4 L85.8725,10.4 C85.8725,16.97 85.58,21.1325 85.0175,22.9325 C84.41,24.7325 83.3525,25.6325 81.8225,25.6325 C80.6525,25.6325 79.685,25.5875 78.8975,25.52 L78.335,23.45 C79.55,23.5625 80.675,23.63 81.6875,23.63 C82.7225,23.54 83.3075,22.3475 83.465,20.0525 C83.6,17.735 83.69,15.215 83.69,12.4925 L76.4675,12.4925 C76.1075,15.305 75.455,17.6675 74.5325,19.58 C73.205,22.2125 71.0225,24.2375 67.9625,25.6775 L66.77,23.7875 C69.785,22.2575 71.8325,20.3225 72.9125,17.96 C73.565,16.4075 74.0375,14.585 74.3525,12.4925 L67.535,12.4925 L67.535,10.4 L74.5775,10.4 C74.6225,9.68 74.6675,8.9375 74.69,8.1725 L74.69,5 Z M100.115,12.0425 C99.395,12.83 98.63,13.5275 97.82,14.135 L96.695,12.425 C99.17,10.535 101.06,8.06 102.41,5.0225 L104.3225,5.0225 C105.425,7.8125 107.3375,10.265 110.0825,12.3575 L108.9125,14.1125 C108.0125,13.4375 107.225,12.7175 106.5275,11.9525 L106.5275,13.3025 L100.115,13.3025 L100.115,12.0425 Z M106.01,11.3675 C104.93,10.0625 104.03,8.645 103.355,7.115 C102.5675,8.735 101.69,10.1525 100.7,11.3675 L106.01,11.3675 Z M97.3475,23 L104.57,23 C105.38,20.66 106.1,17.78 106.73,14.405 L108.7775,14.9225 C108.1925,17.9375 107.4725,20.615 106.6175,23 L109.7675,23 L109.7675,25.0475 L97.3475,25.0475 L97.3475,23 Z M99.7775,15.0575 C100.4525,16.9025 101.0825,19.04 101.645,21.425 L99.8225,21.875 C99.3275,19.715 98.6975,17.6675 97.955,15.6875 L99.7775,15.0575 Z M103.2425,14.3825 C103.8275,16.1375 104.3225,18.185 104.7725,20.48 L102.9275,20.93 C102.545,18.86 102.05,16.88 101.42,14.9675 L103.2425,14.3825 Z M94.6475,7.8125 L89.3825,7.8125 L89.3825,5.8775 L96.7625,5.8775 L95.705,15.1475 L97.01,15.1475 C97.01,20.4125 96.7625,23.45 96.3125,24.26 C95.84,25.07 94.85,25.475 93.365,25.475 C92.87,25.475 92.3525,25.4525 91.8125,25.4075 L91.25,23.5175 C92.0375,23.63 92.5775,23.6975 92.8925,23.6975 C93.905,23.6975 94.5125,23.36 94.715,22.73 C94.94,22.0775 95.0525,20.1875 95.0525,17.0375 L89.36,17.0375 L90.4175,9.095 L92.375,9.2075 L91.4975,15.1475 L93.7025,15.1475 L94.6475,7.8125 Z M94.0625,18.59 L94.0625,20.5025 C92.6,21.0425 90.935,21.4925 89.0675,21.8525 L88.82,19.8275 C90.8,19.5125 92.555,19.1075 94.0625,18.59 Z M125.3825,7.97 L119.24,7.97 L119.24,5.8775 L131.9975,5.8775 L131.9975,7.97 L127.565,7.97 L127.565,13.7525 L131.6825,13.7525 L131.6825,15.755 L127.565,15.755 L127.565,22.91 L132.4475,22.91 L132.4475,25.0025 L118.5425,25.0025 L118.5425,22.91 L120.6575,22.91 L120.6575,11.3675 L122.75,11.3675 L122.75,22.91 L125.3825,22.91 L125.3825,7.97 Z M114.6725,5.18 C116.0675,6.305 117.2825,7.4075 118.2725,8.51 L116.81,9.995 C115.9325,8.915 114.7175,7.79 113.1875,6.5975 L114.6725,5.18 Z M111.59,11.705 L116.7425,11.705 L116.7425,20.9525 C117.35,20.4125 118.0025,19.7825 118.7,19.1075 L119.2625,21.38 C117.9125,22.685 116.4725,23.855 114.9425,24.89 L114.1325,22.955 C114.4925,22.64 114.695,22.2575 114.695,21.8075 L114.695,13.7525 L111.59,13.7525 L111.59,11.705 Z" id="行为验证" fill="#FFFFFF" fill-rule="nonzero"></path>
                </g>
            </g>
        </g>
    </g>
</svg>