<?xml version="1.0" encoding="UTF-8"?>
<svg width="207px" height="28px" viewBox="0 0 207 28" version="1.1" xmlns="http://www.w3.org/2000/svg" xmlns:xlink="http://www.w3.org/1999/xlink">
    <!-- Generator: Sketch 55.2 (78181) - https://sketchapp.com -->
    <title>capycha_logo_en</title>
    <desc>Created with Sketch.</desc>
    <defs>
        <linearGradient x1="50%" y1="100%" x2="50%" y2="0%" id="linearGradient-1">
            <stop stop-color="#FFFFFF" stop-opacity="0.4" offset="0%"></stop>
            <stop stop-color="#FFFFFF" offset="100%"></stop>
        </linearGradient>
    </defs>
    <g id="Index" stroke="none" stroke-width="1" fill="none" fill-rule="evenodd">
        <g id="首页-英文版" transform="translate(-241.000000, -1698.000000)">
            <g id="Group" transform="translate(120.000000, 1580.000000)">
                <g id="capycha_logo_en" transform="translate(120.000000, 117.000000)">
                    <g id="Group-6">
                        <g id="Group-3">
                            <rect id="Rectangle-Copy-7" fill-opacity="0" fill="#FFFFFF" fill-rule="nonzero" x="0" y="0" width="30" height="30"></rect>
                            <g id="Group-19-Copy-2" transform="translate(1.250000, 1.250000)">
                                <path d="M9.58333333,21.25 L17.9166667,21.25 C20.4479718,21.25 22.5,23.3020282 22.5,25.8333333 L22.5,27.265625 L5,27.5 L5,25.8333333 C5,23.3020282 7.05202823,21.25 9.58333333,21.25 Z" id="Rectangle-13" fill="url(#linearGradient-1)" transform="translate(13.750000, 24.375000) scale(1, -1) translate(-13.750000, -24.375000) "></path>
                                <path d="M9.3110617,3.4375 C9.81986074,1.46067715 11.6143507,0 13.75,0 C15.8856493,0 17.6801393,1.46067715 18.1889383,3.4375 L22.9166667,3.4375 C25.4479718,3.4375 27.5,5.48952823 27.5,8.02083333 L27.5,18.3333333 C27.5,18.9661596 26.9869929,19.4791667 26.3541667,19.4791667 L1.14583333,19.4791667 C0.513007057,19.4791667 -5.88634947e-16,18.9661596 0,18.3333333 L0,8.02083333 C-3.09995469e-16,5.48952823 2.05202823,3.4375 4.58333333,3.4375 L9.3110617,3.4375 Z M8.02083333,14.8958333 C9.91931216,14.8958333 11.4583333,13.3568122 11.4583333,11.4583333 C11.4583333,9.55985451 9.91931216,8.02083333 8.02083333,8.02083333 C6.12235451,8.02083333 4.58333333,9.55985451 4.58333333,11.4583333 C4.58333333,13.3568122 6.12235451,14.8958333 8.02083333,14.8958333 Z M19.4791667,14.8958333 C21.3776455,14.8958333 22.9166667,13.3568122 22.9166667,11.4583333 C22.9166667,9.55985451 21.3776455,8.02083333 19.4791667,8.02083333 C17.5806878,8.02083333 16.0416667,9.55985451 16.0416667,11.4583333 C16.0416667,13.3568122 17.5806878,14.8958333 19.4791667,14.8958333 Z" id="Combined-Shape" fill="#FFFFFF"></path>
                            </g>
                        </g>
                    </g>
                    <path d="M49.80625,22.68125 C46.1125,22.68125 43.43125,20.09375 43.43125,15.575 C43.43125,11.075 46.20625,8.375 49.8625,8.375 C51.8125,8.375 53.125,9.2375 53.96875,10.11875 L52.7875,11.50625 C52.1125,10.8125 51.26875,10.26875 49.9375,10.26875 C47.36875,10.26875 45.6625,12.25625 45.6625,15.5 C45.6625,18.78125 47.18125,20.7875 50.03125,20.7875 C50.875,20.7875 51.71875,20.54375 52.20625,20.1125 L52.20625,16.86875 L49.46875,16.86875 L49.46875,15.0875 L54.175,15.0875 L54.175,21.06875 C53.25625,21.9875 51.7,22.68125 49.80625,22.68125 Z M61.43125,22.68125 C58.6375,22.68125 56.40625,20.69375 56.40625,17.3 C56.40625,13.94375 58.69375,11.8625 61.1125,11.8625 C63.85,11.8625 65.3125,13.83125 65.3125,16.75625 C65.3125,17.16875 65.275,17.6 65.21875,17.84375 L58.525,17.84375 C58.69375,19.8125 59.93125,20.99375 61.7125,20.99375 C62.63125,20.99375 63.41875,20.7125 64.16875,20.225 L64.91875,21.59375 C63.9625,22.23125 62.78125,22.68125 61.43125,22.68125 Z M58.50625,16.3625 L63.45625,16.3625 C63.45625,14.58125 62.65,13.55 61.15,13.55 C59.85625,13.55 58.7125,14.54375 58.50625,16.3625 Z M72.025,22.68125 C69.23125,22.68125 67,20.69375 67,17.3 C67,13.94375 69.2875,11.8625 71.70625,11.8625 C74.44375,11.8625 75.90625,13.83125 75.90625,16.75625 C75.90625,17.16875 75.86875,17.6 75.8125,17.84375 L69.11875,17.84375 C69.2875,19.8125 70.525,20.99375 72.30625,20.99375 C73.225,20.99375 74.0125,20.7125 74.7625,20.225 L75.5125,21.59375 C74.55625,22.23125 73.375,22.68125 72.025,22.68125 Z M69.1,16.3625 L74.05,16.3625 C74.05,14.58125 73.24375,13.55 71.74375,13.55 C70.45,13.55 69.30625,14.54375 69.1,16.3625 Z M81.325,22.4375 L81.325,10.45625 L77.275,10.45625 L77.275,8.6375 L87.56875,8.6375 L87.56875,10.45625 L83.5,10.45625 L83.5,22.4375 L81.325,22.4375 Z M94.05625,22.68125 C91.2625,22.68125 89.03125,20.69375 89.03125,17.3 C89.03125,13.94375 91.31875,11.8625 93.7375,11.8625 C96.475,11.8625 97.9375,13.83125 97.9375,16.75625 C97.9375,17.16875 97.9,17.6 97.84375,17.84375 L91.15,17.84375 C91.31875,19.8125 92.55625,20.99375 94.3375,20.99375 C95.25625,20.99375 96.04375,20.7125 96.79375,20.225 L97.54375,21.59375 C96.5875,22.23125 95.40625,22.68125 94.05625,22.68125 Z M91.13125,16.3625 L96.08125,16.3625 C96.08125,14.58125 95.275,13.55 93.775,13.55 C92.48125,13.55 91.3375,14.54375 91.13125,16.3625 Z M103.15,22.68125 C101.725,22.68125 100.2625,22.08125 99.26875,21.25625 L100.28125,19.86875 C101.2,20.6 102.1,21.05 103.20625,21.05 C104.44375,21.05 105.025,20.45 105.025,19.6625 C105.025,18.725 103.8625,18.3125 102.7375,17.88125 C101.36875,17.35625 99.79375,16.625 99.79375,14.88125 C99.79375,13.15625 101.18125,11.8625 103.45,11.8625 C104.8375,11.8625 105.9625,12.425 106.80625,13.08125 L105.79375,14.4125 C105.08125,13.8875 104.35,13.5125 103.4875,13.5125 C102.3625,13.5125 101.8375,14.075 101.8375,14.7875 C101.8375,15.66875 102.90625,16.00625 104.03125,16.41875 C105.475,16.9625 107.06875,17.6 107.06875,19.55 C107.06875,21.275 105.7,22.68125 103.15,22.68125 Z M112.825,22.68125 C110.5,22.68125 109.69375,21.2375 109.69375,19.0625 L109.69375,13.85 L108.19375,13.85 L108.19375,12.2375 L109.7875,12.125 L110.03125,9.275 L111.85,9.275 L111.85,12.125 L114.53125,12.125 L114.53125,13.85 L111.85,13.85 L111.85,19.08125 C111.85,20.31875 112.28125,20.95625 113.35,20.95625 C113.70625,20.95625 114.15625,20.84375 114.45625,20.7125 L114.85,22.30625 C114.26875,22.49375 113.575,22.68125 112.825,22.68125 Z M129.90625,22.68125 C126.4375,22.68125 123.775,20.09375 123.775,15.575 C123.775,11.075 126.5125,8.375 130,8.375 C131.725,8.375 133.075,9.2 133.91875,10.11875 L132.7375,11.50625 C132.025,10.775 131.1625,10.26875 130.0375,10.26875 C127.65625,10.26875 126.00625,12.25625 126.00625,15.5 C126.00625,18.78125 127.54375,20.7875 129.98125,20.7875 C131.2375,20.7875 132.2125,20.225 133.0375,19.325 L134.2,20.69375 C133.09375,21.96875 131.6875,22.68125 129.90625,22.68125 Z M138.71875,16.79375 L142.4875,16.79375 L141.94375,14.9375 C141.475,13.4375 141.0625,11.9 140.63125,10.34375 L140.55625,10.34375 C140.1625,11.91875 139.73125,13.4375 139.28125,14.9375 L138.71875,16.79375 Z M144.175,22.4375 L143.0125,18.5 L138.2125,18.5 L137.03125,22.4375 L134.81875,22.4375 L139.39375,8.6375 L141.90625,8.6375 L146.48125,22.4375 L144.175,22.4375 Z M148.3,22.4375 L148.3,8.6375 L152.48125,8.6375 C155.55625,8.6375 157.75,9.6875 157.75,12.8 C157.75,15.81875 155.55625,17.20625 152.55625,17.20625 L150.475,17.20625 L150.475,22.4375 L148.3,22.4375 Z M150.475,15.4625 L152.35,15.4625 C154.5625,15.4625 155.6125,14.61875 155.6125,12.8 C155.6125,10.98125 154.46875,10.38125 152.275,10.38125 L150.475,10.38125 L150.475,15.4625 Z M163.24375,22.4375 L163.24375,10.45625 L159.19375,10.45625 L159.19375,8.6375 L169.4875,8.6375 L169.4875,10.45625 L165.41875,10.45625 L165.41875,22.4375 L163.24375,22.4375 Z M177.25,22.68125 C173.78125,22.68125 171.11875,20.09375 171.11875,15.575 C171.11875,11.075 173.85625,8.375 177.34375,8.375 C179.06875,8.375 180.41875,9.2 181.2625,10.11875 L180.08125,11.50625 C179.36875,10.775 178.50625,10.26875 177.38125,10.26875 C175,10.26875 173.35,12.25625 173.35,15.5 C173.35,18.78125 174.8875,20.7875 177.325,20.7875 C178.58125,20.7875 179.55625,20.225 180.38125,19.325 L181.54375,20.69375 C180.4375,21.96875 179.03125,22.68125 177.25,22.68125 Z M183.98125,22.4375 L183.98125,8.6375 L186.15625,8.6375 L186.15625,14.2625 L192.0625,14.2625 L192.0625,8.6375 L194.2375,8.6375 L194.2375,22.4375 L192.0625,22.4375 L192.0625,16.15625 L186.15625,16.15625 L186.15625,22.4375 L183.98125,22.4375 Z M199.9375,16.79375 L203.70625,16.79375 L203.1625,14.9375 C202.69375,13.4375 202.28125,11.9 201.85,10.34375 L201.775,10.34375 C201.38125,11.91875 200.95,13.4375 200.5,14.9375 L199.9375,16.79375 Z M205.39375,22.4375 L204.23125,18.5 L199.43125,18.5 L198.25,22.4375 L196.0375,22.4375 L200.6125,8.6375 L203.125,8.6375 L207.7,22.4375 L205.39375,22.4375 Z" id="GeeTest's-CAPTCHA" fill="#FFFFFF"></path>
                </g>
            </g>
        </g>
    </g>
</svg>