<?xml version="1.0" encoding="UTF-8"?>
<svg width="116px" height="44px" viewBox="0 0 116 44" version="1.1" xmlns="http://www.w3.org/2000/svg" xmlns:xlink="http://www.w3.org/1999/xlink">
    <!-- Generator: Sketch 55.2 (78181) - https://sketchapp.com -->
    <title>编组 26</title>
    <desc>Created with Sketch.</desc>
    <g id="Index" stroke="none" stroke-width="1" fill="none" fill-rule="evenodd">
        <g id="首页" transform="translate(-966.000000, -3939.000000)" fill="#292F3A">
            <g id="编组-11" transform="translate(934.000000, 3901.000000)">
                <g id="编组-26" transform="translate(32.000000, 38.000000)">
                    <path d="M4.43535635,38.339661 L4.43535635,43.7680678 L3.64796437,43.7680678 L3.64796437,38.2531525 C3.29202004,39.3561356 2.81742762,40.3509831 2.23497327,41.2376949 L1.90060134,40.3834237 C2.68799332,39.3236949 3.24887528,38.1233898 3.59403341,36.7608814 L2.0731804,36.7608814 L2.0731804,36.0147458 L3.64796437,36.0147458 L3.64796437,33.9061017 L4.43535635,33.9061017 L4.43535635,36.0147458 L5.72969933,36.0147458 L5.72969933,36.7608814 L4.43535635,36.7608814 L4.43535635,37.4745763 C4.90994878,38.0044407 5.39532739,38.5991864 5.8914922,39.248 L5.42768597,39.9292542 C5.03938307,39.2804407 4.71579733,38.7505763 4.43535635,38.339661 Z M6.71124276,35.0847797 L5.48161693,35.0847797 L5.48161693,34.3386441 L10.5403408,34.3386441 L10.5403408,34.8360678 C10.3246169,35.7984746 10.1196793,36.6311186 9.90395546,37.3231864 L11.3061604,37.3231864 L11.3061604,37.7557288 C11.0796503,39.2371864 10.5834855,40.4915593 9.82845212,41.5080339 C10.4001203,42.1027797 11.058078,42.6326441 11.8131114,43.1084407 L11.3169465,43.7680678 C10.5511269,43.2706441 9.89316927,42.7191525 9.33228731,42.1027797 C8.68511581,42.7840339 7.89772383,43.346339 6.97011136,43.7896949 L6.5386637,43.076 C7.44470379,42.6326441 8.19973719,42.0919661 8.80376392,41.4539661 C8.15659243,40.5888814 7.67121381,39.615661 7.33684187,38.5451186 C7.06718708,40.8051525 6.43080178,42.535322 5.42768597,43.7356271 L4.83444543,43.2165763 C6.06407127,41.7459322 6.68967038,39.3777627 6.71124276,36.1336949 L6.71124276,35.0847797 Z M9.27835635,40.8808475 C9.89316927,40.0590169 10.3138307,39.0966102 10.5295546,38.0044407 L8.97634298,38.0044407 C9.19206682,37.3448136 9.44014922,36.3715932 9.7205902,35.0847797 L7.47706236,35.0847797 L7.47706236,36.1336949 C7.47706236,36.2850847 7.46627617,36.425661 7.46627617,36.5662373 C7.72514477,38.2315254 8.32917149,39.6697288 9.27835635,40.8808475 Z M21.7237617,37.0744746 C21.3354588,37.5070169 20.9255835,37.8963051 20.4941359,38.2315254 L20.0842606,37.604339 C21.292314,36.6635593 22.2307127,35.4416271 22.8778842,33.9385424 L23.5897728,33.9385424 C24.1290824,35.322678 25.0782673,36.5229831 26.415755,37.5610847 L25.9950935,38.2098983 C25.5312873,37.8530508 25.121412,37.4745763 24.7546815,37.0744746 L24.7546815,37.7449153 L21.7237617,37.7449153 L21.7237617,37.0744746 Z M24.7223229,37.0312203 C24.0967238,36.3175254 23.600559,35.5389492 23.2338285,34.6954915 C22.8023808,35.6038305 22.3170022,36.3824068 21.7561203,37.0312203 L24.7223229,37.0312203 Z M20.3970601,42.6867119 L23.9025724,42.6867119 C24.3124477,41.5404746 24.6791782,40.1130847 25.0027639,38.4153559 L25.7470111,38.5991864 C25.4449978,40.1347119 25.0890535,41.4972203 24.6576058,42.6867119 L26.2863207,42.6867119 L26.2863207,43.4328475 L20.3970601,43.4328475 L20.3970601,42.6867119 Z M21.3893898,38.7289492 C21.7345479,39.6264746 22.0365612,40.6645763 22.3170022,41.8324407 L21.6482584,41.9946441 C21.4109621,40.9349153 21.0981626,39.9292542 20.7206459,38.9560339 L21.3893898,38.7289492 Z M23.0504633,38.4153559 C23.3416904,39.2696271 23.600559,40.253661 23.8378552,41.3674576 L23.1583252,41.529661 C22.9641737,40.524 22.7053051,39.5507797 22.3817194,38.6208136 L23.0504633,38.4153559 Z M19.1890067,35.1064068 L16.5787483,35.1064068 L16.5787483,34.3927119 L19.9656125,34.3927119 L19.4478753,38.8478983 L20.1166192,38.8478983 C20.1166192,41.3133898 20.0087572,42.7299661 19.8038196,43.1084407 C19.5880958,43.4761017 19.1458619,43.6707458 18.4663318,43.6707458 C18.2182494,43.6707458 17.9593808,43.6599322 17.7005122,43.6383051 L17.4955746,42.9462373 C17.8730913,42.9894915 18.1427461,43.0111186 18.2937528,43.0111186 C18.81149,43.0111186 19.1242895,42.8381017 19.2321514,42.5136949 C19.3400134,42.167661 19.4047305,41.1836271 19.4047305,39.5399661 L16.6542517,39.5399661 L17.1612027,35.8309153 L17.8730913,35.8741695 L17.4416437,38.8478983 L18.7144143,38.8478983 L19.1890067,35.1064068 Z M18.7899176,40.5023729 L18.7899176,41.2052542 C18.078029,41.4755932 17.2798508,41.6918644 16.3845969,41.8648814 L16.2875212,41.1295593 C17.236706,40.9673559 18.078029,40.7618983 18.7899176,40.5023729 Z M32.7777483,37.6692203 L32.7777483,39.5615932 L35.517441,39.5615932 L35.517441,37.6692203 L32.7777483,37.6692203 Z M32.7346036,40.2752881 C32.6159555,41.6594237 32.2168664,42.805661 31.5265501,43.714 L30.9333096,43.1841356 C31.6236258,42.2217288 31.9795702,40.9997966 32.0011425,39.518339 L32.0011425,34.3278305 L40.0368552,34.3278305 L40.0368552,42.4271864 C40.0368552,43.1841356 39.6593385,43.5626102 38.9043051,43.5626102 L37.6638931,43.5626102 L37.4589555,42.7948475 C37.8904031,42.8164746 38.2894922,42.8381017 38.6562227,42.8381017 C39.0445256,42.8381017 39.2494633,42.6110169 39.2494633,42.1568475 L39.2494633,40.2752881 L36.3156192,40.2752881 L36.3156192,43.443661 L35.517441,43.443661 L35.517441,40.2752881 L32.7346036,40.2752881 Z M39.2494633,39.5615932 L39.2494633,37.6692203 L36.3156192,37.6692203 L36.3156192,39.5615932 L39.2494633,39.5615932 Z M39.2494633,36.9447119 L39.2494633,35.0847797 L36.3156192,35.0847797 L36.3156192,36.9447119 L39.2494633,36.9447119 Z M35.517441,35.0847797 L32.7777483,35.0847797 L32.7777483,36.9447119 L35.517441,36.9447119 L35.517441,35.0847797 Z M53.6040245,35.9931186 L47.4451091,35.9931186 L47.4451091,38.1017627 L53.6040245,38.1017627 L53.6040245,35.9931186 Z M47.4451091,38.8587119 C47.3911782,40.794339 46.8842272,42.4596271 45.9134699,43.8545763 L45.3418018,43.3355254 C46.2154833,42.1244068 46.6577171,40.5456271 46.6792895,38.61 L46.6792895,35.2253559 L50.195588,35.2253559 C50.0014365,34.7711864 49.7964989,34.3494576 49.5699889,33.9601695 L50.4005256,33.8304068 C50.5946771,34.241322 50.7888285,34.7063051 50.98298,35.2253559 L54.3914165,35.2253559 L54.3914165,38.8587119 L47.4451091,38.8587119 Z M61.2280022,37.9828136 C60.8936303,38.4694237 60.5268998,38.9344068 60.1385969,39.3777627 L59.9120869,38.5991864 C61.0338508,37.2150508 61.8428151,35.6362712 62.33898,33.8520339 L63.0400824,34.1764407 C62.7596414,35.0739661 62.4144833,35.9282373 61.9938218,36.7284407 L61.9938218,43.8221356 L61.2280022,43.8221356 L61.2280022,37.9828136 Z M62.8567171,35.7444068 L65.7150579,35.7444068 L65.7150579,33.8844746 L66.4808775,33.8844746 L66.4808775,35.7444068 L69.4255078,35.7444068 L69.4255078,36.5013559 L67.2251247,36.5013559 C67.7212895,38.2855932 68.594971,39.8751864 69.8461693,41.2701356 L69.3392183,41.9081356 C68.0233029,40.3077288 67.1064766,38.5018644 66.6103118,36.5013559 L66.4808775,36.5013559 L66.4808775,40.8375932 L68.1527372,40.8375932 L68.1527372,41.5837288 L66.4808775,41.5837288 L66.4808775,43.811322 L65.7150579,43.811322 L65.7150579,41.5837288 L64.0647706,41.5837288 L64.0647706,40.8375932 L65.7150579,40.8375932 L65.7150579,36.5013559 L65.5856236,36.5013559 C65.046314,38.7505763 64.1079154,40.5996949 62.7812138,42.0378983 L62.3821247,41.3674576 C63.5901782,40.1130847 64.4422873,38.4910508 64.9600245,36.5013559 L62.8567171,36.5013559 L62.8567171,35.7444068 Z M79.7460334,37.0744746 C79.3577305,37.5070169 78.9478552,37.8963051 78.5164076,38.2315254 L78.1065323,37.604339 C79.3145857,36.6635593 80.2529844,35.4416271 80.9001559,33.9385424 L81.6120445,33.9385424 C82.1513541,35.322678 83.100539,36.5229831 84.4380267,37.5610847 L84.0173653,38.2098983 C83.553559,37.8530508 83.1436837,37.4745763 82.7769532,37.0744746 L82.7769532,37.7449153 L79.7460334,37.7449153 L79.7460334,37.0744746 Z M82.7445947,37.0312203 C82.1189955,36.3175254 81.6228307,35.5389492 81.2561002,34.6954915 C80.8246526,35.6038305 80.3392739,36.3824068 79.778392,37.0312203 L82.7445947,37.0312203 Z M78.4193318,42.6867119 L81.9248441,42.6867119 C82.3347194,41.5404746 82.7014499,40.1130847 83.0250356,38.4153559 L83.7692829,38.5991864 C83.4672695,40.1347119 83.1113252,41.4972203 82.6798775,42.6867119 L84.3085924,42.6867119 L84.3085924,43.4328475 L78.4193318,43.4328475 L78.4193318,42.6867119 Z M79.4116615,38.7289492 C79.7568196,39.6264746 80.058833,40.6645763 80.3392739,41.8324407 L79.6705301,41.9946441 C79.4332339,40.9349153 79.1204343,39.9292542 78.7429176,38.9560339 L79.4116615,38.7289492 Z M81.072735,38.4153559 C81.3639621,39.2696271 81.6228307,40.253661 81.8601269,41.3674576 L81.1805969,41.529661 C80.9864454,40.524 80.7275768,39.5507797 80.4039911,38.6208136 L81.072735,38.4153559 Z M77.2112784,35.1064068 L74.60102,35.1064068 L74.60102,34.3927119 L77.9878842,34.3927119 L77.470147,38.8478983 L78.1388909,38.8478983 C78.1388909,41.3133898 78.031029,42.7299661 77.8260913,43.1084407 C77.6103675,43.4761017 77.1681336,43.6707458 76.4886036,43.6707458 C76.2405212,43.6707458 75.9816526,43.6599322 75.722784,43.6383051 L75.5178463,42.9462373 C75.895363,42.9894915 76.1650178,43.0111186 76.3160245,43.0111186 C76.8337617,43.0111186 77.1465612,42.8381017 77.2544232,42.5136949 C77.3622851,42.167661 77.4270022,41.1836271 77.4270022,39.5399661 L74.6765234,39.5399661 L75.1834744,35.8309153 L75.895363,35.8741695 L75.4639154,38.8478983 L76.736686,38.8478983 L77.2112784,35.1064068 Z M76.8121893,40.5023729 L76.8121893,41.2052542 C76.1003007,41.4755932 75.3021225,41.6918644 74.4068686,41.8648814 L74.3097929,41.1295593 C75.2589777,40.9673559 76.1003007,40.7618983 76.8121893,40.5023729 Z M90.2391381,34.1007458 C90.9186682,34.6414237 91.4903363,35.1712881 91.9541425,35.7011525 L91.4256192,36.2418305 C91.0049577,35.7227797 90.4332895,35.1821017 89.6998285,34.6089831 L90.2391381,34.1007458 Z M88.9879399,37.2258644 L91.2422539,37.2258644 L91.2422539,42.0270847 C91.6305568,41.702678 92.0512183,41.3350169 92.4934521,40.9132881 L92.7091759,41.7351186 C92.0296459,42.3731186 91.306971,42.9354237 90.5519376,43.4328475 L90.2499243,42.7407797 C90.400931,42.5893898 90.4872205,42.4271864 90.4872205,42.2541695 L90.4872205,37.972 L88.9879399,37.972 L88.9879399,37.2258644 Z M92.8170379,38.4910508 L97.951265,38.4910508 L97.951265,39.2047458 C97.6061069,40.2212203 97.0452249,41.0971186 96.257833,41.8324407 C96.991294,42.340678 97.8865479,42.7840339 98.9435947,43.173322 L98.5229332,43.8437627 C97.4011693,43.3895932 96.4519844,42.8813559 95.696951,42.2974237 C94.8340557,42.9462373 93.7662227,43.4544746 92.5042383,43.8437627 L92.0727906,43.1841356 C93.2700579,42.8272881 94.2731737,42.3623051 95.0821381,41.7891864 C94.2623875,41.0322373 93.7122918,40.1887797 93.4102784,39.248 L92.8170379,39.248 L92.8170379,38.4910508 Z M94.1437394,39.248 C94.4241804,40.0265763 94.9203452,40.7294576 95.6322339,41.3458305 C96.3225501,40.7402712 96.8402873,40.0482034 97.1854454,39.248 L94.1437394,39.248 Z M93.6475746,34.3170169 L97.271735,34.3170169 L97.271735,36.6527458 C97.271735,36.9230847 97.4119555,37.063661 97.6923964,37.063661 L98.6847261,37.063661 L98.6847261,37.7773559 L97.498245,37.7773559 C96.8295011,37.7773559 96.5059154,37.4529492 96.5059154,36.8149492 L96.5059154,35.052339 L94.4133942,35.052339 L94.4133942,35.4308136 C94.4133942,36.5770508 93.8525122,37.4637627 92.7523207,38.0909492 L92.2345835,37.4962034 C93.1729822,37.0312203 93.6475746,36.3715932 93.6475746,35.517322 L93.6475746,34.3170169 Z M106.869586,37.1393559 L109.792644,37.1393559 L109.792644,33.8844746 L110.590822,33.8844746 L110.590822,37.1393559 L113.362873,37.1393559 L113.362873,37.9179322 L110.590822,37.9179322 L110.590822,43.8329492 L109.792644,43.8329492 L109.792644,37.9179322 L106.869586,37.9179322 L106.869586,37.1393559 Z M104.755492,34.0034237 C105.488953,34.5549153 106.103766,35.1064068 106.599931,35.6687119 L106.071408,36.2093898 C105.618388,35.6795254 104.992788,35.1172203 104.216183,34.5332881 L104.755492,34.0034237 Z M103.493508,37.2042373 L105.823325,37.2042373 L105.823325,42.0162712 C106.211628,41.6918644 106.643076,41.3242034 107.096096,40.891661 L107.290247,41.6918644 C106.621503,42.340678 105.898829,42.9137966 105.133009,43.4220339 L104.830996,42.7191525 C104.992788,42.5893898 105.079078,42.438 105.079078,42.2649831 L105.079078,37.9503729 L103.493508,37.9503729 L103.493508,37.2042373 Z" id="极验用户体验设计"></path>
                    <path d="M18.7746682,15.8780339 C18.7746682,22.8181017 14.7889844,26.6035932 7.79655679,26.6035932 C5.31424499,26.6035932 1.95787973,26.3582373 0.90901559,26.1829831 C0.314659243,26.0778305 -9.23705556e-14,25.7974237 -9.23705556e-14,25.0964068 L-9.23705556e-14,1.50718644 C-9.23705556e-14,0.806169492 0.314659243,0.525762712 0.90901559,0.420610169 C1.95787973,0.245355932 5.31424499,2.4158453e-13 7.79655679,2.4158453e-13 C14.7889844,2.4158453e-13 18.7746682,3.78549153 18.7746682,10.7255593 L18.7746682,15.8780339 Z M13.9498931,15.8780339 L13.9498931,10.7255593 C13.9498931,5.4679322 11.2927706,4.10094915 7.79655679,4.10094915 C6.50295768,4.10094915 5.59394209,4.17105085 4.85973719,4.20610169 L4.85973719,22.3974915 C5.59394209,22.4325424 6.50295768,22.5026441 7.79655679,22.5026441 C11.2927706,22.5026441 13.9498931,21.135661 13.9498931,15.8780339 Z M38.738049,25.3768136 C38.738049,25.8675254 38.5632383,26.0427797 38.0388062,26.1128814 C36.9200178,26.2881356 35.5564944,26.6035932 31.396,26.6035932 C26.850922,26.6035932 23.3197461,25.3768136 23.3197461,19.4181695 L23.3197461,7.18542373 C23.3197461,1.22677966 26.850922,2.4158453e-13 31.396,2.4158453e-13 C35.5564944,2.4158453e-13 36.9200178,0.315457627 38.0388062,0.490711864 C38.5632383,0.560813559 38.738049,0.736067797 38.738049,1.22677966 L38.738049,3.4700339 C38.738049,3.85559322 38.4233898,4.17105085 38.0388062,4.17105085 L30.9065301,4.17105085 C28.8787261,4.17105085 28.1445212,4.8720678 28.1445212,7.18542373 L28.1445212,10.9709153 L37.6192606,10.9709153 C38.0038441,10.9709153 38.3185033,11.2863729 38.3185033,11.6719322 L38.3185033,14.1955932 C38.3185033,14.5811525 38.0038441,14.8966102 37.6192606,14.8966102 L28.1445212,14.8966102 L28.1445212,19.4181695 C28.1445212,21.7315254 28.8787261,22.4325424 30.9065301,22.4325424 L38.0388062,22.4325424 C38.4233898,22.4325424 38.738049,22.748 38.738049,23.1335593 L38.738049,25.3768136 Z M59.1908998,19.2779661 C59.1908998,22.8181017 56.9882851,26.6035932 49.9958575,26.6035932 C47.3736971,26.6035932 45.4857416,26.3582373 43.807559,25.972678 C43.4579376,25.9025763 43.1432784,25.6572203 43.1432784,25.271661 L43.1432784,22.748 C43.1432784,22.3624407 43.4579376,22.0820339 43.807559,22.0820339 L43.8774833,22.0820339 C45.2759688,22.2572881 48.7721826,22.4325424 50.0657817,22.4325424 C53.177412,22.4325424 54.1213898,21.3109153 54.1213898,19.2779661 C54.1213898,17.9109831 53.4571091,17.2099661 51.149608,15.8429831 L46.5346058,13.0739661 C43.2831269,11.1461695 42.4090735,9.11322034 42.4090735,6.65966102 C42.4090735,2.8040678 44.6466503,2.4158453e-13 51.149608,2.4158453e-13 C53.4571091,2.4158453e-13 56.6736258,0.350508475 57.8623385,0.630915254 C58.2119599,0.701016949 58.491657,0.946372881 58.491657,1.29688136 L58.491657,3.89064407 C58.491657,4.24115254 58.246922,4.52155932 57.8973007,4.52155932 L57.8273764,4.52155932 C55.5198753,4.31125424 53.2123742,4.17105085 50.9398352,4.17105085 C48.352637,4.17105085 47.2688107,5.08237288 47.2688107,6.65966102 C47.2688107,7.81633898 47.863167,8.51735593 50.135706,9.77918644 L54.3311626,12.1275932 C58.1769978,14.2656949 59.1908998,16.5089492 59.1908998,19.2779661 Z M68.2460935,25.6221695 C68.2460935,26.0077288 67.9314343,26.3231864 67.5468508,26.3231864 L64.0855991,26.3231864 C63.7010156,26.3231864 63.3863563,26.0077288 63.3863563,25.6221695 L63.3863563,0.946372881 C63.3863563,0.560813559 63.7010156,0.28040678 64.0855991,0.28040678 L67.5468508,0.28040678 C67.9314343,0.28040678 68.2460935,0.560813559 68.2460935,0.946372881 L68.2460935,25.6221695 Z M90.4470512,25.1665085 C90.4470512,25.6221695 90.2372784,25.9025763 89.7827706,26.0077288 C88.0346637,26.3582373 85.7621247,26.6035932 82.1610245,26.6035932 C78.3851136,26.6035932 72.7911715,24.1149831 72.7911715,15.8429831 L72.7911715,10.795661 C72.7911715,2.48861017 78.1054165,2.4158453e-13 82.2659109,2.4158453e-13 C85.6222762,2.4158453e-13 88.62902,0.420610169 89.7827706,0.630915254 C90.2372784,0.736067797 90.4470512,0.911322034 90.4470512,1.36698305 L90.4470512,3.71538983 C90.4470512,4.20610169 90.3072027,4.45145763 89.7478085,4.45145763 L89.642922,4.45145763 C88.0346637,4.31125424 85.6222762,4.17105085 82.2659109,4.17105085 C79.9234477,4.17105085 77.6858708,5.81844068 77.6858708,10.795661 L77.6858708,15.8429831 C77.6858708,20.8202034 80.0982584,22.4325424 82.1610245,22.4325424 C83.4546236,22.4325424 84.5384499,22.3974915 85.6222762,22.3273898 L85.6222762,13.3894237 C85.6222762,13.0038644 85.9019733,12.6884068 86.2865568,12.6884068 L89.7478085,12.6884068 C90.132392,12.6884068 90.4470512,13.0038644 90.4470512,13.3894237 L90.4470512,25.1665085 Z M115.025434,25.6221695 C115.025434,26.0077288 114.745737,26.3231864 114.361154,26.3231864 L110.760053,26.3231864 C110.37547,26.3231864 110.130735,26.0077288 110.130735,25.6221695 L110.130735,9.81423729 C110.130735,5.81844068 108.732249,4.20610169 105.375884,4.20610169 C103.627777,4.20610169 101.70486,4.34630508 100.551109,4.48650847 L100.551109,25.6221695 C100.551109,26.0077288 100.271412,26.3231864 99.8868285,26.3231864 L96.3556526,26.3231864 C95.971069,26.3231864 95.6913719,26.0077288 95.6913719,25.6221695 L95.6913719,2.38345763 C95.6913719,1.08657627 96.0759555,0.771118644 97.1597817,0.595864407 C99.0477372,0.315457627 102.85861,2.4158453e-13 104.886414,2.4158453e-13 C111.389372,2.4158453e-13 115.025434,2.34840678 115.025434,9.81423729 L115.025434,25.6221695 Z" id="DESIGN"></path>
                </g>
            </g>
        </g>
    </g>
</svg>