<?xml version="1.0" encoding="UTF-8"?>
<svg width="167px" height="66px" viewBox="0 0 167 66" version="1.1" xmlns="http://www.w3.org/2000/svg" xmlns:xlink="http://www.w3.org/1999/xlink">
    <!-- Generator: Sketch 54.1 (76490) - https://sketchapp.com -->
    <title>2</title>
    <desc>Created with Sketch.</desc>
    <g id="Page-1" stroke="none" stroke-width="1" fill="none" fill-rule="evenodd">
        <g id="首页" transform="translate(-1044.000000, -3928.000000)">
            <g id="编组-11" transform="translate(934.000000, 3901.000000)">
                <g id="2" transform="translate(110.000000, 27.000000)">
                    <path d="M28.1116578,7.93322622 C29.5339347,3.52028293 33.6655388,0.328456038 38.5407473,0.328456038 L38.5407473,25.0460638 C38.5407473,35.663631 29.9552923,44.2708699 19.3645968,44.2708699 C8.77390139,44.2708699 0.188446399,35.663631 0.188446399,25.0460638 C0.188446399,14.4284966 8.77390139,5.82125777 19.3645968,5.82125777 C22.5155511,5.82125777 25.489004,6.58315974 28.1116578,7.93322622 Z M19.3645968,16.8068612 C14.8257274,16.8068612 11.1462466,20.4956779 11.1462466,25.0460638 C11.1462466,29.5964498 14.8257274,33.2852664 19.3645968,33.2852664 C23.9034663,33.2852664 27.582947,29.5964498 27.582947,25.0460638 C27.582947,20.4956779 23.9034663,16.8068612 19.3645968,16.8068612 Z M8.21067406,52.2442091 L37.9793617,44.2474745 C39.5456895,50.1079216 36.0766418,56.131734 30.2310268,57.702036 L0.462339196,65.6987706 C-1.10398862,59.8383235 2.36505906,53.8145111 8.21067406,52.2442091 Z" id="Combined-Shape" fill="#3873FF"></path>
                    <path d="M56.1532851,50.0503729 L56.1532851,55.4787797 L55.3658931,55.4787797 L55.3658931,49.9638644 C55.0099488,51.0668475 54.5353563,52.0616949 53.952902,52.9484068 L53.6185301,52.0941356 C54.405922,51.0344068 54.966804,49.8341017 55.3119621,48.4715932 L53.7911091,48.4715932 L53.7911091,47.7254576 L55.3658931,47.7254576 L55.3658931,45.6168136 L56.1532851,45.6168136 L56.1532851,47.7254576 L57.4476281,47.7254576 L57.4476281,48.4715932 L56.1532851,48.4715932 L56.1532851,49.1852881 C56.6278775,49.7151525 57.1132561,50.3098983 57.6094209,50.9587119 L57.1456147,51.6399661 C56.7573118,50.9911525 56.4337261,50.4612881 56.1532851,50.0503729 Z M58.4291715,46.7954915 L57.1995457,46.7954915 L57.1995457,46.0493559 L62.2582695,46.0493559 L62.2582695,46.5467797 C62.0425457,47.5091864 61.837608,48.3418305 61.6218842,49.0338983 L63.0240891,49.0338983 L63.0240891,49.4664407 C62.7975791,50.9478983 62.3014143,52.2022712 61.5463808,53.2187458 C62.118049,53.8134915 62.7760067,54.3433559 63.5310401,54.8191525 L63.0348753,55.4787797 C62.2690557,54.9813559 61.611098,54.4298644 61.050216,53.8134915 C60.4030445,54.4947458 59.6156526,55.0570508 58.6880401,55.5004068 L58.2565924,54.7867119 C59.1626325,54.3433559 59.9176659,53.802678 60.5216927,53.164678 C59.8745212,52.2995932 59.3891425,51.3263729 59.0547706,50.2558305 C58.7851158,52.5158644 58.1487305,54.2460339 57.1456147,55.446339 L56.5523742,54.9272881 C57.782,53.4566441 58.4075991,51.0884746 58.4291715,47.8444068 L58.4291715,46.7954915 Z M60.9962851,52.5915593 C61.611098,51.7697288 62.0317595,50.807322 62.2474833,49.7151525 L60.6942717,49.7151525 C60.9099955,49.0555254 61.158078,48.0823051 61.4385189,46.7954915 L59.1949911,46.7954915 L59.1949911,47.8444068 C59.1949911,47.9957966 59.1842049,48.1363729 59.1842049,48.2769492 C59.4430735,49.9422373 60.0471002,51.3804407 60.9962851,52.5915593 Z M73.4416904,48.7851864 C73.0533875,49.2177288 72.6435122,49.6070169 72.2120646,49.9422373 L71.8021893,49.3150508 C73.0102428,48.3742712 73.9486414,47.152339 74.5958129,45.6492542 L75.3077016,45.6492542 C75.8470111,47.0333898 76.796196,48.2336949 78.1336837,49.2717966 L77.7130223,49.9206102 C77.249216,49.5637627 76.8393408,49.1852881 76.4726102,48.7851864 L76.4726102,49.4556271 L73.4416904,49.4556271 L73.4416904,48.7851864 Z M76.4402517,48.7419322 C75.8146526,48.0282373 75.3184878,47.249661 74.9517572,46.4062034 C74.5203096,47.3145424 74.034931,48.0931186 73.474049,48.7419322 L76.4402517,48.7419322 Z M72.1149889,54.3974237 L75.6205011,54.3974237 C76.0303764,53.2511864 76.3971069,51.8237966 76.7206927,50.1260678 L77.4649399,50.3098983 C77.1629265,51.8454237 76.8069822,53.2079322 76.3755345,54.3974237 L78.0042494,54.3974237 L78.0042494,55.1435593 L72.1149889,55.1435593 L72.1149889,54.3974237 Z M73.1073185,50.439661 C73.4524766,51.3371864 73.75449,52.3752881 74.034931,53.5431525 L73.3661871,53.7053559 C73.1288909,52.6456271 72.8160913,51.6399661 72.4385746,50.6667458 L73.1073185,50.439661 Z M74.768392,50.1260678 C75.0596192,50.980339 75.3184878,51.9643729 75.555784,53.0781695 L74.8762539,53.2403729 C74.6821024,52.2347119 74.4232339,51.2614915 74.0996481,50.3315254 L74.768392,50.1260678 Z M70.9069354,46.8171186 L68.2966771,46.8171186 L68.2966771,46.1034237 L71.6835412,46.1034237 L71.165804,50.5586102 L71.8345479,50.5586102 C71.8345479,53.0241017 71.726686,54.440678 71.5217483,54.8191525 C71.3060245,55.1868136 70.8637906,55.3814576 70.1842606,55.3814576 C69.9361782,55.3814576 69.6773096,55.3706441 69.418441,55.3490169 L69.2135033,54.6569492 C69.59102,54.7002034 69.8606748,54.7218305 70.0116815,54.7218305 C70.5294187,54.7218305 70.8422183,54.5488136 70.9500802,54.2244068 C71.0579421,53.8783729 71.1226592,52.894339 71.1226592,51.250678 L68.3721804,51.250678 L68.8791314,47.5416271 L69.59102,47.5848814 L69.1595724,50.5586102 L70.432343,50.5586102 L70.9069354,46.8171186 Z M70.5078463,52.2130847 L70.5078463,52.9159661 C69.7959577,53.1863051 68.9977795,53.4025763 68.1025256,53.5755932 L68.0054499,52.8402712 C68.9546347,52.6780678 69.7959577,52.4726102 70.5078463,52.2130847 Z M84.4956771,49.3799322 L84.4956771,51.2723051 L87.2353697,51.2723051 L87.2353697,49.3799322 L84.4956771,49.3799322 Z M84.4525323,51.986 C84.3338842,53.3701356 83.9347951,54.5163729 83.2444788,55.4247119 L82.6512383,54.8948475 C83.3415546,53.9324407 83.6974989,52.7105085 83.7190713,51.2290508 L83.7190713,46.0385424 L91.754784,46.0385424 L91.754784,54.1378983 C91.754784,54.8948475 91.3772673,55.273322 90.6222339,55.273322 L89.3818218,55.273322 L89.1768842,54.5055593 C89.6083318,54.5271864 90.0074209,54.5488136 90.3741514,54.5488136 C90.7624543,54.5488136 90.967392,54.3217288 90.967392,53.8675593 L90.967392,51.986 L88.0335479,51.986 L88.0335479,55.1543729 L87.2353697,55.1543729 L87.2353697,51.986 L84.4525323,51.986 Z M90.967392,51.2723051 L90.967392,49.3799322 L88.0335479,49.3799322 L88.0335479,51.2723051 L90.967392,51.2723051 Z M90.967392,48.6554237 L90.967392,46.7954915 L88.0335479,46.7954915 L88.0335479,48.6554237 L90.967392,48.6554237 Z M87.2353697,46.7954915 L84.4956771,46.7954915 L84.4956771,48.6554237 L87.2353697,48.6554237 L87.2353697,46.7954915 Z M105.321953,47.7038305 L99.1630379,47.7038305 L99.1630379,49.8124746 L105.321953,49.8124746 L105.321953,47.7038305 Z M99.1630379,50.5694237 C99.1091069,52.5050508 98.6021559,54.170339 97.6313987,55.5652881 L97.0597305,55.0462373 C97.933412,53.8351186 98.3756459,52.256339 98.3972183,50.3207119 L98.3972183,46.9360678 L101.913517,46.9360678 C101.719365,46.4818983 101.514428,46.0601695 101.287918,45.6708814 L102.118454,45.5411186 C102.312606,45.9520339 102.506757,46.4170169 102.700909,46.9360678 L106.109345,46.9360678 L106.109345,50.5694237 L99.1630379,50.5694237 Z M112.945931,49.6935254 C112.611559,50.1801356 112.244829,50.6451186 111.856526,51.0884746 L111.630016,50.3098983 C112.75178,48.9257627 113.560744,47.3469831 114.056909,45.5627458 L114.758011,45.8871525 C114.47757,46.784678 114.132412,47.6389492 113.711751,48.4391525 L113.711751,55.5328475 L112.945931,55.5328475 L112.945931,49.6935254 Z M114.574646,47.4551186 L117.432987,47.4551186 L117.432987,45.5951864 L118.198806,45.5951864 L118.198806,47.4551186 L121.143437,47.4551186 L121.143437,48.2120678 L118.943053,48.2120678 C119.439218,49.9963051 120.3129,51.5858983 121.564098,52.9808475 L121.057147,53.6188475 C119.741232,52.0184407 118.824405,50.2125763 118.328241,48.2120678 L118.198806,48.2120678 L118.198806,52.5483051 L119.870666,52.5483051 L119.870666,53.2944407 L118.198806,53.2944407 L118.198806,55.5220339 L117.432987,55.5220339 L117.432987,53.2944407 L115.782699,53.2944407 L115.782699,52.5483051 L117.432987,52.5483051 L117.432987,48.2120678 L117.303552,48.2120678 C116.764243,50.4612881 115.825844,52.3104068 114.499143,53.7486102 L114.100053,53.0781695 C115.308107,51.8237966 116.160216,50.2017627 116.677953,48.2120678 L114.574646,48.2120678 L114.574646,47.4551186 Z M131.463962,48.7851864 C131.075659,49.2177288 130.665784,49.6070169 130.234336,49.9422373 L129.824461,49.3150508 C131.032514,48.3742712 131.970913,47.152339 132.618085,45.6492542 L133.329973,45.6492542 C133.869283,47.0333898 134.818468,48.2336949 136.155955,49.2717966 L135.735294,49.9206102 C135.271488,49.5637627 134.861612,49.1852881 134.494882,48.7851864 L134.494882,49.4556271 L131.463962,49.4556271 L131.463962,48.7851864 Z M134.462523,48.7419322 C133.836924,48.0282373 133.340759,47.249661 132.974029,46.4062034 C132.542581,47.3145424 132.057203,48.0931186 131.496321,48.7419322 L134.462523,48.7419322 Z M130.137261,54.3974237 L133.642773,54.3974237 C134.052648,53.2511864 134.419379,51.8237966 134.742964,50.1260678 L135.487212,50.3098983 C135.185198,51.8454237 134.829254,53.2079322 134.397806,54.3974237 L136.026521,54.3974237 L136.026521,55.1435593 L130.137261,55.1435593 L130.137261,54.3974237 Z M131.12959,50.439661 C131.474748,51.3371864 131.776762,52.3752881 132.057203,53.5431525 L131.388459,53.7053559 C131.151163,52.6456271 130.838363,51.6399661 130.460846,50.6667458 L131.12959,50.439661 Z M132.790664,50.1260678 C133.081891,50.980339 133.340759,51.9643729 133.578056,53.0781695 L132.898526,53.2403729 C132.704374,52.2347119 132.445506,51.2614915 132.12192,50.3315254 L132.790664,50.1260678 Z M128.929207,46.8171186 L126.318949,46.8171186 L126.318949,46.1034237 L129.705813,46.1034237 L129.188076,50.5586102 L129.85682,50.5586102 C129.85682,53.0241017 129.748958,54.440678 129.54402,54.8191525 C129.328296,55.1868136 128.886062,55.3814576 128.206532,55.3814576 C127.95845,55.3814576 127.699581,55.3706441 127.440713,55.3490169 L127.235775,54.6569492 C127.613292,54.7002034 127.882947,54.7218305 128.033953,54.7218305 C128.55169,54.7218305 128.86449,54.5488136 128.972352,54.2244068 C129.080214,53.8783729 129.144931,52.894339 129.144931,51.250678 L126.394452,51.250678 L126.901403,47.5416271 L127.613292,47.5848814 L127.181844,50.5586102 L128.454615,50.5586102 L128.929207,46.8171186 Z M128.530118,52.2130847 L128.530118,52.9159661 C127.818229,53.1863051 127.020051,53.4025763 126.124797,53.5755932 L126.027722,52.8402712 C126.976906,52.6780678 127.818229,52.4726102 128.530118,52.2130847 Z M141.957067,45.8114576 C142.636597,46.3521356 143.208265,46.882 143.672071,47.4118644 L143.143548,47.9525424 C142.722886,47.4334915 142.151218,46.8928136 141.417757,46.3196949 L141.957067,45.8114576 Z M140.705869,48.9365763 L142.960183,48.9365763 L142.960183,53.7377966 C143.348486,53.4133898 143.769147,53.0457288 144.211381,52.624 L144.427105,53.4458305 C143.747575,54.0838305 143.0249,54.6461356 142.269866,55.1435593 L141.967853,54.4514915 C142.11886,54.3001017 142.205149,54.1378983 142.205149,53.9648814 L142.205149,49.6827119 L140.705869,49.6827119 L140.705869,48.9365763 Z M144.534967,50.2017627 L149.669194,50.2017627 L149.669194,50.9154576 C149.324036,51.9319322 148.763154,52.8078305 147.975762,53.5431525 C148.709223,54.0513898 149.604477,54.4947458 150.661523,54.8840339 L150.240862,55.5544746 C149.119098,55.1003051 148.169913,54.5920678 147.41488,54.0081356 C146.551984,54.6569492 145.484151,55.1651864 144.222167,55.5544746 L143.790719,54.8948475 C144.987987,54.538 145.991102,54.0730169 146.800067,53.4998983 C145.980316,52.7429492 145.43022,51.8994915 145.128207,50.9587119 L144.534967,50.9587119 L144.534967,50.2017627 Z M145.861668,50.9587119 C146.142109,51.7372881 146.638274,52.4401695 147.350163,53.0565424 C148.040479,52.4509831 148.558216,51.7589153 148.903374,50.9587119 L145.861668,50.9587119 Z M145.365503,46.0277288 L148.989664,46.0277288 L148.989664,48.3634576 C148.989664,48.6337966 149.129884,48.7743729 149.410325,48.7743729 L150.402655,48.7743729 L150.402655,49.4880678 L149.216174,49.4880678 C148.54743,49.4880678 148.223844,49.163661 148.223844,48.525661 L148.223844,46.7630508 L146.131323,46.7630508 L146.131323,47.1415254 C146.131323,48.2877627 145.570441,49.1744746 144.470249,49.801661 L143.952512,49.2069153 C144.890911,48.7419322 145.365503,48.0823051 145.365503,47.2280339 L145.365503,46.0277288 Z M158.587514,48.8500678 L161.510572,48.8500678 L161.510572,45.5951864 L162.308751,45.5951864 L162.308751,48.8500678 L165.080802,48.8500678 L165.080802,49.6286441 L162.308751,49.6286441 L162.308751,55.543661 L161.510572,55.543661 L161.510572,49.6286441 L158.587514,49.6286441 L158.587514,48.8500678 Z M156.473421,45.7141356 C157.206882,46.2656271 157.821695,46.8171186 158.31786,47.3794237 L157.789336,47.9201017 C157.336316,47.3902373 156.710717,46.8279322 155.934111,46.244 L156.473421,45.7141356 Z M155.211437,48.9149492 L157.541254,48.9149492 L157.541254,53.7269831 C157.929557,53.4025763 158.361004,53.0349153 158.814024,52.6023729 L159.008176,53.4025763 C158.339432,54.0513898 157.616757,54.6245085 156.850938,55.1327458 L156.548924,54.4298644 C156.710717,54.3001017 156.797007,54.1487119 156.797007,53.9756949 L156.797007,49.6610847 L155.211437,49.6610847 L155.211437,48.9149492 Z" id="极验用户体验设计" fill="#292F3A"></path>
                    <path d="M70.4925969,27.5887458 C70.4925969,34.5288136 66.5069131,38.3143051 59.5144855,38.3143051 C57.0321737,38.3143051 53.6758085,38.0689492 52.6269443,37.8936949 C52.032588,37.7885424 51.7179287,37.5081356 51.7179287,36.8071186 L51.7179287,13.2178983 C51.7179287,12.5168814 52.032588,12.2364746 52.6269443,12.131322 C53.6758085,11.9560678 57.0321737,11.7107119 59.5144855,11.7107119 C66.5069131,11.7107119 70.4925969,15.4962034 70.4925969,22.4362712 L70.4925969,27.5887458 Z M65.6678218,27.5887458 L65.6678218,22.4362712 C65.6678218,17.1786441 63.0106993,15.811661 59.5144855,15.811661 C58.2208864,15.811661 57.3118708,15.8817627 56.5776659,15.9168136 L56.5776659,34.1082034 C57.3118708,34.1432542 58.2208864,34.2133559 59.5144855,34.2133559 C63.0106993,34.2133559 65.6678218,32.8463729 65.6678218,27.5887458 Z M90.4559777,37.0875254 C90.4559777,37.5782373 90.281167,37.7534915 89.756735,37.8235932 C88.6379465,37.9988475 87.2744232,38.3143051 83.1139287,38.3143051 C78.5688508,38.3143051 75.0376748,37.0875254 75.0376748,31.1288814 L75.0376748,18.8961356 C75.0376748,12.9374915 78.5688508,11.7107119 83.1139287,11.7107119 C87.2744232,11.7107119 88.6379465,12.0261695 89.756735,12.2014237 C90.281167,12.2715254 90.4559777,12.4467797 90.4559777,12.9374915 L90.4559777,15.1807458 C90.4559777,15.5663051 90.1413185,15.8817627 89.756735,15.8817627 L82.6244588,15.8817627 C80.5966548,15.8817627 79.8624499,16.5827797 79.8624499,18.8961356 L79.8624499,22.6816271 L89.3371893,22.6816271 C89.7217728,22.6816271 90.0364321,22.9970847 90.0364321,23.3826441 L90.0364321,25.9063051 C90.0364321,26.2918644 89.7217728,26.607322 89.3371893,26.607322 L79.8624499,26.607322 L79.8624499,31.1288814 C79.8624499,33.4422373 80.5966548,34.1432542 82.6244588,34.1432542 L89.756735,34.1432542 C90.1413185,34.1432542 90.4559777,34.4587119 90.4559777,34.8442712 L90.4559777,37.0875254 Z M110.908829,30.988678 C110.908829,34.5288136 108.706214,38.3143051 101.713786,38.3143051 C99.0916258,38.3143051 97.2036704,38.0689492 95.5254878,37.6833898 C95.1758664,37.6132881 94.8612071,37.3679322 94.8612071,36.9823729 L94.8612071,34.4587119 C94.8612071,34.0731525 95.1758664,33.7927458 95.5254878,33.7927458 L95.595412,33.7927458 C96.9938976,33.968 100.490111,34.1432542 101.78371,34.1432542 C104.895341,34.1432542 105.839318,33.0216271 105.839318,30.988678 C105.839318,29.6216949 105.175038,28.920678 102.867537,27.5536949 L98.2525345,24.784678 C95.0010557,22.8568814 94.1270022,20.8239322 94.1270022,18.3703729 C94.1270022,14.5147797 96.3645791,11.7107119 102.867537,11.7107119 C105.175038,11.7107119 108.391555,12.0612203 109.580267,12.3416271 C109.929889,12.4117288 110.209586,12.6570847 110.209586,13.0075932 L110.209586,15.6013559 C110.209586,15.9518644 109.964851,16.2322712 109.615229,16.2322712 L109.545305,16.2322712 C107.237804,16.0219661 104.930303,15.8817627 102.657764,15.8817627 C100.070566,15.8817627 98.9867394,16.7930847 98.9867394,18.3703729 C98.9867394,19.5270508 99.5810958,20.2280678 101.853635,21.4898983 L106.049091,23.8383051 C109.894927,25.9764068 110.908829,28.219661 110.908829,30.988678 Z M119.964022,37.3328814 C119.964022,37.7184407 119.649363,38.0338983 119.26478,38.0338983 L115.803528,38.0338983 C115.418944,38.0338983 115.104285,37.7184407 115.104285,37.3328814 L115.104285,12.6570847 C115.104285,12.2715254 115.418944,11.9911186 115.803528,11.9911186 L119.26478,11.9911186 C119.649363,11.9911186 119.964022,12.2715254 119.964022,12.6570847 L119.964022,37.3328814 Z M142.16498,36.8772203 C142.16498,37.3328814 141.955207,37.6132881 141.500699,37.7184407 C139.752592,38.0689492 137.480053,38.3143051 133.878953,38.3143051 C130.103042,38.3143051 124.5091,35.8256949 124.5091,27.5536949 L124.5091,22.5063729 C124.5091,14.199322 129.823345,11.7107119 133.98384,11.7107119 C137.340205,11.7107119 140.346949,12.131322 141.500699,12.3416271 C141.955207,12.4467797 142.16498,12.6220339 142.16498,13.0776949 L142.16498,15.4261017 C142.16498,15.9168136 142.025131,16.1621695 141.465737,16.1621695 L141.360851,16.1621695 C139.752592,16.0219661 137.340205,15.8817627 133.98384,15.8817627 C131.641376,15.8817627 129.4038,17.5291525 129.4038,22.5063729 L129.4038,27.5536949 C129.4038,32.5309153 131.816187,34.1432542 133.878953,34.1432542 C135.172552,34.1432542 136.256379,34.1082034 137.340205,34.0381017 L137.340205,25.1001356 C137.340205,24.7145763 137.619902,24.3991186 138.004486,24.3991186 L141.465737,24.3991186 C141.850321,24.3991186 142.16498,24.7145763 142.16498,25.1001356 L142.16498,36.8772203 Z M166.743363,37.3328814 C166.743363,37.7184407 166.463666,38.0338983 166.079082,38.0338983 L162.477982,38.0338983 C162.093399,38.0338983 161.848664,37.7184407 161.848664,37.3328814 L161.848664,21.5249492 C161.848664,17.5291525 160.450178,15.9168136 157.093813,15.9168136 C155.345706,15.9168136 153.422788,16.0570169 152.269038,16.1972203 L152.269038,37.3328814 C152.269038,37.7184407 151.989341,38.0338983 151.604757,38.0338983 L148.073581,38.0338983 C147.688998,38.0338983 147.409301,37.7184407 147.409301,37.3328814 L147.409301,14.0941695 C147.409301,12.7972881 147.793884,12.4818305 148.87771,12.3065763 C150.765666,12.0261695 154.576539,11.7107119 156.604343,11.7107119 C163.107301,11.7107119 166.743363,14.0591186 166.743363,21.5249492 L166.743363,37.3328814 Z" id="DESIGN" fill="#292F3A"></path>
                </g>
            </g>
        </g>
    </g>
</svg>