<?xml version="1.0" encoding="UTF-8"?>
<svg width="243px" height="40px" viewBox="0 0 243 40" version="1.1" xmlns="http://www.w3.org/2000/svg" xmlns:xlink="http://www.w3.org/1999/xlink">
    <!-- Generator: Sketch 55.2 (78181) - https://sketchapp.com -->
    <title>geetestweb_logo</title>
    <desc>Created with Sketch.</desc>
    <g id="Index" stroke="none" stroke-width="1" fill="none" fill-rule="evenodd">
        <g id="首页-英文版" transform="translate(-241.000000, -1259.000000)" fill-rule="nonzero">
            <g id="Group" transform="translate(120.000000, 1140.000000)">
                <g id="geetestweb_logo" transform="translate(121.000000, 119.000000)">
                    <g id="资源-2" transform="translate(0.000000, 0.969697)">
                        <g id="图层_2">
                            <g>
                                <g id="图层_3">
                                    <path d="M38.1833225,17.3007433 L26.1540915,17.3007433 C25.2445533,13.7787785 21.8575486,11.4824241 18.2483932,11.9407609 C14.6392377,12.3990977 11.933981,15.4691254 11.933981,19.106595 C11.933981,22.7440645 14.6392377,25.8140923 18.2483932,26.2724291 C21.8575486,26.7307659 25.2445533,24.4344114 26.1540915,20.9124467 L34.4986932,20.9124467 C33.7186046,27.6496862 28.6371826,33.0916559 21.9681031,34.3321335 C15.2990235,35.572611 8.60010606,32.3218354 5.4488316,26.3158464 C2.29755714,20.3098573 3.43002687,12.9515844 8.24145817,8.1706297 C13.0528895,3.38967503 20.4193878,2.30281427 26.4069582,5.49047307 C25.4387928,8.1889551 26.5688167,11.1913481 29.0761194,12.582244 C31.5834221,13.97314 34.7294105,13.3428132 36.5070683,11.0933874 C38.2847262,8.84396159 38.170397,5.63806512 36.2370182,3.52093324 C34.3036393,1.40380136 31.1207393,0.999091811 28.7188825,2.56499329 C21.2144296,-1.76689106 11.7354918,-0.519214402 5.60811281,5.60697631 C-0.519266179,11.733167 -1.7672356,21.2103173 2.56541601,28.7133878 C6.89806762,36.2164583 15.7310015,39.8745721 24.1011518,37.6323012 C32.4713021,35.3900302 38.2915871,27.8064807 38.291694,19.142712 C38.291694,18.4203713 38.2555702,17.8063818 38.1833225,17.3007433 Z M19.1460709,22.7182984 C17.1510076,22.7182984 15.5336892,21.1012837 15.5336892,19.106595 C15.5336892,17.1119063 17.1510076,15.4948916 19.1460709,15.4948916 C21.1411343,15.4948916 22.7584527,17.1119063 22.7584527,19.106595 C22.7584527,21.1012837 21.1411343,22.7182984 19.1460709,22.7182984 Z M31.8977784,5.3098879 C32.7744216,5.3098879 33.5647448,5.83786587 33.9002217,6.64762651 C34.2356985,7.45738716 34.0502625,8.38946198 33.4303821,9.00922594 C32.8105018,9.62898991 31.8782519,9.81439112 31.0683392,9.47897728 C30.2584265,9.14356344 29.7303493,8.35338856 29.7303493,7.47690995 C29.7303493,6.28009672 30.7007404,5.3098879 31.8977784,5.3098879 Z" id="Shape" fill="#347EFF"></path>
                                    <path d="M75.619923,27.4306879 C75.660204,27.5360167 75.660204,27.6525008 75.619923,27.7578296 C75.5020796,27.7898036 75.3778429,27.7898036 75.2599996,27.7578296 C73.8199822,27.9786949 72.365058,28.0880671 70.9081983,28.0849712 C70.2051484,28.0947169 69.5030861,28.0289109 68.8140985,27.8886862 C68.2319796,27.7595904 67.6778229,27.5268883 67.178083,27.2016888 C66.655469,26.8531141 66.2550275,26.3497965 66.0328722,25.7622655 C65.7517587,25.009663 65.6184435,24.2099216 65.6402285,23.4068455 L65.6402285,15.5881598 C65.6192598,14.7851403 65.7525493,13.9855535 66.0328722,13.2327398 C66.2530749,12.6441018 66.653951,12.140238 67.178083,11.7933165 C67.6778229,11.468117 68.2319796,11.2354149 68.8140985,11.106319 C69.5030861,10.9660944 70.2051484,10.9002884 70.9081983,10.910034 C72.365058,10.9069382 73.8199822,11.0163104 75.2599996,11.2371757 C75.3778429,11.2052017 75.5020796,11.2052017 75.619923,11.2371757 C75.660204,11.3425045 75.660204,11.4589886 75.619923,11.5643174 L75.619923,13.0364548 C75.619923,13.2894003 75.4148316,13.4944532 75.1618386,13.4944532 L70.5155546,13.4944532 C70.0084659,13.4414997 69.501394,13.5947717 69.1085813,13.9197373 C68.795887,14.3678544 68.6563784,14.9141604 68.7159376,15.4573031 L68.7159376,17.9108656 L74.9000761,17.9108656 C75.1530691,17.9108656 75.3581605,18.1159184 75.3581605,18.3688639 L75.3581605,20.0045722 C75.3581605,20.2575177 75.1530691,20.4625705 74.9000761,20.4625705 L68.7159376,20.4625705 L68.7159376,23.4068455 C68.6040988,24.014163 68.7459998,24.6407745 69.1085813,25.1406963 C69.501394,25.4656619 70.0084659,25.618934 70.5155546,25.5659805 L75.1618386,25.5659805 C75.4148316,25.5659805 75.619923,25.7710333 75.619923,26.0239788 L75.619923,27.4306879 Z" id="Shape" fill="#292F3A"></path>
                                    <path d="M88.9906126,27.4306879 C89.0308936,27.5360167 89.0308936,27.6525008 88.9906126,27.7578296 C88.8727693,27.7898036 88.7485325,27.7898036 88.6306892,27.7578296 C87.1906867,27.9788245 85.7357524,28.0881975 84.278888,28.0849712 C83.5758381,28.0947169 82.8737757,28.0289109 82.1847882,27.8886862 C81.6028844,27.7589147 81.0488445,27.5262616 80.5487727,27.2016888 C80.0261586,26.8531141 79.6257172,26.3497965 79.4035618,25.7622655 C79.1224484,25.009663 78.9891331,24.2099216 79.0109181,23.4068455 L79.0109181,15.5881598 C78.9891331,14.7850837 79.1224484,13.9853423 79.4035618,13.2327398 C79.6257172,12.6452088 80.0261586,12.1418912 80.5487727,11.7933165 C81.0488445,11.4687437 81.6028844,11.2360906 82.1847882,11.106319 C82.8737757,10.9660944 83.5758381,10.9002884 84.278888,10.910034 C85.7357477,10.9069382 87.1906719,11.0163104 88.6306892,11.2371757 C88.7485325,11.2052017 88.8727693,11.2052017 88.9906126,11.2371757 C89.0308936,11.3425045 89.0308936,11.4589886 88.9906126,11.5643174 L88.9906126,13.0364548 C88.9906126,13.1579236 88.9423503,13.2744172 88.8564428,13.3603086 C88.7705353,13.4461999 88.6540198,13.4944532 88.5325283,13.4944532 L83.8862443,13.4944532 C83.3791555,13.4414997 82.8720836,13.5947717 82.479271,13.9197373 C82.1665766,14.3678544 82.027068,14.9141604 82.0866272,15.4573031 L82.0866272,17.9108656 L88.2707658,17.9108656 C88.5237588,17.9108656 88.7288501,18.1159184 88.7288501,18.3688639 L88.7288501,20.0045722 C88.7288501,20.2575177 88.5237588,20.4625705 88.2707658,20.4625705 L82.0866272,20.4625705 L82.0866272,23.4068455 C82.027068,23.9499882 82.1665766,24.4962942 82.479271,24.9444113 C82.8720836,25.2693769 83.3791555,25.422649 83.8862443,25.3696955 L88.5325283,25.3696955 C88.7855213,25.3696955 88.9906126,25.5747483 88.9906126,25.8276938 L88.9906126,27.4306879 Z" id="Shape" fill="#292F3A"></path>
                                    <path d="M102.516516,12.474721 L98.0665538,12.474721 L98.0665538,27.2288099 C98.1039799,27.3346471 98.1039799,27.4501144 98.0665538,27.5559516 C97.9728842,27.5979378 97.8657405,27.5979378 97.772071,27.5559516 L96.397818,27.5559516 C96.3041484,27.5979378 96.1970047,27.5979378 96.1033352,27.5559516 C96.065909,27.4501144 96.065909,27.3346471 96.1033352,27.2288099 L96.1033352,12.474721 L91.5224918,12.474721 C91.4158907,12.5075191 91.3018898,12.5075191 91.1952887,12.474721 C91.1543777,12.3922778 91.1543777,12.2954509 91.1952887,12.2130077 L91.1952887,11.2315827 C91.1532946,11.1379307 91.1532946,11.0308072 91.1952887,10.9371552 C91.3011457,10.8997361 91.4166347,10.8997361 91.5224918,10.9371552 L102.516516,10.9371552 C102.800092,10.9371552 102.94188,11.0680119 102.94188,11.3297252 L102.94188,12.3111502 C102.94188,12.4201974 102.800092,12.474721 102.516516,12.474721 Z" id="Shape" fill="#292F3A"></path>
                                    <path d="M114.043931,27.8366526 C113.990798,27.8541288 113.933463,27.8541288 113.88033,27.8366526 L112.996882,27.8366526 L109.397648,27.8366526 C108.110991,27.92785 106.831226,27.5820325 105.765693,26.8552276 C104.877438,26.0108925 104.43038,24.8028548 104.555042,23.583811 L104.555042,15.1762703 C104.43038,13.9572264 104.877438,12.7491888 105.765693,11.9048537 C106.831226,11.1780488 108.110991,10.8322313 109.397648,10.9234287 L113.095043,10.9234287 L114.011211,10.9234287 C114.064344,10.9059524 114.12168,10.9059524 114.174813,10.9234287 C114.191437,10.9878014 114.191437,11.0553409 114.174813,11.1197137 L114.174813,12.2647095 C114.174813,12.4609945 114.174813,12.5264228 113.91305,12.5264228 L109.463088,12.5264228 C108.973742,12.472926 108.480021,12.472926 107.990674,12.5264228 C107.673548,12.5877728 107.379311,12.734864 107.139946,12.951707 C106.942056,13.1484872 106.805642,13.3985343 106.747302,13.6714186 C106.606238,14.1602472 106.540047,14.6676195 106.550981,15.1762703 L106.550981,18.4476869 L113.553127,18.4476869 C113.657832,18.404068 113.775625,18.404068 113.88033,18.4476869 C113.923957,18.5523722 113.923957,18.6701432 113.88033,18.7748285 L113.88033,19.6253969 C113.923957,19.7300822 113.923957,19.8478532 113.88033,19.9525385 C113.775625,19.9961574 113.657832,19.9961574 113.553127,19.9525385 L106.550981,19.9525385 L106.550981,23.8128101 C106.510449,24.1824634 106.510449,24.5554385 106.550981,24.9250918 C106.603255,25.2096537 106.740085,25.4718616 106.943624,25.6775176 C107.182989,25.8943606 107.477227,26.0414518 107.794352,26.1028018 C108.283699,26.1562985 108.77742,26.1562985 109.266766,26.1028018 L113.684008,26.1028018 C113.84761,26.1028018 113.945771,26.1028018 113.945771,26.3645151 L113.945771,27.5422251 C114.017551,27.6227211 114.053049,27.7291958 114.043931,27.8366526 L114.043931,27.8366526 Z" id="Shape" fill="#292F3A"></path>
                                    <path d="M126.901432,23.5172474 C126.88166,24.0175909 126.793591,24.5128859 126.639669,24.9893849 C126.467108,25.5436438 126.16416,26.0484638 125.756221,26.4615224 C125.263544,26.9354936 124.670998,27.29319 124.022044,27.5083757 C123.127295,27.8129591 122.18572,27.9569376 121.240818,27.9336598 C120.53242,27.9728671 119.822396,27.9728671 119.113998,27.9336598 L117.445262,27.7046607 C117.327912,27.7401432 117.202689,27.7401432 117.085339,27.7046607 C117.059878,27.6192799 117.059878,27.5283282 117.085339,27.4429474 L117.085339,26.4288082 C117.048917,26.3453706 117.048917,26.2505325 117.085339,26.1670949 C117.170424,26.1395852 117.262016,26.1395852 117.347101,26.1670949 L117.347101,26.1670949 L118.23055,26.1670949 L121.109937,26.1670949 C121.683411,26.1800464 122.255938,26.113998 122.811393,25.9708099 C123.19836,25.867937 123.556564,25.6776768 123.858443,25.4146691 C124.116523,25.1859157 124.308596,24.8922122 124.414688,24.5641007 C124.472345,24.1955809 124.472345,23.820339 124.414688,23.4518191 C124.463432,23.1923746 124.463432,22.9261236 124.414688,22.6666791 C124.306902,22.4107335 124.151449,22.1775987 123.956604,21.9796816 C123.778935,21.7353336 123.581984,21.5056005 123.367638,21.2926841 L122.058826,20.4421158 L119.833845,19.100835 C118.946343,18.5933872 118.150054,17.9409951 117.477982,17.1706992 C116.945025,16.5035653 116.666685,15.6687006 116.692695,14.8152792 C116.645103,13.6780812 117.158707,12.5899343 118.066948,11.9037185 C119.29048,11.1775031 120.704022,10.8355813 122.124266,10.9222935 L123.171316,10.9222935 L124.283807,10.9222935 L125.298136,10.9222935 L126.083424,10.9222935 C126.345186,10.9222935 126.476068,11.0858643 126.476068,11.3148635 L126.476068,12.2962885 C126.476068,12.5361923 126.345186,12.6561443 126.083424,12.6561443 L126.083424,12.6561443 L124.251087,12.6561443 L122.156987,12.6561443 C121.270786,12.5938504 120.382904,12.751167 119.572082,13.1141426 C119.012389,13.4894497 118.70933,14.1459542 118.786795,14.8152792 C118.733757,15.063285 118.733757,15.3196993 118.786795,15.5677051 C118.901673,15.8099621 119.056533,16.0311489 119.244879,16.2219884 C119.48231,16.4677224 119.7456,16.6870897 120.030167,16.8762717 L121.142657,17.5959834 L123.236757,18.8391217 C123.820142,19.1796579 124.377871,19.5623412 124.905493,19.9841175 C125.315855,20.313126 125.688913,20.6861137 126.017983,21.0963991 C126.295052,21.4358045 126.505932,21.8241956 126.639669,22.241395 C126.790454,22.6511396 126.878696,23.0812412 126.901432,23.5172474 Z" id="Shape" fill="#292F3A"></path>
                                    <path d="M140.16483,12.474721 L135.714868,12.474721 L135.714868,27.2288099 C135.752294,27.3346471 135.752294,27.4501144 135.714868,27.5559516 C135.621198,27.5979378 135.514055,27.5979378 135.420385,27.5559516 L134.046132,27.5559516 C133.952463,27.5979378 133.845319,27.5979378 133.751649,27.5559516 C133.714223,27.4501144 133.714223,27.3346471 133.751649,27.2288099 L133.751649,12.474721 L129.203526,12.474721 C129.096925,12.5075191 128.982924,12.5075191 128.876323,12.474721 C128.835412,12.3922778 128.835412,12.2954509 128.876323,12.2130077 L128.876323,11.2315827 C128.834329,11.1379307 128.834329,11.0308072 128.876323,10.9371552 C128.98218,10.8997361 129.097669,10.8997361 129.203526,10.9371552 L140.19755,10.9371552 C140.492033,10.9371552 140.622914,10.9371552 140.622914,11.3297252 L140.622914,12.3111502 C140.622914,12.3765785 140.459313,12.474721 140.16483,12.474721 Z" id="Shape" fill="#292F3A"></path>
                                    <path d="M55.0776535,14.4769038 C55.7384469,13.7809819 56.6715191,13.4102152 57.6298377,13.4627646 C58.9649098,13.430316 60.2779532,13.8070317 61.3926733,14.5423321 C61.5524,14.6803354 61.7891919,14.6803354 61.9489186,14.5423321 L62.7996467,13.3646221 C62.7996467,13.1683371 62.9959685,12.939338 62.7996467,12.743053 C61.2215882,11.5154731 59.2689089,10.8685529 57.2699143,10.9110597 C56.5244274,10.9107403 55.7839043,11.0322959 55.0776535,11.2709155 C54.3637671,11.5252235 53.6994875,11.901578 53.114435,12.3831972 C52.4324013,12.9721157 51.9139653,13.7270872 51.6093007,14.5750463 C51.2233356,15.6217964 51.034736,16.7309973 51.0530554,17.8464629 L51.0530554,21.1178795 C51.0368127,22.0703938 51.1692865,23.0196115 51.4456992,23.9312978 C51.6637301,24.6573659 52.0191826,25.33482 52.4927491,25.9268619 C53.3054519,26.8884758 54.3884236,27.583727 55.6011785,27.922426 C56.2138561,28.0555897 56.8392547,28.1214088 57.4662362,28.118711 C59.089643,28.1781363 60.7041105,27.8530616 62.1779608,27.1700002 C62.4411299,27.0429928 62.606969,26.7751493 62.6033248,26.4830027 L62.6033248,18.4026037 C62.6469519,18.2979184 62.6469519,18.1801474 62.6033248,18.0754621 C62.4986198,18.0318432 62.3808267,18.0318432 62.2761217,18.0754621 L57.5316768,18.0754621 C57.2786838,18.0754621 57.0735924,18.2805149 57.0735924,18.5334604 L57.0735924,20.1691687 C57.0735924,20.4221142 57.2786838,20.627167 57.5316768,20.627167 L59.4294547,20.627167 L59.4294547,24.9454369 C58.8184065,25.1515658 58.1764693,25.2511581 57.5316768,25.2398644 C56.6169322,25.2808675 55.7268557,24.9367692 55.0776535,24.2911536 C54.4117047,23.3365424 54.0993088,22.1797379 54.1942052,21.019737 L54.1942052,17.7483204 C54.112655,16.589576 54.4238698,15.4371453 55.0776535,14.4769038 L55.0776535,14.4769038 Z" id="Shape" fill="#292F3A"></path>
                                </g>
                            </g>
                        </g>
                    </g>
                    <path d="M157.322,28.5 L154,12.308 L156.64,12.308 L158.158,20.734 L159.016,25.926 L159.104,25.926 C159.456,24.188 159.83,22.45 160.204,20.734 L162.294,12.308 L164.538,12.308 L166.65,20.734 C167.024,22.428 167.376,24.166 167.75,25.926 L167.86,25.926 C168.124,24.166 168.41,22.428 168.674,20.734 L170.214,12.308 L172.656,12.308 L169.466,28.5 L166.32,28.5 L164.142,19.502 C163.856,18.226 163.614,17.016 163.394,15.784 L163.284,15.784 C163.064,17.016 162.8,18.226 162.536,19.502 L160.402,28.5 L157.322,28.5 Z M174.718,28.5 L174.718,12.308 L184.288,12.308 L184.288,14.442 L177.27,14.442 L177.27,18.952 L183.21,18.952 L183.21,21.108 L177.27,21.108 L177.27,26.344 L184.53,26.344 L184.53,28.5 L174.718,28.5 Z M187.318,28.5 L187.318,12.308 L192.334,12.308 C195.656,12.308 198.054,13.364 198.054,16.29 C198.054,17.83 197.196,19.304 195.744,19.788 L195.744,19.898 C197.592,20.294 198.934,21.548 198.934,23.748 C198.934,26.96 196.316,28.5 192.73,28.5 L187.318,28.5 Z M189.87,19.062 L192.048,19.062 C194.512,19.062 195.546,18.138 195.546,16.62 C195.546,14.926 194.402,14.288 192.114,14.288 L189.87,14.288 L189.87,19.062 Z M189.87,26.498 L192.444,26.498 C194.974,26.498 196.426,25.596 196.426,23.616 C196.426,21.79 195.018,20.998 192.444,20.998 L189.87,20.998 L189.87,26.498 Z M205.638,28.786 C203.416,28.786 201.348,27.906 199.874,26.41 L201.37,24.65 C202.536,25.816 204.12,26.564 205.682,26.564 C207.64,26.564 208.74,25.64 208.74,24.276 C208.74,22.802 207.64,22.34 206.144,21.68 L203.9,20.712 C202.338,20.052 200.6,18.82 200.6,16.466 C200.6,13.914 202.844,12 205.924,12 C207.816,12 209.598,12.792 210.83,14.046 L209.488,15.674 C208.476,14.772 207.354,14.222 205.924,14.222 C204.274,14.222 203.196,15.014 203.196,16.312 C203.196,17.698 204.494,18.226 205.814,18.754 L208.036,19.7 C209.95,20.514 211.336,21.702 211.336,24.078 C211.336,26.674 209.18,28.786 205.638,28.786 Z M213.794,28.5 L213.794,12.308 L216.346,12.308 L216.346,28.5 L213.794,28.5 Z M223.292,28.5 L223.292,14.442 L218.54,14.442 L218.54,12.308 L230.618,12.308 L230.618,14.442 L225.844,14.442 L225.844,28.5 L223.292,28.5 Z M232.812,28.5 L232.812,12.308 L242.382,12.308 L242.382,14.442 L235.364,14.442 L235.364,18.952 L241.304,18.952 L241.304,21.108 L235.364,21.108 L235.364,26.344 L242.624,26.344 L242.624,28.5 L232.812,28.5 Z" id="WEBSITE" fill="#292F3A"></path>
                </g>
            </g>
        </g>
    </g>
</svg>