<?xml version="1.0" encoding="UTF-8"?>
<svg width="249px" height="106px" viewBox="0 0 249 106" version="1.1" xmlns="http://www.w3.org/2000/svg" xmlns:xlink="http://www.w3.org/1999/xlink">
    <!-- Generator: Sketch 54.1 (76490) - https://sketchapp.com -->
    <title>gmake</title>
    <desc>Created with Sketch.</desc>
    <g id="Page-1" stroke="none" stroke-width="1" fill="none" fill-rule="evenodd">
        <g id="首页" transform="translate(-909.000000, -3033.000000)" fill="#FFFFFF">
            <g id="编组-7" transform="translate(730.000000, 2900.000000)">
                <g id="gmake" transform="translate(179.000000, 133.000000)">
                    <path d="M45.2700591,12.3313716 C47.5674936,5.17564667 54.2413628,-1.12230973e-13 62.1163922,-1.13686838e-13 L62.1163922,40.0803705 C62.1163922,57.2970862 48.2481217,71.2539919 31.140743,71.2539919 C14.0333643,71.2539919 0.165093697,57.2970862 0.165093697,40.0803705 C0.165093697,22.8636547 14.0333643,8.90674899 31.140743,8.90674899 C36.2305473,8.90674899 41.0336299,10.1421968 45.2700591,12.3313716 Z M31.140743,26.720247 C23.8090092,26.720247 17.8654647,32.701778 17.8654647,40.0803705 C17.8654647,47.4589629 23.8090092,53.440494 31.140743,53.440494 C38.4724767,53.440494 44.4160212,47.4589629 44.4160212,40.0803705 C44.4160212,32.701778 38.4724767,26.720247 31.140743,26.720247 Z M13.123571,84.1830097 L61.2095739,71.2160557 C63.739697,80.718953 58.1360695,90.4867523 48.6935216,93.033046 L0.607518637,106 C-1.92260446,96.4971026 3.68102306,86.7293034 13.123571,84.1830097 Z M120.50486,60.4949495 C120.50486,61.0768555 120.042291,61.3678085 119.521902,61.3678085 L113.681975,61.3678085 C113.161586,61.3678085 112.756838,60.7859025 112.756838,60.2039965 L112.756838,33.1453667 C112.756838,32.7380325 112.699017,32.5634607 112.583375,32.5634607 C112.525554,32.5634607 112.409912,32.7380325 112.29427,32.9126043 L106.743449,44.0270092 C106.396522,44.6671058 105.644849,45.0162495 104.893175,45.0162495 L99.0532485,45.0162495 C98.3015748,45.0162495 97.5499011,44.6671058 97.2029748,44.0270092 L91.5943325,32.9126043 C91.4786904,32.7380325 91.3630483,32.5634607 91.3052272,32.5634607 C91.1895851,32.5634607 91.131764,32.7380325 91.131764,33.1453667 L91.131764,60.2039965 C91.131764,60.7859025 90.7270167,61.3678085 90.2066272,61.3678085 L84.3667007,61.3678085 C83.8463112,61.3678085 83.3837427,61.0768555 83.3837427,60.4949495 L83.3837427,20.4598155 C83.3837427,19.1796223 84.4245217,18.1321915 85.6965849,18.1321915 L90.4379114,18.1321915 C91.3630483,18.1321915 92.172543,18.7140975 92.5772904,19.5287659 L101.30827,37.33509 C101.597375,37.8588054 101.713017,38.1497585 101.944301,38.1497585 C102.175585,38.1497585 102.291228,37.8588054 102.580333,37.33509 L111.311312,19.5287659 C111.716059,18.7140975 112.525554,18.1321915 113.450691,18.1321915 L118.192018,18.1321915 C119.464081,18.1321915 120.50486,19.1796223 120.50486,20.4598155 L120.50486,60.4949495 Z M159.649714,60.2039965 C159.649714,60.8440931 159.187145,61.3678085 158.551114,61.3678085 L152.711187,61.3678085 C152.075156,61.3678085 151.670408,60.8440931 151.670408,60.2039965 L151.670408,44.8416776 L137.215144,44.8416776 L137.215144,60.2039965 C137.215144,60.8440931 136.752576,61.3678085 136.116544,61.3678085 L130.276618,61.3678085 C129.640586,61.3678085 129.178018,60.8440931 129.178018,60.2039965 L129.178018,30.2358366 C129.178018,20.4598155 134.439734,17.8412385 142.419039,17.8412385 L146.408692,17.8412385 C154.387998,17.8412385 159.649714,20.4598155 159.649714,30.2358366 L159.649714,60.2039965 Z M151.670408,38.0333773 L151.670408,30.2358366 C151.670408,26.1624945 150.513987,24.8823013 146.408692,24.8823013 L142.419039,24.8823013 C138.371566,24.8823013 137.215144,26.1624945 137.215144,30.2358366 L137.215144,38.0333773 L151.670408,38.0333773 Z M199.546241,60.8440931 C199.546241,61.1932367 199.257136,61.3678085 198.678925,61.3678085 L190.930904,61.3678085 C190.237052,61.3678085 189.890125,61.1932367 189.60102,60.7277119 L176.359998,40.8847167 L176.359998,60.2039965 C176.359998,60.8440931 175.839609,61.3678085 175.203577,61.3678085 L169.479293,61.3678085 C168.843261,61.3678085 168.322872,60.8440931 168.322872,60.2039965 L168.322872,19.2960035 C168.322872,18.6559069 168.843261,18.1903821 169.479293,18.1903821 L175.203577,18.1903821 C175.839609,18.1903821 176.359998,18.6559069 176.359998,19.2960035 L176.359998,37.8006148 L190.526157,18.6559069 C190.815262,18.2485727 191.220009,18.1903821 191.856041,18.1903821 L198.447641,18.1903821 C199.199315,18.1903821 199.546241,18.4813351 199.546241,18.8886693 C199.546241,19.1796223 199.372778,19.5287659 199.141494,19.8197189 L184.339304,39.0808081 L199.257136,60.1458059 C199.430599,60.4367589 199.546241,60.6695213 199.546241,60.8440931 Z M231.000895,59.7966623 C231.000895,60.6113307 230.71179,60.9022837 229.844474,61.0186649 C227.9942,61.3096179 225.739179,61.8333333 218.858473,61.8333333 C211.341736,61.8333333 205.50181,59.7966623 205.50181,49.90426 L205.50181,29.59574 C205.50181,19.7033377 211.341736,17.6666667 218.858473,17.6666667 C225.739179,17.6666667 227.9942,18.1903821 229.844474,18.4813351 C230.71179,18.5977163 231.000895,18.8886693 231.000895,19.7033377 L231.000895,23.4275362 C231.000895,24.0676329 230.480505,24.5913483 229.844474,24.5913483 L218.048979,24.5913483 C214.695358,24.5913483 213.481115,25.7551603 213.481115,29.59574 L213.481115,35.880325 L229.150621,35.880325 C229.786653,35.880325 230.307042,36.4040404 230.307042,37.044137 L230.307042,41.2338603 C230.307042,41.873957 229.786653,42.3976724 229.150621,42.3976724 L213.481115,42.3976724 L213.481115,49.90426 C213.481115,53.7448397 214.695358,54.9086517 218.048979,54.9086517 L229.844474,54.9086517 C230.480505,54.9086517 231.000895,55.4323671 231.000895,56.0724638 L231.000895,59.7966623 Z M101.377077,81.1606667 L101.377077,90.0293333 L100.0956,90.0293333 L100.0956,81.0193333 C99.5163026,82.8213333 98.7439059,84.4466667 97.7959644,85.8953333 L97.2517757,84.4996667 C98.5332522,82.7683333 99.4460848,80.8073333 100.007828,78.5813333 L97.5326473,78.5813333 L97.5326473,77.3623333 L100.0956,77.3623333 L100.0956,73.9173333 L101.377077,73.9173333 L101.377077,77.3623333 L103.483613,77.3623333 L103.483613,78.5813333 L101.377077,78.5813333 L101.377077,79.7473333 C102.149473,80.613 102.939425,81.5846667 103.74693,82.6446667 L102.992088,83.7576667 C102.360127,82.6976667 101.833493,81.832 101.377077,81.1606667 Z M105.08107,75.843 L103.07986,75.843 L103.07986,74.624 L111.312908,74.624 L111.312908,75.4366667 C110.961818,77.009 110.628284,78.3693333 110.277194,79.5 L112.559275,79.5 L112.559275,80.2066667 C112.190632,82.627 111.383126,84.6763333 110.154313,86.337 C111.0847,87.3086667 112.155523,88.1743333 113.384336,88.9516667 L112.57683,90.0293333 C111.330462,89.2166667 110.25964,88.3156667 109.346807,87.3086667 C108.293539,88.4216667 107.012062,89.3403333 105.502378,90.0646667 L104.800199,88.8986667 C106.274774,88.1743333 107.503587,87.291 108.486638,86.2486667 C107.43337,84.8353333 106.643418,83.2453333 106.09923,81.4963333 C105.660368,85.1886667 104.624654,88.0153333 102.992088,89.9763333 L102.026592,89.1283333 C104.027802,86.7256667 105.045961,82.8566667 105.08107,77.5566667 L105.08107,75.843 Z M109.259035,85.3123333 C110.25964,83.9696667 110.944264,82.3973333 111.295353,80.613 L108.767509,80.613 C109.118599,79.5353333 109.522352,77.9453333 109.978768,75.843 L106.327438,75.843 L106.327438,77.5566667 C106.327438,77.804 106.309883,78.0336667 106.309883,78.2633333 C106.731191,80.984 107.714241,83.3336667 109.259035,85.3123333 Z M141.015075,79.0936667 C140.383114,79.8003333 139.716044,80.4363333 139.013865,80.984 L138.346795,79.9593333 C140.312896,78.4223333 141.840135,76.426 142.893403,73.9703333 L144.051998,73.9703333 C144.929722,76.2316667 146.474516,78.1926667 148.65127,79.8886667 L147.966646,80.9486667 C147.211803,80.3656667 146.544734,79.7473333 145.947881,79.0936667 L145.947881,80.189 L141.015075,80.189 L141.015075,79.0936667 Z M145.895218,79.023 C144.877059,77.857 144.069553,76.585 143.472701,75.207 C142.770522,76.691 141.980571,77.963 141.067738,79.023 L145.895218,79.023 Z M138.855875,88.2626667 L144.561078,88.2626667 C145.228148,86.39 145.825,84.058 146.351634,81.2843333 L147.562893,81.5846667 C147.071368,84.0933333 146.49207,86.3193333 145.789891,88.2626667 L148.440617,88.2626667 L148.440617,89.4816667 L138.855875,89.4816667 L138.855875,88.2626667 Z M140.470886,81.7966667 C141.032629,83.263 141.524155,84.959 141.980571,86.867 L140.892194,87.132 C140.505995,85.4006667 139.996915,83.7576667 139.382509,82.1676667 L140.470886,81.7966667 Z M143.174275,81.2843333 C143.648246,82.68 144.069553,84.2876667 144.455751,86.1073333 L143.34982,86.3723333 C143.033839,84.7293333 142.612532,83.1393333 142.085898,81.62 L143.174275,81.2843333 Z M136.889774,75.8783333 L132.641592,75.8783333 L132.641592,74.7123333 L138.153696,74.7123333 L137.311081,81.991 L138.399458,81.991 C138.399458,86.019 138.223914,88.3333333 137.890379,88.9516667 C137.539289,89.5523333 136.819556,89.8703333 135.713624,89.8703333 C135.309871,89.8703333 134.888564,89.8526667 134.467257,89.8173333 L134.133722,88.6866667 C134.748128,88.7573333 135.18699,88.7926667 135.432753,88.7926667 C136.275367,88.7926667 136.784447,88.51 136.959992,87.98 C137.135536,87.4146667 137.240863,85.807 137.240863,83.1216667 L132.764473,83.1216667 L133.589533,77.062 L134.748128,77.1326667 L134.045949,81.991 L136.117377,81.991 L136.889774,75.8783333 Z M136.240258,84.694 L136.240258,85.8423333 C135.081663,86.284 133.782632,86.6373333 132.325611,86.92 L132.167621,85.7186667 C133.712414,85.4536667 135.081663,85.118 136.240258,84.694 Z M169.505983,77.327 C169.190003,78.0336667 168.821359,78.6166667 168.400051,79.076 L167.381892,78.334 C168.259616,77.38 168.821359,76.0726667 169.067121,74.3943333 L170.260825,74.5886667 C170.173053,75.154 170.067726,75.6663333 169.92729,76.1433333 L171.963609,76.1433333 L171.963609,73.9526667 L173.227531,73.9526667 L173.227531,76.1433333 L176.510218,76.1433333 L176.510218,77.327 L173.227531,77.327 L173.227531,79.606 L177.019297,79.606 L177.019297,80.7896667 L173.227531,80.7896667 L173.227531,82.6446667 L176.650653,82.6446667 L176.650653,87.3086667 C176.650653,88.351 176.124019,88.881 175.070751,88.881 L174.140364,88.881 L173.824383,87.6796667 L174.684552,87.7326667 C175.176078,87.7326667 175.439395,87.503 175.439395,87.0436667 L175.439395,83.8283333 L173.227531,83.8283333 L173.227531,90.1176667 L171.963609,90.1176667 L171.963609,83.8283333 L169.734191,83.8283333 L169.734191,89.0046667 L168.505378,89.0046667 L168.505378,82.6446667 L171.963609,82.6446667 L171.963609,80.7896667 L167.715427,80.7896667 L167.715427,79.606 L171.963609,79.606 L171.963609,77.327 L169.505983,77.327 Z M178.055011,75.5426667 L179.283824,75.5426667 L179.283824,86.4606667 L178.055011,86.4606667 L178.055011,75.5426667 Z M181.267479,89.941 L178.686972,89.941 L178.406101,88.722 C179.248715,88.775 180.056221,88.8103333 180.828618,88.8103333 C181.355252,88.8103333 181.636123,88.5276667 181.636123,87.9623333 L181.636123,73.9526667 L182.882491,73.9526667 L182.882491,88.2803333 C182.882491,89.3756667 182.338302,89.941 181.267479,89.941 Z M204.105848,74.041 C205.299552,75.0126667 206.282602,75.9843333 207.090108,76.956 L206.212384,77.8393333 C205.492651,76.9206667 204.509601,75.9136667 203.245679,74.8536667 L204.105848,74.041 Z M214.287442,89.782 C213.3395,89.782 212.286232,89.7643333 211.162746,89.7466667 C210.039259,89.729 209.108872,89.623 208.406693,89.4286667 C207.722069,89.2166667 207.107662,88.775 206.563474,88.139 C206.317711,87.8386667 206.089503,87.6973333 205.878849,87.6973333 C205.439988,87.6973333 204.737809,88.51 203.754758,90.1706667 L202.806817,89.305 C203.754758,87.8033333 204.579818,86.8846667 205.317106,86.5666667 L205.317106,81.196 L202.824371,81.196 L202.824371,80.03 L206.493256,80.03 L206.493256,86.6373333 C206.633692,86.7433333 206.774128,86.8846667 206.914563,87.0436667 C207.335871,87.556 207.792287,87.927 208.283812,88.1566667 C208.828001,88.404 209.617952,88.5453333 210.67122,88.5806667 C211.584053,88.5983333 212.742648,88.616 214.111897,88.616 C214.954512,88.616 215.814681,88.5983333 216.692404,88.5806667 C217.552573,88.563 218.219643,88.5453333 218.693614,88.51 L218.377634,89.782 L214.287442,89.782 Z M210.039259,77.221 C209.740833,77.857 209.407298,78.4576667 209.038654,79.0053333 L207.985386,78.3516667 C208.828001,77.1326667 209.459962,75.7723333 209.84616,74.2883333 L210.987201,74.5356667 C210.846765,75.0656667 210.688775,75.5603333 210.51323,76.0373333 L212.742648,76.0373333 L212.742648,73.9173333 L213.953907,73.9173333 L213.953907,76.0373333 L217.552573,76.0373333 L217.552573,77.221 L213.953907,77.221 L213.953907,79.5176667 L218.465406,79.5176667 L218.465406,80.6836667 L207.722069,80.6836667 L207.722069,79.5176667 L212.742648,79.5176667 L212.742648,77.221 L210.039259,77.221 Z M209.231754,82.097 L217.096157,82.097 L217.096157,87.0613333 L209.231754,87.0613333 L209.231754,82.097 Z M215.867344,85.8776667 L215.867344,83.2806667 L210.460567,83.2806667 L210.460567,85.8776667 L215.867344,85.8776667 Z" id="形状结合"></path>
                    <path d="M240.234577,2.16509646 C240.234577,2.29587259 240.128258,2.37909376 239.998312,2.37909376 L237.930996,2.37909376 L237.930996,9.59555855 C237.930996,9.72633468 237.824677,9.83333333 237.694731,9.83333333 L236.52522,9.83333333 C236.395275,9.83333333 236.288956,9.72633468 236.288956,9.59555855 L236.288956,2.37909376 L234.221639,2.37909376 C234.091693,2.37909376 233.985374,2.29587259 233.985374,2.16509646 L233.985374,1.22588605 C233.985374,1.09510991 234.091693,1 234.221639,1 L239.998312,1 C240.128258,1 240.234577,1.09510991 240.234577,1.22588605 L240.234577,2.16509646 Z M249,9.65500224 C249,9.77388964 248.905494,9.83333333 248.799175,9.83333333 L247.606038,9.83333333 C247.499719,9.83333333 247.417026,9.71444594 247.417026,9.59555855 L247.417026,4.06729475 C247.417026,3.98407358 247.405213,3.94840736 247.381586,3.94840736 C247.369773,3.94840736 247.346147,3.98407358 247.32252,4.01973979 L246.188449,6.29048901 C246.11757,6.42126514 245.963998,6.49259758 245.810426,6.49259758 L244.617289,6.49259758 C244.463716,6.49259758 244.310144,6.42126514 244.239265,6.29048901 L243.093381,4.01973979 C243.069754,3.98407358 243.046128,3.94840736 243.034315,3.94840736 C243.010688,3.94840736 242.998875,3.98407358 242.998875,4.06729475 L242.998875,9.59555855 C242.998875,9.71444594 242.916182,9.83333333 242.809863,9.83333333 L241.616726,9.83333333 C241.510407,9.83333333 241.415901,9.77388964 241.415901,9.65500224 L241.415901,1.47554957 C241.415901,1.21399731 241.628539,1 241.888431,1 L242.857116,1 C243.046128,1 243.211513,1.11888739 243.294206,1.28532974 L245.078005,4.92328398 C245.137071,5.03028264 245.160698,5.08972633 245.20795,5.08972633 C245.255203,5.08972633 245.27883,5.03028264 245.337896,4.92328398 L247.121695,1.28532974 C247.204388,1.11888739 247.369773,1 247.558785,1 L248.52747,1 C248.787362,1 249,1.21399731 249,1.47554957 L249,9.65500224 Z" id="TM-Copy-2"></path>
                </g>
            </g>
        </g>
    </g>
</svg>