<?xml version="1.0" encoding="UTF-8"?>
<svg width="12px" height="12px" viewBox="0 0 12 12" version="1.1" xmlns="http://www.w3.org/2000/svg" xmlns:xlink="http://www.w3.org/1999/xlink">
    <!-- Generator: Sketch 54.1 (76490) - https://sketchapp.com -->
    <title>np_switch_1586564_000000</title>
    <desc>Created with Sketch.</desc>
    <g id="Page-1" stroke="none" stroke-width="1" fill="none" fill-rule="evenodd">
        <g id="首页" transform="translate(-1308.000000, -27.000000)" fill="#9FA5AF" fill-rule="nonzero">
            <g id="编组-12" transform="translate(1281.000000, 23.000000)">
                <g id="np_switch_1586564_000000" transform="translate(33.000000, 10.000000) rotate(90.000000) translate(-33.000000, -10.000000) translate(27.000000, 4.000000)">
                    <path d="M7.86941905,3.99423194 C7.96316952,3.99423194 8.0531981,3.95872103 8.11941905,3.89551012 C8.18564,3.83229921 8.2228419,3.74636285 8.2228419,3.65687376 L8.2228419,2.70587376 C8.2228419,2.61638467 8.18564,2.5311574 8.11941905,2.46794649 C8.0531981,2.40473558 7.96316952,2.36922467 7.86941905,2.36922467 L3.57989524,2.36922467 L3.57989524,0.452315577 C3.57915124,0.266951941 3.46010286,0.100751941 3.27930476,0.0318610316 C3.09850095,-0.0363207866 2.89240952,0.00700284974 2.75846667,0.141946486 L0.151228571,2.77049194 C-0.0504095238,2.9750374 -0.0504095238,3.29321921 0.151228571,3.49776467 L2.75465714,6.12631012 C2.88858476,6.26125376 3.09469524,6.3045774 3.27475238,6.23639558 C3.45555619,6.16750285 3.5746,6.00130467 3.57608571,5.81594103 L3.57608571,3.99412285 L7.86941905,3.99423194 Z" id="路径"></path>
                    <path d="M11.8179905,8.40695921 L9.2145619,5.77841376 C9.08063429,5.64347012 8.87452381,5.60014649 8.69446667,5.6683283 C8.51366286,5.73722103 8.39461905,5.90341921 8.39313333,6.08878285 L8.39313333,7.91060103 L4.09999048,7.91060103 C3.90505714,7.91060103 3.7465619,8.06187921 3.7465619,8.24796467 L3.7465619,9.20251012 C3.7465619,9.29199921 3.78376381,9.37793558 3.84998476,9.44114649 C3.91620571,9.5043574 4.00623429,9.5398683 4.09998476,9.5398683 L8.38950857,9.5398683 L8.38950857,11.4525956 C8.39025257,11.6379592 8.50930095,11.8041592 8.69009905,11.8730501 C8.87090286,11.9412319 9.07699429,11.8979083 9.21093714,11.7629647 L11.8181752,9.13441921 C12.0198133,8.92987376 12.0198133,8.61169194 11.8181752,8.40714649 L11.8179905,8.40695921 Z" id="路径"></path>
                </g>
            </g>
        </g>
    </g>
</svg>