<?xml version="1.0" encoding="UTF-8"?>
<svg width="23px" height="20px" viewBox="0 0 23 20" version="1.1" xmlns="http://www.w3.org/2000/svg" xmlns:xlink="http://www.w3.org/1999/xlink">
    <!-- Generator: Sketch 54.1 (76490) - https://sketchapp.com -->
    <title>形状结合</title>
    <desc>Created with Sketch.</desc>
    <g id="Page-1" stroke="none" stroke-width="1" fill="none" fill-rule="evenodd">
        <g id="首页" transform="translate(-1297.000000, -23.000000)" fill="#9FA5AF" fill-rule="nonzero">
            <path d="M1317.02843,23 C1318.66939,23 1320,24.350764 1320,26.0166095 L1320,38.0293336 C1320,39.6951527 1318.66939,41.0459167 1317.02843,41.0459167 L1311.89422,41.0459167 C1311.73901,41.0459167 1311.59374,41.1062526 1311.48479,41.2168728 L1308.90612,42.8290835 C1308.68161,43.0569722 1308.31512,43.0569722 1308.09058,42.8290835 L1305.34353,41.0459167 L1299.97157,41.0459167 C1298.33061,41.0459167 1297,39.6951527 1297,38.0293336 L1297,26.0166095 C1297,24.350764 1298.33061,23 1299.97157,23 L1317.02843,23 Z M1302.15479,36.2283339 L1307.37337,36.2283339 L1307.37337,34.8254427 L1303.81576,34.8254427 L1303.81576,32.5853421 L1306.73368,32.5853421 L1306.73368,31.1824508 L1303.81576,31.1824508 L1303.81576,29.2478185 L1307.24992,29.2478185 L1307.24992,27.8562409 L1302.15479,27.8562409 L1302.15479,36.2283339 Z M1308.6827,36.2283339 L1310.25388,36.2283339 L1310.25388,32.8681831 C1310.25388,31.9065238 1310.13043,30.8543553 1310.05187,29.9492642 L1310.10799,29.9492642 L1310.9497,31.7481328 L1313.35137,36.2283339 L1315.03479,36.2283339 L1315.03479,27.8562409 L1313.4636,27.8562409 L1313.4636,31.1937645 C1313.4636,32.1441102 1313.58705,33.2528468 1313.67683,34.123997 L1313.62072,34.123997 L1312.79023,32.3138148 L1310.37734,27.8562409 L1308.6827,27.8562409 L1308.6827,36.2283339 Z" id="形状结合"></path>
        </g>
    </g>
</svg>