<?xml version="1.0" encoding="UTF-8"?>
<svg width="23px" height="20px" viewBox="0 0 23 20" version="1.1" xmlns="http://www.w3.org/2000/svg" xmlns:xlink="http://www.w3.org/1999/xlink">
    <!-- Generator: Sketch 55.2 (78181) - https://sketchapp.com -->
    <title>形状结合</title>
    <desc>Created with Sketch.</desc>
    <g id="Index" stroke="none" stroke-width="1" fill="none" fill-rule="evenodd">
        <g id="首页" transform="translate(-1340.000000, -23.000000)" fill="#9FA5AF" fill-rule="nonzero">
            <path d="M1360.02843,23 C1361.66939,23 1363,24.350764 1363,26.0166095 L1363,38.0293336 C1363,39.6951527 1361.66939,41.0459167 1360.02843,41.0459167 L1354.89422,41.0459167 C1354.73901,41.0459167 1354.59374,41.1062526 1354.48479,41.2168728 L1351.90612,42.8290835 C1351.68161,43.0569722 1351.31512,43.0569722 1351.09058,42.8290835 L1348.34353,41.0459167 L1342.97157,41.0459167 C1341.33061,41.0459167 1340,39.6951527 1340,38.0293336 L1340,26.0166095 C1340,24.350764 1341.33061,23 1342.97157,23 L1360.02843,23 Z M1348.13172,36.2882874 C1349.18772,36.2882874 1350.05672,35.8702874 1350.72772,35.0892874 L1349.86972,34.0772874 C1349.42972,34.5502874 1348.87972,34.8802874 1348.18672,34.8802874 C1346.89972,34.8802874 1346.06372,33.8132874 1346.06372,32.0422874 C1346.06372,30.2932874 1346.98772,29.2372874 1348.21972,29.2372874 C1348.83572,29.2372874 1349.30872,29.5232874 1349.71572,29.9192874 L1350.57372,28.8852874 C1350.04572,28.3352874 1349.22072,27.8402874 1348.18672,27.8402874 C1346.12972,27.8402874 1344.40272,29.4132874 1344.40272,32.0972874 C1344.40272,34.8142874 1346.07472,36.2882874 1348.13172,36.2882874 Z M1351.73672,36.1342874 L1353.27672,36.1342874 L1353.27672,32.8672874 C1353.27672,31.9322874 1353.15572,30.9092874 1353.07872,30.0292874 L1353.13372,30.0292874 L1353.95872,31.7782874 L1356.31272,36.1342874 L1357.96272,36.1342874 L1357.96272,27.9942874 L1356.42272,27.9942874 L1356.42272,31.2392874 C1356.42272,32.1632874 1356.54372,33.2412874 1356.63172,34.0882874 L1356.57672,34.0882874 L1355.76272,32.3282874 L1353.39772,27.9942874 L1351.73672,27.9942874 L1351.73672,36.1342874 Z" id="形状结合"></path>
        </g>
    </g>
</svg>