<?xml version="1.0" encoding="UTF-8"?>
<svg width="10px" height="10px" viewBox="0 0 10 10" version="1.1" xmlns="http://www.w3.org/2000/svg" xmlns:xlink="http://www.w3.org/1999/xlink">
    <!-- Generator: Sketch 54.1 (76490) - https://sketchapp.com -->
    <title>link</title>
    <desc>Created with Sketch.</desc>
    <g id="Page-1" stroke="none" stroke-width="1" fill="none" fill-rule="evenodd">
        <g id="首页" transform="translate(-490.000000, -1409.000000)" fill="#ffffff" fill-rule="nonzero">
            <g id="Group" transform="translate(120.000000, 1140.000000)">
                <g id="编组-3" transform="translate(276.000000, 251.000000)">
                    <path d="M100.697426,19.1766 C100.375644,19.1766 100.11497,18.91332 100.11497,18.58832 C100.11497,18.26371 100.375644,18.00004 100.697426,18.00004 L103.318515,18.00004 C103.639911,18.00004 103.90097,18.26371 103.90097,18.58832 L103.90097,21.23562 C103.90097,21.56023 103.640297,21.8239 103.318515,21.8239 C102.997119,21.8239 102.736059,21.56062 102.736059,21.23562 L102.736059,20.00832 L99.362,23.41612 C99.1345842,23.64581 98.7660099,23.64581 98.5385941,23.41612 C98.3111782,23.18643 98.3111782,22.81417 98.5385941,22.58448 L101.912653,19.17708 L100.697802,19.17708 L100.697426,19.1766 Z M102.73604,23.5883 C102.73604,23.2633 102.996713,23.00002 103.318495,23.00002 C103.639891,23.00002 103.90095,23.2633 103.90095,23.5883 L103.90095,27.4117 C103.90095,27.73631 103.640277,27.99998 103.318495,27.99998 L94.5824554,27.99998 C94.2610594,27.99998 94,27.7367 94,27.4117 L94,18.5883 C94,18.26369 94.2606733,18.00002 94.5824554,18.00002 L98.368,18.00002 C98.6897822,18.00002 98.9504554,18.2633 98.9504554,18.5883 C98.9504554,18.9133 98.6897822,19.17658 98.368,19.17658 L95.1648317,19.17658 L95.1648317,26.82348 L102.73602,26.82348 L102.73604,23.5883 Z" id="link"></path>
                </g>
            </g>
        </g>
    </g>
</svg>