<?xml version="1.0" encoding="UTF-8"?>
<svg width="180px" height="121px" viewBox="0 0 180 121" version="1.1" xmlns="http://www.w3.org/2000/svg" xmlns:xlink="http://www.w3.org/1999/xlink">
    <!-- Generator: Sketch 54.1 (76490) - https://sketchapp.com -->
    <title>logo_banner</title>
    <desc>Created with Sketch.</desc>
    <g id="Page-1" stroke="none" stroke-width="1" fill="none" fill-rule="evenodd">
        <g id="首页" transform="translate(-630.000000, -161.000000)">
            <g id="Group-2">
                <g id="logo_banner" transform="translate(630.000000, 161.000000)">
                    <path d="M98.8605342,30.3559819 C99.0020806,31.012609 100.74782,32.9943431 101.255028,33.4328847 L101.639562,33.764754 C102.149129,34.1985547 102.955944,34.1321808 103.49382,33.7363081 C105.996833,31.8896923 108.17193,29.3342984 109.88936,26.9898786 C109.924746,23.7351886 103.585826,17.2092152 100.224098,14.824497 C99.650835,14.4831457 99.0822902,14.7936806 98.9973624,15.4621602 C98.2967076,21.0304536 97.8461181,25.6007684 98.8605342,30.3559819 M95.0765265,1.67535988 C94.9231845,1.02110319 94.4796724,0.805388125 93.8191224,0.904948925 C90.1459927,1.45727432 87.1900316,2.13286546 85.7509763,2.53347916 C85.1092992,2.7112663 84.6823008,3.53619865 84.8120517,4.19756682 C86.5719455,13.1793733 90.28518,19.9803242 94.1493974,25.4253517 C94.5386501,25.9729361 94.9538529,25.8733753 95.0576536,25.2072662 C96.5250182,15.4076388 96.1310473,7.347955 95.0765265,1.67535988 M107.950174,1.32215609 C108.273371,0.734273267 107.945455,0.189059361 107.277828,0.148760942 C105.161709,0.0183837032 103.003126,-0.0195442208 101.047426,0.00890172219 C100.379799,0.0183837032 99.2686597,0.573079591 99.1813727,1.23918875 C98.8746888,3.60020202 98.7732472,6.56095058 98.966694,9.20642328 C99.0138761,9.87727343 100.021215,10.1498804 100.587401,9.7943061 C104.177961,6.88333794 105.513216,5.23347324 107.950174,1.32215609 M120.807307,1.71802879 C121.451343,1.89581594 121.880701,2.7112663 121.741513,3.36789349 C121.1423,6.16270738 119.295119,12.9683992 114.430641,21.080234 C114.083852,21.6538938 113.069436,21.8506449 112.517405,21.4761067 C109.622781,20.1438883 104.661578,15.5735735 103.541003,13.2765636 C103.241396,12.6768283 103.241396,12.06287 103.486743,11.4394298 C105.996833,7.35743698 110.259739,4.09800602 113.56013,1.64454344 C114.08857,1.23444776 115.1195,0.791165153 115.770614,0.938135859 C116.799184,1.17044439 119.766941,1.42882837 120.807307,1.71802879 Z M65.229104,21.30069 C68.0836236,22.8391414 71.2424679,25.1266693 73.7478396,28.030526 C74.1842744,28.537812 74.5640906,29.5120856 74.6065546,30.1829357 C74.8070787,33.4565896 74.8967247,37.1450802 73.6416798,40.6320787 C73.4128464,41.2626305 72.6484957,41.7248771 71.9832275,41.6703557 C65.5853292,41.1512172 60.6571546,39.9801926 58.5622675,39.3970507 C57.9182313,39.2192636 57.493592,38.3943312 57.6233429,37.7329631 C58.8359239,31.5412295 61.0346117,26.3332514 63.5494198,21.807976 C63.8749766,21.2224637 64.6393273,20.9854142 65.229104,21.30069 Z M84.8309245,18.1479313 C83.6419346,19.9613602 79.5323701,23.8560839 76.0880738,24.282773 C71.9454818,24.2638091 67.9515136,19.7385337 67.2461406,18.1360789 C66.8710426,17.5790125 66.9300202,16.7114112 67.3475822,16.1875318 C70.6550503,12.0344241 73.691221,9.2467217 75.1750994,7.98324773 C75.6846665,7.5494471 76.5292268,7.56604057 77.0293575,8.01169367 C79.9947551,10.6500549 82.6440323,13.4187933 84.8002561,16.1922728 C85.2107408,16.7208932 85.2272545,17.6050879 84.8309245,18.1479313 Z M93.6185983,39.4231262 C89.0206987,40.6960821 84.4086444,41.3977487 80.2165111,41.7177656 C79.5488838,41.767546 78.8977703,41.255519 78.6099592,40.6486722 C77.7205759,38.766499 77.2982957,33.6533407 77.6804711,30.1853062 C77.6969848,29.5120856 78.0555691,28.5401825 78.4825675,28.0234145 C80.7992106,25.2262301 83.3093005,22.9031448 86.6238459,21.2437981 C87.2207,20.9451157 87.992128,21.2058702 88.3176848,21.7913825 C92.3493987,29.0782849 94.0031328,35.2036446 94.5504456,37.770891 C94.691992,38.4275182 94.2626345,39.2429685 93.6185983,39.4231262 Z" id="Combined-Shape" fill="#FFFFFF"></path>
                    <g id="-YORKUN-" transform="translate(28.800000, 64.909091)" fill="#FFFFFF">
                        <path d="M7.95910317,13.1257506 L7.95910317,10.4045568 L0,10.4045568 L0,13.1257506 L7.95910317,13.1257506 Z M21.1802048,19.1550626 L21.1802048,11.1248728 L24.8821132,0.160062212 L22.0263553,0.160062212 L19.8580946,7.71004128 L19.8052102,7.71004128 L17.6369496,0.160062212 L14.7811916,0.160062212 L18.4831001,11.1248728 L18.4831001,19.1550626 L21.1802048,19.1550626 L21.1802048,19.1550626 Z M31.6777595,14.6730962 C31.659009,15.3789061 31.7944216,16.080233 32.0743925,16.7273308 C32.319619,17.2713813 32.6807595,17.7541663 33.1320807,18.1412844 C33.5498401,18.528247 34.0397097,18.8275145 34.5731807,19.0216707 C35.62263,19.4129428 36.7761225,19.4129428 37.8255717,19.0216707 C38.3652129,18.8238027 38.8630763,18.5251319 39.293114,18.1412844 C39.7311518,17.7479749 40.0824765,17.2662694 40.3243599,16.7273308 C40.6043308,16.080233 40.7397435,15.3789061 40.720993,14.6730962 L40.720993,4.64202858 C40.7344852,3.94529396 40.5992121,3.25378863 40.3243599,2.61447237 C40.0830567,2.05972064 39.7321587,1.56044465 39.293114,1.14716195 C38.8578049,0.77729412 38.3609301,0.488248994 37.8255717,0.293454069 C36.7761225,-0.0978180229 35.62263,-0.0978180229 34.5731807,0.293454069 C34.0440977,0.484532814 33.5552666,0.77411644 33.1320807,1.14716195 C32.6795289,1.55428413 32.3188452,2.05465368 32.0743925,2.61447237 C31.7995404,3.25378863 31.6642672,3.94529396 31.6777595,4.64202858 L31.6777595,14.6730962 L31.6777595,14.6730962 Z M34.3748642,4.64202858 C34.3296254,4.09978502 34.5287046,3.56579875 34.9169294,3.18805735 C35.6606027,2.56561906 36.7381498,2.56561906 37.4818231,3.18805735 C37.8700479,3.56579875 38.069127,4.09978502 38.0238883,4.64202858 L38.0238883,14.6730962 C38.069127,15.2153397 37.8700479,15.749326 37.4818231,16.1270674 C36.7381498,16.7495057 35.6606027,16.7495057 34.9169294,16.1270674 C34.5287046,15.749326 34.3296254,15.2153397 34.3748642,14.6730962 L34.3748642,4.64202858 L34.3748642,4.64202858 Z M52.4613312,2.72118585 C53.3956224,2.72118585 54.0302353,2.97018399 54.3651699,3.46818025 C54.5320128,3.75957941 54.6398658,4.08149414 54.6824763,4.41526243 C54.7882569,5.25670687 54.7882569,6.10826326 54.6824763,6.9497077 C54.6428951,7.27204459 54.5442647,7.58414838 54.3916121,7.87011151 C54.2306863,8.12161633 54.0011157,8.32081038 53.730557,8.44369649 C53.3701607,8.59189205 52.9823838,8.66013165 52.5935422,8.64378427 L51.0598944,8.64378427 L51.0598944,2.72118585 L52.4613312,2.72118585 L52.4613312,2.72118585 Z M51.0598944,19.1550626 L51.0598944,11.0448377 L52.6728688,11.0448377 L55.1848782,19.1550626 L58.0406361,19.1550626 L55.1319937,10.4845919 C55.9288679,10.0755406 56.5666674,9.40855929 56.9432847,8.59042753 C57.3100262,7.68542488 57.4856402,6.71319281 57.4589076,5.73584181 C57.4589076,2.01754381 55.8723754,0.158950614 52.6993111,0.160062212 L48.3627897,0.160061714 L48.3627897,19.1550626 L51.0598944,19.1550626 Z M67.5862715,19.1550626 L67.5862715,13.4725695 L69.0405927,10.7246972 L72.1078882,19.1550626 L74.9636462,19.1550626 L70.6006826,7.76339802 L74.2761489,0.160062212 L71.5790442,0.160062212 L67.6391559,8.83053287 L67.5862715,8.83053287 L67.5862715,0.160062212 L64.8891667,0.160062212 L64.8891667,19.1550626 L67.5862715,19.1550626 Z M87.4443661,0.160062212 L87.4443661,14.6197394 C87.4899216,15.1618931 87.3185245,15.6998913 86.9684064,16.1137282 C86.3020629,16.7540091 85.2549517,16.7540091 84.5886082,16.1137282 C84.2384901,15.6998913 84.067093,15.1618931 84.1126485,14.6197394 L84.1126485,0.160062212 L81.4155438,0.160062212 L81.4155438,14.8865231 C81.409142,15.4780936 81.5262654,16.0643957 81.7592924,16.6072781 C81.9876084,17.1297571 82.3104248,17.6047357 82.7112117,18.0078926 C83.1099146,18.413331 83.5809015,18.739178 84.0994274,18.968314 C84.6289732,19.2009582 85.2009498,19.3191016 85.7785073,19.3151328 C86.3602415,19.3181435 86.9363406,19.2000783 87.4708083,18.968314 C87.9945873,18.741646 88.4703485,18.4156012 88.8722451,18.0078926 C89.271798,17.6065135 89.5905611,17.1308928 89.8109433,16.6072781 C90.035552,16.0622167 90.1480044,15.4767796 90.1414708,14.8865231 L90.1414708,0.160062212 L87.4443661,0.160062212 L87.4443661,0.160062212 Z M100.533257,19.1550626 L100.533257,7.73671965 L100.586141,7.73671965 L104.711125,19.1550626 L107.249576,19.1550626 L107.249576,0.160062212 L104.552472,0.160062212 L104.552472,11.6050835 L104.499587,11.6050835 L100.427488,0.160062212 L97.836152,0.160062212 L97.836152,19.1550626 L100.533257,19.1550626 L100.533257,19.1550626 Z M122.982687,13.1257506 L122.982687,10.4045568 L115.023584,10.4045568 L115.023584,13.1257506 L122.982687,13.1257506 Z" id="_-YORKUN-"></path>
                    </g>
                </g>
            </g>
        </g>
    </g>
</svg>