<?xml version="1.0" encoding="UTF-8"?>
<svg width="380px" height="340px" viewBox="0 0 380 340" version="1.1" xmlns="http://www.w3.org/2000/svg" xmlns:xlink="http://www.w3.org/1999/xlink">
    <g id="Page-1" stroke="none" stroke-width="1" fill="none" fill-rule="evenodd">
        <g id="首页" transform="translate(-530.000000, -340.000000)" fill="#FFE400">
            <g id="Group-2">
                <path d="M577.842475,780 L563.212475,780 L563.212475,442.184513 L544.63,387.773844 L544.63,394.481944 L544.63,780 L530,780 L530,442.184513 L530,340.028518 L544.63,340.028518 L563.212475,397.417925 L563.212475,340.028518 L577.842475,340.028518 L577.842475,780 Z M644.264575,780 L629.634575,780 L629.634575,364.485527 C629.634575,360.946196 629.0432,358.40928 627.14795,356.737006 C625.2527,355.064732 623.01545,354.62291 620.42575,354.62291 C617.83605,354.62291 615.598325,355.064732 613.703075,356.737006 C611.807825,358.40928 611.059225,361.012707 611.059225,364.547287 L611.059225,413.195261 L611.054475,413.195261 L611.054475,780 L596.424475,780 L596.424475,418.060058 C596.424475,418.012551 596.424475,417.969794 596.424475,417.927037 L596.424475,364.485527 C596.430039,360.722951 597.241329,357.005214 598.80375,353.582489 C600.066731,350.648444 601.931032,348.012002 604.276225,345.843471 L604.27765,345.843471 C606.496226,343.814913 609.084596,342.232603 611.9014,341.182957 C614.721,340.133035 617.56245,340.000013 620.42575,340.000013 C623.28905,340.000013 626.1324,340.133035 628.9501,341.182957 C631.767299,342.231498 634.355714,343.813934 636.573375,345.843471 C638.9203,348.011107 640.7857,350.647729 642.0487,353.582489 C643.43475,356.689499 644.06555,360.276337 644.06555,364.485527 L644.25555,415.561149 L644.264575,415.561149 L644.264575,780 Z M710.68525,780 L696.05525,780 L696.05525,442.132254 L696.043375,442.132254 L696.043375,398.505853 L695.765975,398.505853 L677.47325,438.63093 L677.47325,780 L662.84325,780 L662.84325,438.63093 L679.2526,401.280308 L657.765975,340.071275 L672.7375,340.071275 L688.81625,385.170417 L696.044325,370.409748 L696.044325,340.071275 L710.68525,340.028518 L710.68525,780 Z M777.1083,780 L762.4783,780 L762.4783,396.429763 L754.88685,396.548532 C752.391675,396.548532 750.80185,396.909591 749.32175,397.622208 C747.904816,398.283896 746.721078,399.358692 745.925975,400.705464 C744.996823,402.235005 744.374538,403.930958 744.0939,405.698532 C743.948581,406.875682 743.88383,408.061386 743.9001,409.247364 L743.8963,409.247364 L743.8963,780 L729.2663,780 L729.2663,413.385292 C729.259175,412.986227 729.25395,412.582411 729.25395,412.169093 C729.25395,406.244872 730.2828,401.156788 732.08495,396.909591 C733.886467,392.652894 737.051233,389.2355 741.57925,386.657411 L726.33175,340.071275 L741.301375,340.071275 L741.303275,340.071275 L754.47075,383.650168 L762.4783,383.612162 L762.4783,340.028518 L777.1083,340.028518 L777.1083,780 Z M843.52945,780 L828.89945,780 L828.89945,364.680308 C828.89945,361.145729 828.31045,358.604062 826.4152,356.931788 C824.51995,355.259514 822.27795,354.62291 819.69395,354.62291 C817.10995,354.62291 814.86415,355.259514 812.969375,356.931788 C811.0746,358.604062 810.325525,361.207489 810.325525,364.746819 L810.325525,413.195261 L810.3203,413.195261 L810.3203,780 L795.6903,780 L795.6903,418.060058 C795.6903,418.012551 795.6903,417.969794 795.6903,417.927037 L795.6903,364.680308 C795.695986,360.919224 796.507455,357.203028 798.07005,353.782022 C799.334125,350.847089 801.198413,348.209277 803.543,346.038253 L803.54395,346.038253 C805.763707,344.01267 808.351635,342.432144 811.167225,341.382489 C816.700536,339.53917 822.682139,339.53917 828.21545,341.382489 C831.032107,342.430241 833.620536,344.010974 835.8392,346.038253 C838.185466,348.208638 840.051117,350.846547 841.31595,353.782022 C842.6982,356.884281 843.32995,360.475869 843.32995,364.680308 L843.51995,415.561149 L843.52945,415.561149 L843.52945,780 Z M909.9525,780 L895.3225,780 L895.3225,442.184513 L886.03625,401.565355 L885.756,401.565355 L876.7405,442.184513 L876.7405,780 L862.1105,780 L862.1105,441.98498 L862.1675,441.98498 L878.91695,383.217847 L878.91695,340.028518 L892.94845,340.028518 L892.96745,383.217847 L910,442.132254 L909.9525,442.132254 L909.9525,780 Z" id="条形logo"></path>
            </g>
        </g>
    </g>
</svg>