<?xml version="1.0" encoding="UTF-8"?>
<svg width="138px" height="30px" viewBox="0 0 138 30" version="1.1" xmlns="http://www.w3.org/2000/svg" xmlns:xlink="http://www.w3.org/1999/xlink">
    <!-- Generator: Sketch 55.2 (78181) - https://sketchapp.com -->
    <title>OneLogin_logo</title>
    <desc>Created with Sketch.</desc>
    <defs>
        <ellipse id="path-1" cx="14.974359" cy="15" rx="14.974359" ry="15"></ellipse>
        <linearGradient x1="42.7120511%" y1="43.3789528%" x2="83.9850048%" y2="82.8494562%" id="linearGradient-3">
            <stop stop-color="#0053CD" offset="0%"></stop>
            <stop stop-color="#2684FF" offset="100%"></stop>
        </linearGradient>
        <path d="M5.20235124,26.3660982 L26.321028,5.21125938 C28.5818019,7.83845386 29.9487179,11.2593234 29.9487179,15 C29.9487179,23.2842712 23.2444691,30 14.974359,30 C11.2400767,30 7.8250548,28.6307434 5.20235124,26.3660982 Z" id="path-4"></path>
    </defs>
    <g id="Index" stroke="none" stroke-width="1" fill="none" fill-rule="evenodd">
        <g id="首页-英文版" transform="translate(-241.000000, -2137.000000)">
            <g id="Group" transform="translate(120.000000, 2020.000000)">
                <g id="OneLogin_logo" transform="translate(121.000000, 117.000000)">
                    <g id="Group-19" transform="translate(41.923077, 6.250000)" fill="#3A416F" fill-rule="nonzero">
                        <path d="M7.634,0 C10.032,0 11.924,0.77 13.31,2.332 C14.63,3.806 15.29,5.764 15.29,8.184 C15.29,10.604 14.63,12.54 13.31,14.014 C11.924,15.554 10.032,16.324 7.634,16.324 C5.214,16.324 3.322,15.532 1.958,13.992 C0.638,12.496 0,10.56 0,8.184 C0,5.786 0.638,3.85 1.958,2.354 C3.322,0.77 5.214,0 7.634,0 Z M7.634,2.266 C6.006,2.266 4.752,2.816 3.85,3.916 C2.992,4.972 2.574,6.38 2.574,8.184 C2.574,9.966 2.992,11.374 3.85,12.43 C4.73,13.508 6.006,14.058 7.634,14.058 C9.262,14.058 10.516,13.53 11.396,12.496 C12.254,11.462 12.694,10.032 12.694,8.184 C12.694,6.336 12.254,4.884 11.396,3.828 C10.516,2.772 9.262,2.266 7.634,2.266 Z M22.964,4.334 C25.802,4.334 27.232,5.874 27.232,8.998 L27.232,16.016 L24.724,16.016 L24.724,9.218 C24.724,7.348 23.866,6.424 22.15,6.424 C21.534,6.424 20.984,6.644 20.522,7.084 C19.994,7.568 19.686,8.272 19.598,9.174 L19.598,16.016 L17.09,16.016 L17.09,4.642 L19.598,4.642 L19.598,5.962 C20.038,5.434 20.544,5.016 21.094,4.752 C21.666,4.466 22.282,4.334 22.964,4.334 Z M34.312,4.334 C36.182,4.334 37.612,4.95 38.602,6.226 C39.504,7.37 39.966,8.976 39.966,11.022 L31.452,11.022 C31.54,12.078 31.826,12.892 32.31,13.442 C32.794,13.992 33.498,14.278 34.4,14.278 C35.17,14.278 35.786,14.102 36.27,13.75 C36.644,13.464 36.974,13.002 37.282,12.364 L39.79,12.364 C39.526,13.42 38.998,14.322 38.206,15.026 C37.194,15.884 35.94,16.324 34.422,16.324 C32.728,16.324 31.386,15.796 30.396,14.762 C29.34,13.684 28.812,12.21 28.812,10.318 C28.812,8.624 29.296,7.216 30.308,6.072 C31.276,4.906 32.618,4.334 34.312,4.334 Z M34.378,6.38 C33.542,6.38 32.904,6.6 32.42,7.084 C31.958,7.546 31.65,8.228 31.496,9.13 L37.348,9.13 C37.128,7.282 36.138,6.38 34.378,6.38 Z M41.766,0.308 L44.318,0.308 L44.318,13.816 L52.81,13.816 L52.81,16.016 L41.766,16.016 L41.766,0.308 Z M59.45,4.334 C61.166,4.334 62.552,4.884 63.608,6.028 C64.642,7.15 65.17,8.58 65.17,10.34 C65.17,12.078 64.642,13.508 63.63,14.608 C62.574,15.752 61.166,16.324 59.45,16.324 C57.712,16.324 56.326,15.752 55.27,14.608 C54.236,13.508 53.73,12.078 53.73,10.34 C53.73,8.58 54.236,7.15 55.292,6.028 C56.326,4.884 57.712,4.334 59.45,4.334 Z M59.45,6.38 C58.394,6.38 57.602,6.776 57.03,7.612 C56.546,8.316 56.304,9.24 56.304,10.34 C56.304,11.44 56.546,12.342 57.03,13.046 C57.602,13.86 58.394,14.278 59.45,14.278 C60.484,14.278 61.298,13.86 61.87,13.046 C62.354,12.32 62.618,11.418 62.618,10.34 C62.618,9.24 62.354,8.316 61.87,7.612 C61.298,6.776 60.484,6.38 59.45,6.38 Z M71.7,4.334 C73.108,4.334 74.23,4.884 75.066,6.028 L75.066,4.642 L77.574,4.642 L77.574,15.29 C77.574,18.876 75.792,20.68 72.228,20.68 C70.622,20.68 69.412,20.372 68.576,19.8 C67.74,19.184 67.212,18.26 66.992,16.984 L69.5,16.984 C69.632,17.622 69.896,18.062 70.314,18.326 C70.71,18.568 71.348,18.7 72.228,18.7 C74.12,18.7 75.066,17.688 75.066,15.664 L75.066,13.992 C74.23,15.158 73.108,15.752 71.7,15.752 C70.16,15.752 68.906,15.224 67.96,14.212 C66.992,13.178 66.53,11.792 66.53,10.076 C66.53,8.36 66.992,6.974 67.96,5.918 C68.906,4.862 70.16,4.334 71.7,4.334 Z M72.096,6.358 C71.15,6.358 70.424,6.688 69.896,7.348 C69.368,7.986 69.104,8.888 69.104,10.076 C69.104,11.154 69.302,11.99 69.72,12.606 C70.204,13.332 70.974,13.706 72.074,13.706 C73.042,13.706 73.79,13.376 74.318,12.76 C74.824,12.1 75.088,11.22 75.088,10.076 C75.088,8.91 74.824,8.008 74.318,7.348 C73.79,6.688 73.042,6.358 72.096,6.358 Z M81.508,0 C81.992,0 82.41,0.154 82.74,0.462 C83.048,0.77 83.224,1.166 83.224,1.65 C83.224,2.134 83.048,2.552 82.718,2.86 C82.388,3.168 81.992,3.322 81.508,3.322 C81.024,3.322 80.628,3.168 80.298,2.86 C79.968,2.53 79.814,2.134 79.814,1.65 C79.814,1.166 79.968,0.77 80.298,0.462 C80.628,0.154 81.024,0 81.508,0 Z M80.254,4.642 L82.762,4.642 L82.762,16.016 L80.254,16.016 L80.254,4.642 Z M91.338,4.334 C94.176,4.334 95.606,5.874 95.606,8.998 L95.606,16.016 L93.098,16.016 L93.098,9.218 C93.098,7.348 92.24,6.424 90.524,6.424 C89.908,6.424 89.358,6.644 88.896,7.084 C88.368,7.568 88.06,8.272 87.972,9.174 L87.972,16.016 L85.464,16.016 L85.464,4.642 L87.972,4.642 L87.972,5.962 C88.412,5.434 88.918,5.016 89.468,4.752 C90.04,4.466 90.656,4.334 91.338,4.334 Z" id="OneLogin"></path>
                    </g>
                    <g id="Group-23">
                        <g id="Group-21">
                            <mask id="mask-2" fill="white">
                                <use xlink:href="#path-1"></use>
                            </mask>
                            <use id="Mask" fill="#2684FF" xlink:href="#path-1"></use>
                            <mask id="mask-5" fill="white">
                                <use xlink:href="#path-4"></use>
                            </mask>
                            <use id="Combined-Shape" fill="url(#linearGradient-3)" xlink:href="#path-4"></use>
                        </g>
                        <polyline id="Path-2" stroke="#FFFFFF" stroke-width="3.75" fill-rule="nonzero" points="6.23931624 14.2671967 11.8387026 19.7270203 22.9073998 8.80737305"></polyline>
                    </g>
                </g>
            </g>
        </g>
    </g>
</svg>