<?xml version="1.0" encoding="UTF-8"?>
<svg width="14px" height="14px" viewBox="0 0 14 14" version="1.1" xmlns="http://www.w3.org/2000/svg" xmlns:xlink="http://www.w3.org/1999/xlink">
    <!-- Generator: Sketch 54.1 (76490) - https://sketchapp.com -->
    <title>reweima</title>
    <desc>Created with Sketch.</desc>
    <g id="Page-1" stroke="none" stroke-width="1" fill="none" fill-rule="evenodd">
        <g id="首页" transform="translate(-495.000000, -2727.000000)" fill="#FB85A1" fill-rule="nonzero">
            <g id="Group" transform="translate(120.000000, 2460.000000)">
                <g id="编组-4" transform="translate(276.000000, 251.000000)">
                    <g id="erweima" transform="translate(99.000000, 16.000000)">
                        <path d="M0,6.58822404 L6.58823248,6.58822404 L6.58823248,0 L0,0 L0,6.58822404 Z M1.64707008,1.64705601 L4.94117835,1.64705601 L4.94117835,4.94116803 L1.64707008,4.94116803 L1.64707008,1.64705601 Z M7.41176752,0 L7.41176752,6.58823998 L14,6.58823998 L14,0 L7.41176752,0 Z M12.3529299,4.94116803 L9.05882165,4.94116803 L9.05882165,1.64705601 L12.3529299,1.64705601 L12.3529299,4.94116803 Z M2.47058917,4.117648 L4.11764331,4.117648 L4.11764331,2.47057604 L2.47058917,2.47057604 L2.47058917,4.117648 Z M0,14 L6.58823248,14 L6.58823248,7.41176002 L0,7.41176002 L0,14 Z M1.64707008,9.05881603 L4.94117835,9.05881603 L4.94117835,12.352928 L1.64707008,12.352928 L1.64707008,9.05881603 Z M11.5294108,2.47057604 L9.88234075,2.47057604 L9.88234075,4.11763205 L11.5294108,4.11763205 L11.5294108,2.47057604 L11.5294108,2.47057604 Z M7.41176752,14 L9.05882165,14 L9.05882165,12.352944 L7.41176752,12.352944 L7.41176752,14 Z M9.05882165,9.05881603 L9.05882165,12.352928 L10.7058758,12.352928 L10.7058758,9.05881603 L9.05882165,9.05881603 Z M12.3529299,12.352944 L10.7058758,12.352944 L10.7058758,14 L13.9999841,14 L13.9999841,10.705872 L12.3529299,10.705872 L12.3529299,12.352944 Z M12.3529299,9.05881603 L13.9999841,9.05881603 L13.9999841,7.41176002 L12.3529299,7.41176002 L12.3529299,9.05881603 Z M7.41176752,7.41176002 L7.41176752,9.05881603 L9.05882165,9.05881603 L9.05882165,7.41176002 L7.41176752,7.41176002 Z M2.47058917,11.529408 L4.11764331,11.529408 L4.11764331,9.882352 L2.47058917,9.882352 L2.47058917,11.529408 Z" id="reweima"></path>
                    </g>
                </g>
            </g>
        </g>
    </g>
</svg>