<?xml version="1.0" encoding="UTF-8"?>
<svg width="40px" height="26px" viewBox="0 0 40 26" version="1.1" xmlns="http://www.w3.org/2000/svg" xmlns:xlink="http://www.w3.org/1999/xlink">
    <!-- Generator: Sketch 54.1 (76490) - https://sketchapp.com -->
    <title>Combined Shape</title>
    <desc>Created with Sketch.</desc>
    <g id="Page-1" stroke="none" stroke-width="1" fill="none" fill-rule="evenodd">
        <g id="tabæ " transform="translate(-120.000000, -21.000000)" fill="#FFFFFF">
            <g id="Group-2">
                <path d="M145.720415,39.9174119 C145.80865,40.3266125 146.896884,41.5616007 147.213061,41.8348936 L147.452766,42.0417098 C147.770413,42.3120481 148.273354,42.2706849 148.608648,42.0239827 C150.168941,40.8731982 151.524822,39.2807135 152.59541,37.8197047 C152.617468,35.7914287 148.666001,31.7245358 146.570414,30.2384136 C146.213061,30.0256884 145.85865,30.2192093 145.805709,30.6357962 C145.368944,34.1058766 145.088062,36.9540312 145.720415,39.9174119 M143.361593,22.0440602 C143.266005,21.6363368 142.989534,21.5019063 142.57777,21.5639512 C140.288066,21.9081524 138.44542,22.3291711 137.548362,22.5788278 C137.148362,22.6896222 136.882186,23.2037082 136.963068,23.6158634 C138.060126,29.2131962 140.37483,33.4514511 142.783652,36.844714 C143.026299,37.1859608 143.285122,37.1239159 143.349828,36.7088063 C144.264533,30.6018192 144.018945,25.57914 143.361593,22.0440602 M151.386587,21.8239487 C151.588057,21.4575886 151.383646,21.1178191 150.96747,21.0927057 C149.648353,21.0114565 148.302766,20.9878203 147.083649,21.0055474 C146.667473,21.0114565 145.974826,21.357135 145.920415,21.7722446 C145.729238,23.2435942 145.666003,25.0886902 145.786591,26.7373108 C145.816003,27.1553749 146.443944,27.3252597 146.796884,27.1036709 C149.035118,25.2895973 149.86747,24.2614254 151.386587,21.8239487 M159.401287,22.0706509 C159.802757,22.1814453 160.070404,22.6896222 159.98364,23.0988229 C159.61011,24.8405107 158.458641,29.0817201 155.42629,34.136899 C155.210114,34.4943956 154.577761,34.6170081 154.233644,34.3836012 C152.429233,33.5533819 149.336589,30.7052273 148.63806,29.2737638 C148.451295,28.9000173 148.451295,28.5174074 148.604236,28.1288884 C150.168941,25.5850491 152.826292,23.5538185 154.883643,22.0248559 C155.213055,21.7692901 155.855701,21.4930428 156.261583,21.5846328 C156.902759,21.7294041 158.752758,21.8904253 159.401287,22.0706509 Z M124.755724,34.2742841 C126.535135,35.2330249 128.504251,36.6585795 130.066014,38.4682212 C130.338073,38.7843546 130.574838,39.3915079 130.601308,39.809572 C130.726308,41.8496662 130.78219,44.1482805 129.999838,46.3213279 C129.857191,46.7142787 129.380721,47.0023441 128.966015,46.9683672 C124.977783,46.6448475 121.905726,45.9150818 120.599845,45.5516762 C120.198375,45.4408818 119.933669,44.9267958 120.014551,44.5146407 C120.770433,40.6560412 122.14102,37.4105041 123.708666,34.5904174 C123.911607,34.2255346 124.388077,34.0778087 124.755724,34.2742841 Z M136.974833,32.3095302 C136.233657,33.439633 133.671894,35.8667689 131.524837,36.1326754 C128.942486,36.1208573 126.452782,33.3007707 126.013076,32.3021439 C125.779253,31.9549881 125.816018,31.4143115 126.076311,31.0878373 C128.138075,28.4996803 130.03072,26.7624242 130.95572,25.9750453 C131.273366,25.704707 131.799837,25.7150478 132.111601,25.9927724 C133.960129,27.6369612 135.611599,29.3623993 136.955715,31.0907918 C137.211597,31.4202205 137.221892,31.971238 136.974833,32.3095302 Z M142.45277,45.567926 C139.586596,46.3612139 136.711598,46.7984824 134.098364,46.9979123 C133.682188,47.0289348 133.276306,46.7098469 133.096895,46.3316687 C132.542483,45.1587254 132.279248,41.9722786 132.517483,39.8110493 C132.527777,39.3915079 132.751307,38.7858318 133.017483,38.4637895 C134.461599,36.7206243 136.026304,35.2729109 138.092479,34.2388299 C138.464538,34.0526953 138.94542,34.2151938 139.148361,34.5800766 C141.661594,39.1211695 142.692476,42.9384057 143.033652,44.5382768 C143.121887,44.9474774 142.85424,45.4556544 142.45277,45.567926 Z" id="Combined-Shape"></path>
            </g>
        </g>
    </g>
</svg>