<?xml version="1.0" encoding="UTF-8"?>
<svg width="131px" height="30px" viewBox="0 0 131 30" version="1.1" xmlns="http://www.w3.org/2000/svg" xmlns:xlink="http://www.w3.org/1999/xlink">
    <!-- Generator: Sketch 54.1 (76490) - https://sketchapp.com -->
    <title>wangguan_logo</title>
    <desc>Created with Sketch.</desc>
    <defs>
        <linearGradient x1="23.0490792%" y1="78.6630055%" x2="66.8538657%" y2="0%" id="linearGradient-1">
            <stop stop-color="#0053CD" offset="0%"></stop>
            <stop stop-color="#2684FF" offset="100%"></stop>
        </linearGradient>
        <linearGradient x1="76.6288612%" y1="78.1944031%" x2="0%" y2="39.3939503%" id="linearGradient-2">
            <stop stop-color="#0053CD" offset="0%"></stop>
            <stop stop-color="#2684FF" offset="100%"></stop>
        </linearGradient>
    </defs>
    <g id="Page-1" stroke="none" stroke-width="1" fill="none" fill-rule="evenodd">
        <g id="首页" transform="translate(-241.000000, -2137.000000)">
            <g id="Group" transform="translate(120.000000, 2020.000000)">
                <g id="wangguan_logo" transform="translate(121.000000, 117.000000)">
                    <path d="M54.9661253,19.9946063 C54.4048265,19.0884574 53.8435277,18.2254585 53.2606405,17.4056095 C52.5266343,19.3473571 51.6630977,21.030205 50.6700306,22.4541532 L49.3531373,20.8576052 C50.3677928,19.3257821 51.209741,17.5350593 51.9005703,15.4854369 C50.9938568,14.2340885 50.0439666,13.0474649 49.0508995,11.8824164 L50.3030276,10.6526429 C50.9938568,11.386192 51.727863,12.2707659 52.5482228,13.3063646 C52.872049,11.9471413 53.1526984,10.5016181 53.3685825,8.96979504 L55.2467747,9.29341963 C54.9229484,11.4509169 54.5127686,13.4358145 53.9946466,15.2265372 C54.7286527,16.2621359 55.5058357,17.4056095 56.3261954,18.6569579 L54.9661253,19.9946063 Z M61.1835889,21.030205 C60.5791133,19.9514563 59.9530492,18.9158576 59.3269852,17.9234088 C58.5282138,19.8651564 57.599912,21.5480043 56.5204912,22.9719525 L55.2251863,21.3969795 C56.3477839,19.8220065 57.2760857,18.0097087 58.0316803,15.9385113 C57.1249668,14.600863 56.196665,13.3279396 55.2467747,12.1197411 L56.5204912,10.9115426 C57.2113205,11.6882416 57.9453266,12.6159655 58.7225096,13.7162891 C59.111101,12.2491909 59.4349273,10.6742179 59.6939882,9.03451996 L61.5937688,9.35814455 C61.2051773,11.7098166 60.7086438,13.8457389 60.1041681,15.7659115 C60.8813511,16.9525351 61.7017109,18.2470334 62.5652475,19.6709817 L61.1835889,21.030205 Z M62.4573054,24.8489752 L60.2984639,24.8489752 L59.7587535,22.8640777 L61.7880645,22.9503776 C62.3061865,22.9503776 62.5868359,22.6914779 62.5868359,22.1952535 L62.5868359,7.78317152 L49.029311,7.78317152 L49.029311,24.978425 L47,24.978425 L47,5.81984898 L64.616147,5.81984898 L64.616147,22.6483279 C64.616147,24.1154261 63.8821408,24.8489752 62.4573054,24.8489752 Z M73.5537509,5.15102481 C74.3741107,6.22977346 75.1728821,7.41639698 75.9284766,8.71089536 L74.5899949,9.37971953 L79.0587968,9.37971953 C79.8359798,8.14994606 80.5268091,6.6828479 81.1312847,5 L83.1390073,5.53937433 C82.6640622,6.96332255 82.0595866,8.23624595 81.3687573,9.37971953 L85.4705562,9.37971953 L85.4705562,11.364617 L78.4327328,11.364617 L78.4327328,12.0334412 C78.389556,13.0690399 78.2816139,14.0183387 78.130495,14.9029126 L86.7226843,14.9029126 L86.7226843,16.8878101 L79.1667389,16.8878101 C80.2245713,19.4983819 82.9231232,21.5480043 87.2623947,23.0582524 L86.0534434,25 C81.5198762,23.1445523 78.648617,20.6850054 77.3964889,17.6429342 C77.0078974,18.6569579 76.5329522,19.5631068 75.9716534,20.3398058 C74.5036412,22.2815534 72.1073271,23.7702265 68.7827111,24.8058252 L67.6601135,23.0151025 C70.9847295,21.9363538 73.2299247,20.5771305 74.4172875,18.9374326 C74.8274674,18.3117584 75.1728821,17.6213592 75.4535315,16.8878101 L68.0702934,16.8878101 L68.0702934,14.9029126 L76.0148303,14.9029126 C76.1875376,13.9967638 76.3170681,13.0474649 76.3602449,12.0334412 L76.3602449,11.364617 L69.3008331,11.364617 L69.3008331,9.37971953 L73.920754,9.37971953 C73.2083363,8.12837109 72.4527417,7.02804746 71.6755588,6.05717368 L73.5537509,5.15102481 Z M100.085913,18.7216828 L100.085913,20.7713053 L98.2724865,21.2028047 L98.2724865,24.9352751 L96.2863523,24.9352751 L96.2863523,21.6127292 C94.1275108,22.0442287 91.903904,22.4325782 89.5939435,22.7777778 L89.09741,20.7713053 L90.9108369,20.5555556 L90.9108369,7.69687163 L89.356471,7.69687163 L89.356471,5.77669903 L99.7620872,5.77669903 L99.7620872,6.96332255 L108.224746,6.96332255 L108.224746,8.8403452 C107.749801,12.7022654 106.821499,16.0032362 105.418252,18.7648328 C106.411319,20.4476807 107.641859,21.9795038 109.088283,23.360302 L107.706624,24.9352751 C106.368142,23.5544768 105.245545,22.1305286 104.317243,20.6634304 C103.194645,22.3247033 101.89934,23.7486516 100.388151,24.9352751 L98.9849042,23.3387271 C100.668801,22.0226537 102.050459,20.4476807 103.151468,18.635383 C101.640279,15.6580367 100.733566,12.4217907 100.452916,8.92664509 L99.5893799,8.92664509 L99.5893799,7.69687163 L98.2724865,7.69687163 L98.2724865,19.1747573 C98.8985506,19.0237325 99.5030262,18.8727077 100.085913,18.7216828 Z M102.331109,8.92664509 C102.59017,11.7098166 103.216234,14.2556634 104.252478,16.5641855 C105.245545,14.3203883 105.936374,11.7745415 106.303377,8.92664509 L102.331109,8.92664509 Z M96.2863523,19.6278317 L96.2863523,17.0819849 L92.9185595,17.0819849 L92.9185595,20.2535059 C94.0627455,20.0593312 95.1853431,19.8435814 96.2863523,19.6278317 Z M92.9185595,15.2481122 L96.2863523,15.2481122 L96.2863523,12.4002157 L92.9185595,12.4002157 L92.9185595,15.2481122 Z M92.9185595,10.5447681 L96.2863523,10.5447681 L96.2863523,7.69687163 L92.9185595,7.69687163 L92.9185595,10.5447681 Z M114.010441,5.71197411 L127.136198,5.71197411 L127.136198,11.9255663 L114.010441,11.9255663 L114.010441,5.71197411 Z M125.06371,10.0916936 L125.06371,7.54584682 L116.082929,7.54584682 L116.082929,10.0916936 L125.06371,10.0916936 Z M115.52163,15.3128371 L110.750591,15.3128371 L110.750591,13.3495146 L130.37446,13.3495146 L130.37446,15.3128371 L117.57253,15.3128371 L116.946466,17.3840345 L127.438436,17.3840345 C127.265728,21.030205 126.920314,23.1877023 126.380603,23.8565264 C125.840893,24.5253506 124.783061,24.8705502 123.228695,24.8705502 C122.170862,24.8705502 121.220972,24.8058252 120.379024,24.6979504 L119.688195,22.8425027 C120.853969,22.9503776 121.868625,23.0151025 122.775338,23.0151025 C123.854759,23.0151025 124.545588,22.7993528 124.804649,22.3678533 C125.042122,21.9363538 125.214829,20.8791802 125.344359,19.2394822 L114.506975,19.2394822 L115.52163,15.3128371 Z" id="网关取号" fill="#3A416F" fill-rule="nonzero"></path>
                    <g id="Group-26">
                        <path d="M31.3831776,8.3089644 L24.5975816,11.3331324 C23.1520255,8.13028099 19.9458376,6.02639296 16.3520603,6.02639296 C12.7790385,6.02639296 9.58811707,8.10585778 8.13033619,11.2808575 L1.36448598,8.21331444 C4.02043132,2.42875111 9.83981821,-1.36363636 16.3520603,-1.36363636 C22.9023056,-1.36363636 28.7492578,2.47311096 31.3831776,8.3089644 Z M1.39387746,21.8503368 L8.14640139,18.7539338 C9.61217238,21.9103519 12.7928779,23.973607 16.3520603,23.973607 C19.9231247,23.973607 23.112603,21.8964385 24.5715218,18.7240663 L31.335495,21.7956941 C28.6774999,27.5754194 22.8607184,31.3636364 16.3520603,31.3636364 C9.86515791,31.3636364 4.06421449,27.6006894 1.39387746,21.8503368 Z" id="Oval-2" fill="#2684FF" transform="translate(16.373832, 15.000000) rotate(-90.000000) translate(-16.373832, -15.000000) "></path>
                        <path d="M25.3536713,15 L32.7437121,15 C32.7437213,15.0072544 32.743726,15.0145097 32.743726,15.0217658 C32.743726,21.5086682 28.980779,27.3096116 23.2304264,29.9799486 L20.1340234,23.2274247 C23.2904415,21.7616537 25.3536967,18.5809481 25.3536967,15.0217658 C25.3536967,15.014509 25.3536881,15.0072537 25.3536709,15 Z" id="Combined-Shape" fill="url(#linearGradient-1)"></path>
                        <ellipse id="Oval-4" fill="#2684FF" cx="16.3738318" cy="15" rx="5.45794393" ry="5.45454545"></ellipse>
                        <path d="M13.836599,10.8105468 L7.09368108,13.836599 C5.65721682,10.631752 2.47119435,8.52655317 -1.09997988,8.52655317 C-1.15509505,5.62261638 -1.1279208,5.59414057 -1.09997988,1.13191946 C5.40906763,1.13191946 11.2192453,4.97105728 13.836599,10.8105468 Z" id="Oval-2-Copy" fill="url(#linearGradient-2)" transform="translate(6.352340, 7.484259) rotate(-90.000000) translate(-6.352340, -7.484259) "></path>
                    </g>
                </g>
            </g>
        </g>
    </g>
</svg>